{
.appVersion = "116";
DisplayStrings = (
A,
"/Kcaron"
);
copyright = "Copyright © 2024 gbgk + The Inter Project Authors";
customParameters = (
{
name = license;
value = "OFL 1.1";
}
);
date = "2023-11-20 00:06:37 +0000";
designer = gbgk;
designerURL = "https://gbgk.me/";
familyName = "Dag Round Text";
featurePrefixes = (
{
automatic = 1;
code = "languagesystem DFLT dflt;\012languagesystem latn dflt;\012languagesystem hebr dflt;\012languagesystem latn ROM;\012languagesystem latn MOL;\012languagesystem latn CAT;\012";
name = Languagesystems;
}
);
features = (
{
automatic = 1;
code = "feature locl;\012feature frac;\012feature ordn;\012feature smcp;\012";
name = aalt;
},
{
automatic = 1;
code = "script latn;\012language ROM;\012sub Scedilla by Scommaaccent;\012sub scedilla by scommaaccent;\012sub tcedilla by tcommaaccent;\012language MOL;\012sub Scedilla by Scommaaccent;\012sub scedilla by scommaaccent;\012sub tcedilla by tcommaaccent;\012language CAT;\012sub  l' periodcentered' l by ldot;\012sub  L' periodcentered' L by Ldot;\012";
name = locl;
},
{
automatic = 1;
code = "lookup FRAC {\012	sub slash by fraction;\012} FRAC;\012lookup UP {\012	sub [zero one two three four five six seven eight nine] by [zero.numr one.numr two.numr three.numr four.numr five.numr six.numr seven.numr eight.numr nine.numr];\012} UP;\012lookup DOWN {\012	sub fraction [zero.numr one.numr two.numr three.numr four.numr five.numr six.numr seven.numr eight.numr nine.numr]' by [zero.dnom one.dnom two.dnom three.dnom four.dnom five.dnom six.dnom seven.dnom eight.dnom nine.dnom];\012	sub [zero.dnom one.dnom two.dnom three.dnom four.dnom five.dnom six.dnom seven.dnom eight.dnom nine.dnom] [zero.numr one.numr two.numr three.numr four.numr five.numr six.numr seven.numr eight.numr nine.numr]' by [zero.dnom one.dnom two.dnom three.dnom four.dnom five.dnom six.dnom seven.dnom eight.dnom nine.dnom];\012} DOWN;\012";
name = frac;
},
{
automatic = 1;

glyphs = (
{
glyphname = A;
lastChange = "2024-07-06 19:26:32 +0000";
layers = (
{
layerId = "6C6EE9F0-1505-4036-BE3C-A809537EF5EF";
paths = (
{
closed = 1;
nodes = (
"191 0 LINE SMOOTH",
"263 0 OFFCURVE",
"309 33 OFFCURVE",
"332 101 CURVE SMOOTH",
"431 393 LINE",
"1017 393 LINE",
"1119 100 LINE SMOOTH",
"1143 31 OFFCURVE",
"1188 0 OFFCURVE",
"1260 0 CURVE SMOOTH",
"1278 0 LINE SMOOTH",
"1352 0 OFFCURVE",
"1380 55 OFFCURVE",
"1349 142 CURVE SMOOTH",
"897 1391 LINE SMOOTH",
"873 1458 OFFCURVE",
"827 1490 OFFCURVE",
"755 1490 CURVE SMOOTH",
"687 1490 LINE SMOOTH",
"615 1490 OFFCURVE",
"570 1458 OFFCURVE",
"546 1390 CURVE SMOOTH",
"102 142 LINE SMOOTH",
"71 55 OFFCURVE",
"100 0 OFFCURVE",
"175 0 CURVE SMOOTH"
);
},
{
closed = 1;
nodes = (
"496 583 LINE",
"579 829 LINE SMOOTH",
"597.667 885.667 OFFCURVE",
"618.5 953.5 OFFCURVE",
"641.5 1032.5 CURVE SMOOTH",
"664.5 1111.5 OFFCURVE",
"690.667 1204.333 OFFCURVE",
"720 1311 CURVE",
"749.333 1205.667 OFFCURVE",
"775.667 1113.833 OFFCURVE",
"799 1035.5 CURVE SMOOTH",
"822.333 957.167 OFFCURVE",
"844 888.333 OFFCURVE",
"864 829 CURVE SMOOTH",
"950 583 LINE"
);
}
);
userData = {
assembly = "NPUSHB[ ]	/* 41 values pushed */\01213 1 4 0 1 76 0 4 0 2 1 4 2 104 0 0 0 103 77 5 3 2 1 1 104 1 78 0 0 9 8 0 7 0 7 17 17 17 6 12 25 \012CALL[ ]	/* CallFunction */";
};
width = 1452;
}
);
leftKerningGroup = A;
note = A;
rightKerningGroup = A;
unicode = 0041;
},
{
glyphname = Astroke;
lastChange = "2024-07-06 19:26:32 +0000";
layers = (
{
layerId = "6C6EE9F0-1505-4036-BE3C-A809537EF5EF";
paths = (
{
closed = 1;
nodes = (
"1021 1678 OFFCURVE",
"986 1647 OFFCURVE",
"962 1578 CURVE SMOOTH",
"897 1390 LINE",
"879 1440 LINE SMOOTH",
"867 1474 OFFCURVE",
"827 1490 OFFCURVE",
"755 1490 CURVE SMOOTH",
"687 1490 LINE SMOOTH",
"615 1490 OFFCURVE",
"570 1458 OFFCURVE",
"546 1390 CURVE SMOOTH",
"102 142 LINE SMOOTH",
"71 55 OFFCURVE",
"106 0 OFFCURVE",
"191 0 CURVE SMOOTH",
"263 0 OFFCURVE",
"309 33 OFFCURVE",
"332 101 CURVE SMOOTH",
"431 393 LINE",
"552 393 LINE",
"400 -48 LINE SMOOTH",
"370 -135 OFFCURVE",
"381 -190 OFFCURVE",
"426 -190 CURVE SMOOTH",
"477 -190 OFFCURVE",
"513 -157 OFFCURVE",
"536 -89 CURVE SMOOTH",
"702 393 LINE",
"1017 393 LINE",
"1119 100 LINE SMOOTH",
"1143 31 OFFCURVE",
"1188 0 OFFCURVE",
"1260 0 CURVE SMOOTH",
"1278 0 LINE SMOOTH",
"1352 0 OFFCURVE",
"1380 55 OFFCURVE",
"1349 142 CURVE SMOOTH",
"974 1178 LINE",
"1098 1536 LINE SMOOTH",
"1128 1623 OFFCURVE",
"1117 1678 OFFCURVE",
"1072 1678 CURVE SMOOTH"
);
},
{
closed = 1;
nodes = (
"496 583 LINE",
"579 829 LINE SMOOTH",
"597.667 885.667 OFFCURVE",
"618.5 953.5 OFFCURVE",
"641.5 1032.5 CURVE SMOOTH",
"664.5 1111.5 OFFCURVE",
"690.667 1204.333 OFFCURVE",
"720 1311 CURVE",
"745.333 1220.333 OFFCURVE",
"768 1141.333 OFFCURVE",
"788 1074 CURVE",
"618 583 LINE"
);
},
{
closed = 1;
nodes = (
"860.333 839.667 OFFCURVE",
"862 834.333 OFFCURVE",
"864 829 CURVE SMOOTH",
"950 583 LINE",
"768 583 LINE",
"859 845 LINE"
);
}
);
userData = {
assembly = "NPUSHB[ ]	/* 67 values pushed */\01224 19 17 14 1 5 7 5 1 76 9 1 6 5 6 133 0 2 0 2 134 8 10 2 7 3 1 1 0 7 1 104 0 5 5 103 77 4 1 0 0 104 0 78 16 16 0 0 26 25 16 23 16 23 0 15 0 15 17 17 17 17 17 18 11 12 28 \012CALL[ ]	/* CallFunction */";
};
width = 1452;
}
);
leftKerningGroup = A;
note = uni023A;
rightKerningGroup = A;
unicode = 023A;
},
{
glyphname = AE;
lastChange = "2024-07-06 19:26:32 +0000";
layers = (
{
layerId = "6C6EE9F0-1505-4036-BE3C-A809537EF5EF";
paths = (
{
closed = 1;
nodes = (
"200 0 LINE SMOOTH",
"270 0 OFFCURVE",
"316 29 OFFCURVE",
"345 94 CURVE SMOOTH",
"480 395 LINE",
"994 395 LINE",
"994 124 LINE SMOOTH",
"994 44 OFFCURVE",
"1038 0 OFFCURVE",
"1118 0 CURVE SMOOTH",
"1805 0 LINE SMOOTH",
"1885 0 OFFCURVE",
"1929 35 OFFCURVE",
"1929 98 CURVE SMOOTH",
"1929 161 OFFCURVE",
"1885 196 OFFCURVE",
"1805 196 CURVE SMOOTH",
"1213 196 LINE",
"1213 650 LINE",
"1749 650 LINE SMOOTH",
"1829 650 OFFCURVE",
"1873 685 OFFCURVE",
"1873 748 CURVE SMOOTH",
"1873 811 OFFCURVE",
"1829 845 OFFCURVE",
"1749 845 CURVE SMOOTH",
"1213 845 LINE",
"1213 1294 LINE",
"1797 1294 LINE SMOOTH",
"1877 1294 OFFCURVE",
"1921 1329 OFFCURVE",
"1921 1392 CURVE SMOOTH",
"1921 1455 OFFCURVE",
"1877 1490 OFFCURVE",
"1797 1490 CURVE SMOOTH",
"845 1490 LINE SMOOTH",
"775 1490 OFFCURVE",
"729 1460 OFFCURVE",
"700 1397 CURVE SMOOTH",
"119 146 LINE SMOOTH",
"79 59 OFFCURVE",
"103 0 OFFCURVE",
"177 0 CURVE SMOOTH"
);
},
{
closed = 1;
nodes = (
"560 574 LINE",
"907 1343 LINE",
"994 1343 LINE",
"994 574 LINE"
);
}
);
userData = {
assembly = "NPUSHB[ ]	/* 66 values pushed */\0120 9 0 1 1 9 114 0 2 0 3 8 2 3 103 0 8 0 6 4 8 6 103 0 1 1 0 96 0 0 0 103 77 0 4 4 5 95 10 7 2 5 5 104 5 78 0 0 19 18 17 16 0 15 0 15 17 17 17 17 17 17 17 11 12 29 \012CALL[ ]	/* CallFunction */";
};
width = 2055;
}
);
leftKerningGroup = A;
note = AE;
rightKerningGroup = AE;
unicode = 00C6;
},
{
glyphname = B;
lastChange = "2024-07-06 19:26:32 +0000";
layers = (
{
layerId = "6C6EE9F0-1505-4036-BE3C-A809537EF5EF";
paths = (
{
closed = 1;
nodes = (
"165 124 LINE SMOOTH",
"165 44 OFFCURVE",
"209 0 OFFCURVE",
"289 0 CURVE SMOOTH",
"738 0 LINE SMOOTH",
"853.333 0 OFFCURVE",
"948.167 17.5 OFFCURVE",
"1022.5 52.5 CURVE SMOOTH",
"1096.833 87.5 OFFCURVE",
"1151.833 135.333 OFFCURVE",
"1187.5 196 CURVE SMOOTH",
"1223.167 256.667 OFFCURVE",
"1241 325.333 OFFCURVE",
"1241 402 CURVE SMOOTH",
"1241 478 OFFCURVE",
"1225.5 543 OFFCURVE",
"1194.5 597 CURVE SMOOTH",
"1163.5 651 OFFCURVE",
"1124.333 692.5 OFFCURVE",
"1077 721.5 CURVE SMOOTH",
"1029.667 750.5 OFFCURVE",
"981 766.333 OFFCURVE",
"931 769 CURVE",
"931 784 LINE",
"1000.333 801.333 OFFCURVE",
"1059.667 834.833 OFFCURVE",
"1109 884.5 CURVE SMOOTH",
"1158.333 934.167 OFFCURVE",
"1183 1005.667 OFFCURVE",
"1183 1099 CURVE SMOOTH",
"1183 1172.333 OFFCURVE",
"1165.833 1238.5 OFFCURVE",
"1131.5 1297.5 CURVE SMOOTH",
"1097.167 1356.5 OFFCURVE",
"1045.333 1403.333 OFFCURVE",
"976 1438 CURVE SMOOTH",
"906.667 1472.667 OFFCURVE",
"819.333 1490 OFFCURVE",
"714 1490 CURVE SMOOTH",
"289 1490 LINE SMOOTH",
"209 1490 OFFCURVE",
"165 1446 OFFCURVE",
"165 1366 CURVE SMOOTH"
);
},
{
closed = 1;
nodes = (
"393 196 LINE",
"393 669 LINE",
"724 669 LINE SMOOTH",
"813.333 669 OFFCURVE",
"884.167 643.833 OFFCURVE",
"936.5 593.5 CURVE SMOOTH",
"988.833 543.167 OFFCURVE",
"1015 483 OFFCURVE",
"1015 413 CURVE SMOOTH",
"1015 351 OFFCURVE",
"991.833 299.333 OFFCURVE",
"945.5 258 CURVE SMOOTH",
"899.167 216.667 OFFCURVE",
"822.333 196 OFFCURVE",
"715 196 CURVE SMOOTH"
);
},
{
closed = 1;
nodes = (
"393 845 LINE",
"393 1295 LINE",
"698 1295 LINE SMOOTH",
"786 1295 OFFCURVE",
"851.5 1274.5 OFFCURVE",
"894.5 1233.5 CURVE SMOOTH",
"937.5 1192.5 OFFCURVE",
"959 1141.333 OFFCURVE",
"959 1080 CURVE SMOOTH",
"959 1008.667 OFFCURVE",
"933.333 951.667 OFFCURVE",
"882 909 CURVE SMOOTH",
"830.667 866.333 OFFCURVE",
"767.333 845 OFFCURVE",
"692 845 CURVE SMOOTH"
);
}
);
userData = {
assembly = "NPUSHB[ ]	/* 54 values pushed */\0129 1 3 4 1 76 0 4 0 3 2 4 3 103 0 5 5 0 95 0 0 0 103 77 0 2 2 1 95 6 1 1 1 104 1 78 0 0 36 34 30 28 27 25 21 19 0 18 0 17 33 7 12 23 \012CALL[ ]	/* CallFunction */";
};
width = 1345;
}
);
leftKerningGroup = B;
note = B;
rightKerningGroup = B;
unicode = 0042;
},
{
glyphname = Bhook;
lastChange = "2024-07-06 19:26:32 +0000";
layers = (
{
layerId = "6C6EE9F0-1505-4036-BE3C-A809537EF5EF";
paths = (
{
closed = 1;
nodes = (
"57 1124 OFFCURVE",
"94 1098 OFFCURVE",
"162 1098 CURVE SMOOTH",
"230 1098 OFFCURVE",
"266 1121 OFFCURVE",
"266 1162 CURVE SMOOTH",
"266 1250 OFFCURVE",
"310.333 1294 OFFCURVE",
"399 1294 CURVE SMOOTH",
"481 1294 LINE",
"481 124 LINE SMOOTH",
"481 44 OFFCURVE",
"525 0 OFFCURVE",
"605 0 CURVE SMOOTH",
"1054 0 LINE SMOOTH",
"1169.333 0 OFFCURVE",
"1264.167 17.5 OFFCURVE",
"1338.5 52.5 CURVE SMOOTH",
"1412.833 87.5 OFFCURVE",
"1467.833 135.333 OFFCURVE",
"1503.5 196 CURVE SMOOTH",
"1539.167 256.667 OFFCURVE",
"1557 325.333 OFFCURVE",
"1557 402 CURVE SMOOTH",
"1557 478 OFFCURVE",
"1541.5 543 OFFCURVE",
"1510.5 597 CURVE SMOOTH",
"1479.5 651 OFFCURVE",
"1440.333 692.5 OFFCURVE",
"1393 721.5 CURVE SMOOTH",
"1345.667 750.5 OFFCURVE",
"1297 766.333 OFFCURVE",
"1247 769 CURVE",
"1247 784 LINE",
"1316.333 801.333 OFFCURVE",
"1375.667 834.833 OFFCURVE",
"1425 884.5 CURVE SMOOTH",
"1474.333 934.167 OFFCURVE",
"1499 1005.667 OFFCURVE",
"1499 1099 CURVE SMOOTH",
"1499 1172.333 OFFCURVE",
"1481.833 1238.5 OFFCURVE",
"1447.5 1297.5 CURVE SMOOTH",
"1413.167 1356.5 OFFCURVE",
"1361.333 1403.333 OFFCURVE",
"1292 1438 CURVE SMOOTH",
"1222.667 1472.667 OFFCURVE",
"1135.333 1490 OFFCURVE",
"1030 1490 CURVE SMOOTH",
"401 1490 LINE SMOOTH",
"171.667 1490 OFFCURVE",
"57 1383.667 OFFCURVE",
"57 1171 CURVE SMOOTH"
);
},
{
closed = 1;
nodes = (
"709 196 LINE",
"709 669 LINE",
"1040 669 LINE SMOOTH",
"1129.333 669 OFFCURVE",
"1200.167 643.833 OFFCURVE",
"1252.5 593.5 CURVE SMOOTH",
"1304.833 543.167 OFFCURVE",
"1331 483 OFFCURVE",
"1331 413 CURVE SMOOTH",
"1331 351 OFFCURVE",
"1307.833 299.333 OFFCURVE",
"1261.5 258 CURVE SMOOTH",
"1215.167 216.667 OFFCURVE",
"1138.333 196 OFFCURVE",
"1031 196 CURVE SMOOTH"
);
},
{
closed = 1;
nodes = (
"709 845 LINE",
"709 1295 LINE",
"1014 1295 LINE SMOOTH",
"1102 1295 OFFCURVE",
"1167.5 1274.5 OFFCURVE",
"1210.5 1233.5 CURVE SMOOTH",
"1253.5 1192.5 OFFCURVE",
"1275 1141.333 OFFCURVE",
"1275 1080 CURVE SMOOTH",
"1275 1008.667 OFFCURVE",
"1249.333 951.667 OFFCURVE",
"1198 909 CURVE SMOOTH",
"1146.667 866.333 OFFCURVE",
"1083.333 845 OFFCURVE",
"1008 845 CURVE SMOOTH"
);
}
);
userData = {
assembly = "PUSHB[ ]	/* 6 values pushed */\01211 1 5 6 1 76 \012MPPEM[ ]	/* MeasurePixelPerEm */\012PUSHB[ ]	/* 1 value pushed */\01213 \012LT[ ]	/* LessThan */\012IF[ ]	/* If */\012NPUSHB[ ]	/* 38 values pushed */\0128 1 3 2 6 2 3 114 0 6 0 5 4 6 5 103 7 1 2 2 0 95 0 0 0 103 77 0 4 4 1 95 0 1 1 104 1 78 \012ELSE[ ]	/* Else */\012NPUSHB[ ]	/* 39 values pushed */\0128 1 3 2 6 2 3 6 128 0 6 0 5 4 6 5 103 7 1 2 2 0 95 0 0 0 103 77 0 4 4 1 95 0 1 1 104 1 78 \012EIF[ ]	/* EndIf */\012NPUSHB[ ]	/* 20 values pushed */\0120 0 44 42 38 36 35 33 29 27 0 26 0 26 33 46 50 9 12 25 \012CALL[ ]	/* CallFunction */";
};
width = 1661;
}
);
leftKerningGroup = B;
note = uni0181;
rightKerningGroup = B;
unicode = 0181;
},
{
glyphname = Btopbar;
lastChange = "2024-07-06 19:26:32 +0000";
layers = (
{
layerId = "6C6EE9F0-1505-4036-BE3C-A809537EF5EF";
paths = (
{
closed = 1;
nodes = (
"165 124 LINE SMOOTH",
"165 44 OFFCURVE",
"209 0 OFFCURVE",
"289 0 CURVE SMOOTH",
"723 0 LINE SMOOTH",
"833.667 0 OFFCURVE",
"928 19.167 OFFCURVE",
"1006 57.5 CURVE SMOOTH",
"1084 95.833 OFFCURVE",
"1143.667 149 OFFCURVE",
"1185 217 CURVE SMOOTH",
"1226.333 285 OFFCURVE",
"1247 363.667 OFFCURVE",
"1247 453 CURVE SMOOTH",
"1247 586.333 OFFCURVE",
"1201.167 692.667 OFFCURVE",
"1109.5 772 CURVE SMOOTH",
"1017.833 851.333 OFFCURVE",
"889 891.333 OFFCURVE",
"723 892 CURVE SMOOTH",
"393 892 LINE",
"393 1294 LINE",
"973 1294 LINE SMOOTH",
"1053 1294 OFFCURVE",
"1097 1329 OFFCURVE",
"1097 1392 CURVE SMOOTH",
"1097 1455 OFFCURVE",
"1053 1490 OFFCURVE",
"973 1490 CURVE SMOOTH",
"289 1490 LINE SMOOTH",
"209 1490 OFFCURVE",
"165 1446 OFFCURVE",
"165 1366 CURVE SMOOTH"
);
},
{
closed = 1;
nodes = (
"393 193 LINE",
"393 699 LINE",
"723 699 LINE SMOOTH",
"818.333 699 OFFCURVE",
"891.667 675.167 OFFCURVE",
"943 627.5 CURVE SMOOTH",
"994.333 579.833 OFFCURVE",
"1020 522.667 OFFCURVE",
"1020 456 CURVE SMOOTH",
"1020 410 OFFCURVE",
"1008.5 367 OFFCURVE",
"985.5 327 CURVE SMOOTH",
"962.5 287 OFFCURVE",
"928.833 254.5 OFFCURVE",
"884.5 229.5 CURVE SMOOTH",
"840.167 204.5 OFFCURVE",
"786.333 192.333 OFFCURVE",
"723 193 CURVE SMOOTH"
);
}
);
userData = {
assembly = "NPUSHB[ ]	/* 46 values pushed */\0120 2 0 5 4 2 5 103 0 1 1 0 95 0 0 0 103 77 0 4 4 3 95 6 1 3 3 104 3 78 0 0 23 21 16 14 0 13 0 12 33 17 17 7 12 25 \012CALL[ ]	/* CallFunction */";
};
width = 1343;
}
);
note = uni0182;
unicode = 0182;
},
{
glyphname = C;
lastChange = "2024-07-06 19:26:32 +0000";
layers = (
{
layerId = "6C6EE9F0-1505-4036-BE3C-A809537EF5EF";
paths = (
{
closed = 1;
nodes = (
"893.333 -20 OFFCURVE",
"991.5 1.5 OFFCURVE",
"1078.5 44.5 CURVE SMOOTH",
"1165.5 87.5 OFFCURVE",
"1236.833 146.667 OFFCURVE",
"1292.5 222 CURVE SMOOTH",
"1321 260 OFFCURVE",
"1344 302 OFFCURVE",
"1362 346 CURVE SMOOTH",
"1395 428 OFFCURVE",
"1352 483 OFFCURVE",
"1276 483 CURVE SMOOTH",
"1204 483 OFFCURVE",
"1168 448 OFFCURVE",
"1135 382 CURVE SMOOTH",
"1111 335 OFFCURVE",
"1077 296 OFFCURVE",
"1033.5 264.5 CURVE SMOOTH",
"961.833 213.5 OFFCURVE",
"879.333 188 OFFCURVE",
"786 188 CURVE SMOOTH",
"700.667 188 OFFCURVE",
"624.333 209.167 OFFCURVE",
"557 251.5 CURVE SMOOTH",
"489.667 293.833 OFFCURVE",
"436.5 356.333 OFFCURVE",
"397.5 439 CURVE SMOOTH",
"358.5 521.667 OFFCURVE",
"339 623.333 OFFCURVE",
"339 744 CURVE SMOOTH",
"339 864 OFFCURVE",
"358.5 965.5 OFFCURVE",
"397.5 1048.5 CURVE SMOOTH",
"436.5 1131.5 OFFCURVE",
"489.667 1194.5 OFFCURVE",
"557 1237.5 CURVE SMOOTH",
"624.333 1280.5 OFFCURVE",
"700.667 1302 OFFCURVE",
"786 1302 CURVE SMOOTH",
"879.333 1302 OFFCURVE",
"961.833 1276.667 OFFCURVE",
"1033.5 1226 CURVE SMOOTH",
"1077 1195 OFFCURVE",
"1111 1156 OFFCURVE",
"1135 1109 CURVE SMOOTH",
"1168 1043 OFFCURVE",
"1204 1008 OFFCURVE",
"1276 1008 CURVE SMOOTH",
"1284 1008 LINE SMOOTH",
"1354 1008 OFFCURVE",
"1394 1063 OFFCURVE",
"1361 1147 CURVE SMOOTH",
"1342 1195 OFFCURVE",
"1317 1239 OFFCURVE",
"1287 1278.5 CURVE SMOOTH",
"1229.667 1353.5 OFFCURVE",
"1157.667 1410.833 OFFCURVE",
"1071 1450.5 CURVE SMOOTH",
"984.333 1490.167 OFFCURVE",
"888.667 1510 OFFCURVE",
"784 1510 CURVE SMOOTH",
"655.333 1510 OFFCURVE",
"540.5 1479.333 OFFCURVE",
"439.5 1418 CURVE SMOOTH",
"338.5 1356.667 OFFCURVE",
"258.833 1268.833 OFFCURVE",
"200.5 1154.5 CURVE SMOOTH",
"142.167 1040.167 OFFCURVE",
"113 903.333 OFFCURVE",
"113 744 CURVE SMOOTH",
"113 585.333 OFFCURVE",
"142 449 OFFCURVE",
"200 335 CURVE SMOOTH",
"258 221 OFFCURVE",
"337.5 133.333 OFFCURVE",
"438.5 72 CURVE SMOOTH",
"539.5 10.667 OFFCURVE",
"654.667 -20 OFFCURVE",
"784 -20 CURVE SMOOTH"
);
}
);
userData = {
assembly = "NPUSHB[ ]	/* 56 values pushed */\0120 2 3 5 3 2 5 128 0 5 4 3 5 4 126 0 3 3 1 97 0 1 1 109 77 0 4 4 0 97 6 1 0 0 110 0 78 1 0 28 27 25 23 17 15 13 12 9 7 0 31 1 31 7 12 22 \012CALL[ ]	/* CallFunction */";
};
width = 1502;
}
);
leftKerningGroup = C;
note = C;
rightKerningGroup = C;
unicode = 0043;
},
{
glyphname = Chook;
lastChange = "2024-07-06 19:26:32 +0000";
layers = (
{
layerId = "6C6EE9F0-1505-4036-BE3C-A809537EF5EF";
paths = (
{
closed = 1;
nodes = (
"893.333 -20 OFFCURVE",
"991.5 1.5 OFFCURVE",
"1078.5 44.5 CURVE SMOOTH",
"1165.5 87.5 OFFCURVE",
"1236.833 146.667 OFFCURVE",
"1292.5 222 CURVE SMOOTH",
"1321 260 OFFCURVE",
"1344 302 OFFCURVE",
"1362 346 CURVE SMOOTH",
"1395 428 OFFCURVE",
"1352 483 OFFCURVE",
"1276 483 CURVE SMOOTH",
"1204 483 OFFCURVE",
"1168 448 OFFCURVE",
"1135 382 CURVE SMOOTH",
"1111 335 OFFCURVE",
"1077 296 OFFCURVE",
"1033.5 264.5 CURVE SMOOTH",
"961.833 213.5 OFFCURVE",
"879.333 188 OFFCURVE",
"786 188 CURVE SMOOTH",
"700.667 188 OFFCURVE",
"624.333 209.167 OFFCURVE",
"557 251.5 CURVE SMOOTH",
"489.667 293.833 OFFCURVE",
"436.5 356.333 OFFCURVE",
"397.5 439 CURVE SMOOTH",
"358.5 521.667 OFFCURVE",
"339 623.333 OFFCURVE",
"339 744 CURVE SMOOTH",
"339 864 OFFCURVE",
"358.5 965.5 OFFCURVE",
"397.5 1048.5 CURVE SMOOTH",
"436.5 1131.5 OFFCURVE",
"489.667 1194.5 OFFCURVE",
"557 1237.5 CURVE SMOOTH",
"624.333 1280.5 OFFCURVE",
"700.667 1302 OFFCURVE",
"786 1302 CURVE SMOOTH",
"879.333 1302 OFFCURVE",
"961.833 1276.667 OFFCURVE",
"1033.5 1226 CURVE SMOOTH",
"1077 1195 OFFCURVE",
"1111 1156 OFFCURVE",
"1135 1109 CURVE SMOOTH",
"1168 1043 OFFCURVE",
"1204 1008 OFFCURVE",
"1276 1008 CURVE SMOOTH",
"1284 1008 LINE SMOOTH",
"1358 1008 OFFCURVE",
"1398 1052 OFFCURVE",
"1398 1132 CURVE SMOOTH",
"1398 1412 LINE SMOOTH",
"1398 1446 OFFCURVE",
"1410.167 1470.833 OFFCURVE",
"1434.5 1486.5 CURVE SMOOTH",
"1458.833 1502.167 OFFCURVE",
"1497.667 1510 OFFCURVE",
"1551 1510 CURVE SMOOTH",
"1562 1510 OFFCURVE",
"1574 1510 OFFCURVE",
"1586 1509 CURVE SMOOTH",
"1608 1507 OFFCURVE",
"1620 1536 OFFCURVE",
"1620 1591 CURVE SMOOTH",
"1620 1647 OFFCURVE",
"1581 1687 OFFCURVE",
"1504 1688 CURVE SMOOTH",
"1502 1688 OFFCURVE",
"1500 1688 OFFCURVE",
"1498 1688 CURVE SMOOTH",
"1395.333 1688 OFFCURVE",
"1317.333 1664.5 OFFCURVE",
"1264 1617.5 CURVE SMOOTH",
"1210.667 1570.5 OFFCURVE",
"1184 1502 OFFCURVE",
"1184 1412 CURVE SMOOTH",
"1184 1382 LINE",
"1074 1467.333 OFFCURVE",
"940.667 1510 OFFCURVE",
"784 1510 CURVE SMOOTH",
"655.333 1510 OFFCURVE",
"540.5 1479.333 OFFCURVE",
"439.5 1418 CURVE SMOOTH",
"338.5 1356.667 OFFCURVE",
"258.833 1268.833 OFFCURVE",
"200.5 1154.5 CURVE SMOOTH",
"142.167 1040.167 OFFCURVE",
"113 903.333 OFFCURVE",
"113 744 CURVE SMOOTH",
"113 585.333 OFFCURVE",
"142 449 OFFCURVE",
"200 335 CURVE SMOOTH",
"258 221 OFFCURVE",
"337.5 133.333 OFFCURVE",
"438.5 72 CURVE SMOOTH",
"539.5 10.667 OFFCURVE",
"654.667 -20 OFFCURVE",
"784 -20 CURVE SMOOTH"
);
}
);
userData = {
assembly = "NPUSHB[ ]	/* 79 values pushed */\01216 1 3 2 17 10 2 5 1 2 76 0 4 5 7 5 4 7 128 0 7 6 5 7 6 126 0 2 0 3 1 2 3 105 0 5 5 1 97 0 1 1 109 77 0 6 6 0 97 8 1 0 0 110 0 78 1 0 39 38 36 34 28 26 24 23 20 18 15 13 9 7 0 42 1 42 9 12 22 \012CALL[ ]	/* CallFunction */";
};
width = 1502;
}
);
leftKerningGroup = C;
note = uni0187;
rightKerningGroup = C;
unicode = 0187;
},
{
glyphname = Cstroke;
lastChange = "2024-07-06 19:26:32 +0000";
layers = (
{
layerId = "6C6EE9F0-1505-4036-BE3C-A809537EF5EF";
paths = (
{
closed = 1;
nodes = (
"496 -190 OFFCURVE",
"534 -159 OFFCURVE",
"558 -90 CURVE SMOOTH",
"591 6 LINE",
"652.333 -11.333 OFFCURVE",
"716.667 -20 OFFCURVE",
"784 -20 CURVE SMOOTH",
"893.333 -20 OFFCURVE",
"991.5 1.5 OFFCURVE",
"1078.5 44.5 CURVE SMOOTH",
"1165.5 87.5 OFFCURVE",
"1236.833 146.667 OFFCURVE",
"1292.5 222 CURVE SMOOTH",
"1321 260 OFFCURVE",
"1344 302 OFFCURVE",
"1362 346 CURVE SMOOTH",
"1395 428 OFFCURVE",
"1352 483 OFFCURVE",
"1276 483 CURVE SMOOTH",
"1204 483 OFFCURVE",
"1168 448 OFFCURVE",
"1135 382 CURVE SMOOTH",
"1111 335 OFFCURVE",
"1077 296 OFFCURVE",
"1033.5 264.5 CURVE SMOOTH",
"961.833 213.5 OFFCURVE",
"879.333 188 OFFCURVE",
"786 188 CURVE SMOOTH",
"741.333 188 OFFCURVE",
"699 193.667 OFFCURVE",
"659 205 CURVE",
"1016 1238 LINE",
"1054 1213.333 OFFCURVE",
"1086.5 1181.667 OFFCURVE",
"1113.5 1143 CURVE SMOOTH",
"1127 1123 OFFCURVE",
"1139 1102 OFFCURVE",
"1148 1079 CURVE SMOOTH",
"1167 1031 OFFCURVE",
"1204 1008 OFFCURVE",
"1276 1008 CURVE SMOOTH",
"1284 1008 LINE SMOOTH",
"1354 1008 OFFCURVE",
"1394 1063 OFFCURVE",
"1361 1147 CURVE SMOOTH",
"1343 1192 OFFCURVE",
"1320 1234 OFFCURVE",
"1291.5 1272 CURVE SMOOTH",
"1236.5 1346 OFFCURVE",
"1168.333 1403 OFFCURVE",
"1087 1443 CURVE",
"1128 1561 LINE SMOOTH",
"1153 1632 OFFCURVE",
"1134 1678 OFFCURVE",
"1081 1678 CURVE SMOOTH",
"1022 1678 OFFCURVE",
"983 1647 OFFCURVE",
"959 1578 CURVE SMOOTH",
"931 1496 LINE",
"883.667 1505.333 OFFCURVE",
"834.667 1510 OFFCURVE",
"784 1510 CURVE SMOOTH",
"655.333 1510 OFFCURVE",
"540.5 1479.333 OFFCURVE",
"439.5 1418 CURVE SMOOTH",
"338.5 1356.667 OFFCURVE",
"258.833 1268.833 OFFCURVE",
"200.5 1154.5 CURVE SMOOTH",
"142.167 1040.167 OFFCURVE",
"113 903.333 OFFCURVE",
"113 744 CURVE SMOOTH",
"113 584.667 OFFCURVE",
"142.5 447.667 OFFCURVE",
"201.5 333 CURVE SMOOTH",
"260.5 218.333 OFFCURVE",
"340 131 OFFCURVE",
"440 71 CURVE",
"395 -60 LINE SMOOTH",
"368 -139 OFFCURVE",
"385 -190 OFFCURVE",
"437 -190 CURVE SMOOTH"
);
},
{
closed = 1;
nodes = (
"459.667 329.333 OFFCURVE",
"417.333 390.667 OFFCURVE",
"386 468 CURVE SMOOTH",
"354.667 545.333 OFFCURVE",
"339 637.333 OFFCURVE",
"339 744 CURVE SMOOTH",
"339 864 OFFCURVE",
"358.5 965.5 OFFCURVE",
"397.5 1048.5 CURVE SMOOTH",
"436.5 1131.5 OFFCURVE",
"489.667 1194.5 OFFCURVE",
"557 1237.5 CURVE SMOOTH",
"624.333 1280.5 OFFCURVE",
"700.667 1302 OFFCURVE",
"786 1302 CURVE SMOOTH",
"812 1302 OFFCURVE",
"837.667 1300 OFFCURVE",
"863 1296 CURVE",
"513 284 LINE"
);
}
);
userData = {
assembly = "NPUSHB[ ]	/* 84 values pushed */\01213 10 2 7 0 20 1 2 7 21 1 3 4 33 1 2 5 3 4 76 0 1 0 1 133 0 2 7 4 7 2 4 128 0 4 3 7 4 3 126 8 1 6 5 6 134 0 7 7 0 97 0 0 0 109 77 0 3 3 5 97 0 5 5 110 5 78 0 0 39 37 0 34 0 34 35 18 37 20 18 39 9 12 28 \012CALL[ ]	/* CallFunction */";
};
width = 1502;
}
);
leftKerningGroup = C;
note = uni023B;
rightKerningGroup = C;
unicode = 023B;
},
{
glyphname = D;
lastChange = "2024-07-06 19:26:32 +0000";
layers = (
{
layerId = "6C6EE9F0-1505-4036-BE3C-A809537EF5EF";
paths = (
{
closed = 1;
nodes = (
"800.667 0 OFFCURVE",
"929.5 30 OFFCURVE",
"1036.5 90 CURVE SMOOTH",
"1143.5 150 OFFCURVE",
"1225.167 235.667 OFFCURVE",
"1281.5 347 CURVE SMOOTH",
"1337.833 458.333 OFFCURVE",
"1366 591.667 OFFCURVE",
"1366 747 CURVE SMOOTH",
"1366 901.667 OFFCURVE",
"1338 1034.333 OFFCURVE",
"1282 1145 CURVE SMOOTH",
"1226 1255.667 OFFCURVE",
"1145.667 1340.833 OFFCURVE",
"1041 1400.5 CURVE SMOOTH",
"936.333 1460.167 OFFCURVE",
"810.667 1490 OFFCURVE",
"664 1490 CURVE SMOOTH",
"289 1490 LINE SMOOTH",
"209 1490 OFFCURVE",
"165 1446 OFFCURVE",
"165 1366 CURVE SMOOTH",
"165 124 LINE SMOOTH",
"165 44 OFFCURVE",
"209 0 OFFCURVE",
"289 0 CURVE SMOOTH",
"650 0 LINE SMOOTH"
);
},
{
closed = 1;
nodes = (
"393 200 LINE",
"393 1290 LINE",
"649 1290 LINE SMOOTH",
"811.667 1290 OFFCURVE",
"934.5 1243.333 OFFCURVE",
"1017.5 1150 CURVE SMOOTH",
"1100.5 1056.667 OFFCURVE",
"1142 922.333 OFFCURVE",
"1142 747 CURVE SMOOTH",
"1142 571 OFFCURVE",
"1100 435.833 OFFCURVE",
"1016 341.5 CURVE SMOOTH",
"932 247.167 OFFCURVE",
"805.667 200 OFFCURVE",
"637 200 CURVE SMOOTH"
);
}
);
userData = {
assembly = "NPUSHB[ ]	/* 37 values pushed */\0120 3 3 1 95 0 1 1 103 77 0 2 2 0 95 4 1 0 0 104 0 78 1 0 19 17 13 11 4 2 0 10 1 10 5 12 22 \012CALL[ ]	/* CallFunction */";
};
width = 1478;
}
);
leftKerningGroup = B;
note = D;
rightKerningGroup = Oopen;
unicode = 0044;
},
{
glyphname = Dhook;
lastChange = "2024-07-06 19:26:32 +0000";
layers = (
{
layerId = "6C6EE9F0-1505-4036-BE3C-A809537EF5EF";
paths = (
{
closed = 1;
nodes = (
"57 1124 OFFCURVE",
"94 1098 OFFCURVE",
"162 1098 CURVE SMOOTH",
"230 1098 OFFCURVE",
"266 1121 OFFCURVE",
"266 1162 CURVE SMOOTH",
"266 1250 OFFCURVE",
"310.333 1294 OFFCURVE",
"399 1294 CURVE SMOOTH",
"481 1294 LINE",
"481 124 LINE SMOOTH",
"481 44 OFFCURVE",
"525 0 OFFCURVE",
"605 0 CURVE SMOOTH",
"966 0 LINE SMOOTH",
"1116.667 0 OFFCURVE",
"1245.5 30 OFFCURVE",
"1352.5 90 CURVE SMOOTH",
"1459.5 150 OFFCURVE",
"1541.167 235.667 OFFCURVE",
"1597.5 347 CURVE SMOOTH",
"1653.833 458.333 OFFCURVE",
"1682 591.667 OFFCURVE",
"1682 747 CURVE SMOOTH",
"1682 901.667 OFFCURVE",
"1654 1034.333 OFFCURVE",
"1598 1145 CURVE SMOOTH",
"1542 1255.667 OFFCURVE",
"1461.667 1340.833 OFFCURVE",
"1357 1400.5 CURVE SMOOTH",
"1252.333 1460.167 OFFCURVE",
"1126.667 1490 OFFCURVE",
"980 1490 CURVE SMOOTH",
"401 1490 LINE SMOOTH",
"171.667 1490 OFFCURVE",
"57 1383.667 OFFCURVE",
"57 1171 CURVE SMOOTH"
);
},
{
closed = 1;
nodes = (
"709 200 LINE",
"709 1290 LINE",
"965 1290 LINE SMOOTH",
"1127.667 1290 OFFCURVE",
"1250.5 1243.333 OFFCURVE",
"1333.5 1150 CURVE SMOOTH",
"1416.5 1056.667 OFFCURVE",
"1458 922.333 OFFCURVE",
"1458 747 CURVE SMOOTH",
"1458 571 OFFCURVE",
"1416 435.833 OFFCURVE",
"1332 341.5 CURVE SMOOTH",
"1248 247.167 OFFCURVE",
"1121.667 200 OFFCURVE",
"953 200 CURVE SMOOTH"
);
}
);
userData = {
assembly = "MPPEM[ ]	/* MeasurePixelPerEm */\012PUSHB[ ]	/* 1 value pushed */\01213 \012LT[ ]	/* LessThan */\012IF[ ]	/* If */\012NPUSHB[ ]	/* 30 values pushed */\0126 1 3 2 4 2 3 114 5 1 2 2 0 95 0 0 0 103 77 0 4 4 1 95 0 1 1 104 1 78 \012ELSE[ ]	/* Else */\012NPUSHB[ ]	/* 31 values pushed */\0126 1 3 2 4 2 3 4 128 5 1 2 2 0 95 0 0 0 103 77 0 4 4 1 95 0 1 1 104 1 78 \012EIF[ ]	/* EndIf */\012NPUSHB[ ]	/* 16 values pushed */\0120 0 27 25 21 19 0 18 0 18 33 38 50 7 12 25 \012CALL[ ]	/* CallFunction */";
};
width = 1794;
}
);
leftKerningGroup = B;
note = uni018A;
rightKerningGroup = Oopen;
unicode = 018A;
},
{
glyphname = Dtopbar;
lastChange = "2024-07-06 19:26:32 +0000";
layers = (
{
layerId = "6C6EE9F0-1505-4036-BE3C-A809537EF5EF";
paths = (
{
closed = 1;
nodes = (
"1077 0 LINE SMOOTH",
"1157 0 OFFCURVE",
"1201 44 OFFCURVE",
"1201 124 CURVE SMOOTH",
"1201 1344 LINE SMOOTH",
"1201 1424 OFFCURVE",
"1157 1468 OFFCURVE",
"1077 1468 CURVE SMOOTH",
"396 1468 LINE SMOOTH",
"316 1468 OFFCURVE",
"272 1432 OFFCURVE",
"272 1367 CURVE SMOOTH",
"272 1301 OFFCURVE",
"316 1265 OFFCURVE",
"396 1265 CURVE SMOOTH",
"955 1265 LINE",
"955 896 LINE",
"645 896 LINE SMOOTH",
"479 896 OFFCURVE",
"350.167 855.333 OFFCURVE",
"258.5 774 CURVE SMOOTH",
"166.833 692.667 OFFCURVE",
"121 585.667 OFFCURVE",
"121 453 CURVE SMOOTH",
"121 363.667 OFFCURVE",
"141.667 285 OFFCURVE",
"183 217 CURVE SMOOTH",
"224.333 149 OFFCURVE",
"284.167 95.833 OFFCURVE",
"362.5 57.5 CURVE SMOOTH",
"440.833 19.167 OFFCURVE",
"535 0 OFFCURVE",
"645 0 CURVE SMOOTH"
);
},
{
closed = 1;
nodes = (
"955 198 LINE",
"645 198 LINE SMOOTH",
"548.333 198 OFFCURVE",
"478 223.833 OFFCURVE",
"434 275.5 CURVE SMOOTH",
"390 327.167 OFFCURVE",
"368 387.333 OFFCURVE",
"368 456 CURVE SMOOTH",
"368 522.667 OFFCURVE",
"390 579.5 OFFCURVE",
"434 626.5 CURVE SMOOTH",
"478 673.5 OFFCURVE",
"548.333 697 OFFCURVE",
"645 697 CURVE SMOOTH",
"955 697 LINE"
);
}
);
userData = {
assembly = "MPPEM[ ]	/* MeasurePixelPerEm */\012PUSHB[ ]	/* 1 value pushed */\01246 \012LT[ ]	/* LessThan */\012IF[ ]	/* If */\012NPUSHB[ ]	/* 30 values pushed */\0120 1 0 4 5 1 4 103 0 2 2 3 95 0 3 3 103 77 6 1 5 5 0 95 0 0 0 104 0 78 \012ELSE[ ]	/* Else */\012NPUSHB[ ]	/* 28 values pushed */\0120 3 0 2 1 3 2 103 0 1 0 4 5 1 4 103 6 1 5 5 0 95 0 0 0 104 0 78 \012EIF[ ]	/* EndIf */\012NPUSHB[ ]	/* 14 values pushed */\01214 14 14 22 14 21 34 17 17 37 32 7 12 27 \012CALL[ ]	/* CallFunction */";
};
width = 1321;
}
);
note = uni018B;
unicode = 018B;
},
{
glyphname = E;
lastChange = "2024-07-06 19:26:32 +0000";
layers = (
{
layerId = "6C6EE9F0-1505-4036-BE3C-A809537EF5EF";
paths = (
{
closed = 1;
nodes = (
"165 124 LINE SMOOTH",
"165 44 OFFCURVE",
"209 0 OFFCURVE",
"289 0 CURVE SMOOTH",
"985 0 LINE SMOOTH",
"1065 0 OFFCURVE",
"1109 35 OFFCURVE",
"1109 98 CURVE SMOOTH",
"1109 161 OFFCURVE",
"1065 196 OFFCURVE",
"985 196 CURVE SMOOTH",
"393 196 LINE",
"393 655 LINE",
"929 655 LINE SMOOTH",
"1009 655 OFFCURVE",
"1053 690 OFFCURVE",
"1053 753 CURVE SMOOTH",
"1053 816 OFFCURVE",
"1009 850 OFFCURVE",
"929 850 CURVE SMOOTH",
"393 850 LINE",
"393 1294 LINE",
"979 1294 LINE SMOOTH",
"1059 1294 OFFCURVE",
"1103 1329 OFFCURVE",
"1103 1392 CURVE SMOOTH",
"1103 1455 OFFCURVE",
"1059 1490 OFFCURVE",
"979 1490 CURVE SMOOTH",
"289 1490 LINE SMOOTH",
"209 1490 OFFCURVE",
"165 1446 OFFCURVE",
"165 1366 CURVE SMOOTH"
);
}
);
userData = {
assembly = "NPUSHB[ ]	/* 44 values pushed */\0120 2 0 3 4 2 3 103 0 1 1 0 95 0 0 0 103 77 0 4 4 5 95 6 1 5 5 104 5 78 0 0 0 11 0 11 17 17 17 17 17 7 12 27 \012CALL[ ]	/* CallFunction */";
};
width = 1235;
}
);
leftKerningGroup = B;
note = E;
rightKerningGroup = AE;
unicode = 0045;
},
{
glyphname = Eopen;
lastChange = "2024-07-06 19:26:32 +0000";
layers = (
{
layerId = "6C6EE9F0-1505-4036-BE3C-A809537EF5EF";
paths = (
{
closed = 1;
nodes = (
"741.667 -20 OFFCURVE",
"831.167 -2.667 OFFCURVE",
"909.5 32 CURVE SMOOTH",
"987.833 66.667 OFFCURVE",
"1049.833 114.667 OFFCURVE",
"1095.5 176 CURVE SMOOTH",
"1119 207 OFFCURVE",
"1136 241 OFFCURVE",
"1148 277 CURVE SMOOTH",
"1171 346 OFFCURVE",
"1121 390 OFFCURVE",
"1043 390 CURVE SMOOTH",
"971 390 OFFCURVE",
"944 353 OFFCURVE",
"904 291 CURVE SMOOTH",
"890 269 OFFCURVE",
"870 250 OFFCURVE",
"846.5 233.5 CURVE SMOOTH",
"790.833 195.167 OFFCURVE",
"723 176 OFFCURVE",
"643 176 CURVE SMOOTH",
"555.667 176 OFFCURVE",
"484 198.167 OFFCURVE",
"428 242.5 CURVE SMOOTH",
"372 286.833 OFFCURVE",
"344 345 OFFCURVE",
"344 417 CURVE SMOOTH",
"344 491 OFFCURVE",
"372.333 551.5 OFFCURVE",
"429 598.5 CURVE SMOOTH",
"485.667 645.5 OFFCURVE",
"565 669 OFFCURVE",
"667 669 CURVE SMOOTH",
"670 669 LINE SMOOTH",
"750 669 OFFCURVE",
"794 702 OFFCURVE",
"794 762 CURVE SMOOTH",
"794 822 OFFCURVE",
"750 855 OFFCURVE",
"670 855 CURVE SMOOTH",
"667 855 LINE SMOOTH",
"585 855 OFFCURVE",
"518.167 876.5 OFFCURVE",
"466.5 919.5 CURVE SMOOTH",
"414.833 962.5 OFFCURVE",
"389 1019.667 OFFCURVE",
"389 1091 CURVE SMOOTH",
"389 1159.667 OFFCURVE",
"411.667 1214.833 OFFCURVE",
"457 1256.5 CURVE SMOOTH",
"502.333 1298.167 OFFCURVE",
"562.667 1319 OFFCURVE",
"638 1319 CURVE SMOOTH",
"710.667 1319 OFFCURVE",
"774.667 1299.833 OFFCURVE",
"830 1261.5 CURVE SMOOTH",
"858 1242 OFFCURVE",
"879 1219 OFFCURVE",
"893 1193 CURVE SMOOTH",
"924 1134 OFFCURVE",
"952 1102 OFFCURVE",
"1024 1102 CURVE SMOOTH",
"1027 1102 LINE SMOOTH",
"1095 1102 OFFCURVE",
"1142 1154 OFFCURVE",
"1110 1236 CURVE SMOOTH",
"1098 1264 OFFCURVE",
"1084 1290 OFFCURVE",
"1065.5 1315 CURVE SMOOTH",
"1020.5 1376.333 OFFCURVE",
"960.5 1424.167 OFFCURVE",
"885.5 1458.5 CURVE SMOOTH",
"810.5 1492.833 OFFCURVE",
"727 1510 OFFCURVE",
"635 1510 CURVE SMOOTH",
"539 1510 OFFCURVE",
"456 1491.333 OFFCURVE",
"386 1454 CURVE SMOOTH",
"316 1416.667 OFFCURVE",
"262 1367.167 OFFCURVE",
"224 1305.5 CURVE SMOOTH",
"186 1243.833 OFFCURVE",
"167 1176.667 OFFCURVE",
"167 1104 CURVE SMOOTH",
"167 1020 OFFCURVE",
"190.333 949.167 OFFCURVE",
"237 891.5 CURVE SMOOTH",
"283.667 833.833 OFFCURVE",
"346 794.667 OFFCURVE",
"424 774 CURVE",
"424 763 LINE",
"324.667 747.667 OFFCURVE",
"248 708.167 OFFCURVE",
"194 644.5 CURVE SMOOTH",
"140 580.833 OFFCURVE",
"113 502.333 OFFCURVE",
"113 409 CURVE SMOOTH",
"113 326.333 OFFCURVE",
"135.833 252.667 OFFCURVE",
"181.5 188 CURVE SMOOTH",
"227.167 123.333 OFFCURVE",
"289.667 72.5 OFFCURVE",
"369 35.5 CURVE SMOOTH",
"448.333 -1.5 OFFCURVE",
"539 -20 OFFCURVE",
"641 -20 CURVE SMOOTH"
);
}
);
userData = {
assembly = "NPUSHB[ ]	/* 75 values pushed */\0127 1 5 4 1 76 0 2 3 4 3 2 4 128 0 7 5 6 5 7 6 128 0 4 0 5 7 4 5 105 0 3 3 1 97 0 1 1 109 77 0 6 6 0 97 8 1 0 0 110 0 78 1 0 42 41 39 37 33 31 30 28 24 22 20 19 16 14 0 45 1 45 9 12 22 \012CALL[ ]	/* CallFunction */";
};
width = 1284;
}
);
note = Epsilon1;
unicode = 0190;
},
{
glyphname = Ereversed;
lastChange = "2024-07-06 19:26:32 +0000";
layers = (
{
layerId = "6C6EE9F0-1505-4036-BE3C-A809537EF5EF";
paths = (
{
closed = 1;
nodes = (
"1070 1366 LINE SMOOTH",
"1070 1446 OFFCURVE",
"1026 1490 OFFCURVE",
"946 1490 CURVE SMOOTH",
"250 1490 LINE SMOOTH",
"170 1490 OFFCURVE",
"126 1455 OFFCURVE",
"126 1392 CURVE SMOOTH",
"126 1329 OFFCURVE",
"170 1294 OFFCURVE",
"250 1294 CURVE SMOOTH",
"842 1294 LINE",
"842 835 LINE",
"307 835 LINE SMOOTH",
"227 835 OFFCURVE",
"183 801 OFFCURVE",
"183 738 CURVE SMOOTH",
"183 675 OFFCURVE",
"227 640 OFFCURVE",
"307 640 CURVE SMOOTH",
"842 640 LINE",
"842 196 LINE",
"257 196 LINE SMOOTH",
"177 196 OFFCURVE",
"133 161 OFFCURVE",
"133 98 CURVE SMOOTH",
"133 35 OFFCURVE",
"177 0 OFFCURVE",
"257 0 CURVE SMOOTH",
"946 0 LINE SMOOTH",
"1026 0 OFFCURVE",
"1070 44 OFFCURVE",
"1070 124 CURVE SMOOTH"
);
}
);
userData = {
assembly = "NPUSHB[ ]	/* 44 values pushed */\0120 3 0 2 1 3 2 103 0 4 4 5 95 6 1 5 5 103 77 0 1 1 0 95 0 0 0 104 0 78 0 0 0 11 0 11 17 17 17 17 17 7 12 27 \012CALL[ ]	/* CallFunction */";
};
width = 1235;
}
);
note = Eturn;
rightKerningGroup = Ereversed;
unicode = 018E;
},
{
glyphname = Estroke;
lastChange = "2024-07-06 19:26:32 +0000";
layers = (
{
layerId = "6C6EE9F0-1505-4036-BE3C-A809537EF5EF";
paths = (
{
closed = 1;
nodes = (
"461 -190 OFFCURVE",
"498 -157 OFFCURVE",
"518 -86 CURVE SMOOTH",
"543 0 LINE",
"985 0 LINE SMOOTH",
"1065 0 OFFCURVE",
"1109 35 OFFCURVE",
"1109 98 CURVE SMOOTH",
"1109 161 OFFCURVE",
"1065 196 OFFCURVE",
"985 196 CURVE SMOOTH",
"599 196 LINE",
"731 655 LINE",
"929 655 LINE SMOOTH",
"1009 655 OFFCURVE",
"1053 690 OFFCURVE",
"1053 753 CURVE SMOOTH",
"1053 816 OFFCURVE",
"1009 850 OFFCURVE",
"929 850 CURVE SMOOTH",
"787 850 LINE",
"915 1294 LINE",
"1009 1294 LINE SMOOTH",
"1070 1294 OFFCURVE",
"1103 1329 OFFCURVE",
"1103 1392 CURVE SMOOTH",
"1103 1455 OFFCURVE",
"1059 1490 OFFCURVE",
"979 1490 CURVE SMOOTH",
"972 1490 LINE",
"999 1584 LINE SMOOTH",
"1016 1642 OFFCURVE",
"994 1678 OFFCURVE",
"944 1678 CURVE SMOOTH",
"889 1678 OFFCURVE",
"852 1643 OFFCURVE",
"832 1573 CURVE SMOOTH",
"808 1490 LINE",
"289 1490 LINE SMOOTH",
"209 1490 OFFCURVE",
"165 1446 OFFCURVE",
"165 1366 CURVE SMOOTH",
"165 124 LINE SMOOTH",
"165 44 OFFCURVE",
"209 0 OFFCURVE",
"289 0 CURVE SMOOTH",
"377 0 LINE",
"350 -95 LINE SMOOTH",
"333 -153 OFFCURVE",
"354 -190 OFFCURVE",
"405 -190 CURVE SMOOTH"
);
},
{
closed = 1;
nodes = (
"393 850 LINE",
"393 1294 LINE",
"751 1294 LINE",
"623 850 LINE"
);
},
{
closed = 1;
nodes = (
"393 196 LINE",
"393 655 LINE",
"566 655 LINE",
"434 196 LINE"
);
}
);
userData = {
assembly = "MPPEM[ ]	/* MeasurePixelPerEm */\012PUSHB[ ]	/* 1 value pushed */\01213 \012LT[ ]	/* LessThan */\012IF[ ]	/* If */\012NPUSHB[ ]	/* 49 values pushed */\0120 2 1 1 2 112 15 11 2 5 12 1 6 7 5 6 103 14 1 9 7 9 83 10 1 4 4 1 95 3 1 1 1 103 77 16 13 2 7 7 0 95 8 1 0 0 104 0 78 \012ELSE[ ]	/* Else */\012NPUSHB[ ]	/* 48 values pushed */\0120 2 1 2 133 15 11 2 5 12 1 6 7 5 6 103 14 1 9 7 9 83 10 1 4 4 1 95 3 1 1 1 103 77 16 13 2 7 7 0 95 8 1 0 0 104 0 78 \012EIF[ ]	/* EndIf */\012NPUSHB[ ]	/* 34 values pushed */\01224 24 20 20 0 0 24 27 24 27 26 25 20 23 20 23 22 21 0 19 0 19 17 17 17 17 17 17 17 17 17 17 12 31 \012CALL[ ]	/* CallFunction */";
};
width = 1235;
}
);
leftKerningGroup = B;
note = uni0246;
rightKerningGroup = AE;
unicode = 0246;
},
{
glyphname = Ezh;
lastChange = "2024-07-06 19:26:32 +0000";
layers = (
{
layerId = "6C6EE9F0-1505-4036-BE3C-A809537EF5EF";
paths = (
{
closed = 1;
nodes = (
"128 -103 OFFCURVE",
"150 -149 OFFCURVE",
"178.5 -191 CURVE SMOOTH",
"232.167 -269 OFFCURVE",
"303.5 -330 OFFCURVE",
"392.5 -374 CURVE SMOOTH",
"481.5 -418 OFFCURVE",
"581.333 -440 OFFCURVE",
"692 -440 CURVE SMOOTH",
"812.667 -440 OFFCURVE",
"918.667 -413 OFFCURVE",
"1010 -359 CURVE SMOOTH",
"1101.333 -305 OFFCURVE",
"1172.5 -230.667 OFFCURVE",
"1223.5 -136 CURVE SMOOTH",
"1274.5 -41.333 OFFCURVE",
"1300 67 OFFCURVE",
"1300 189 CURVE SMOOTH",
"1300 303 OFFCURVE",
"1276.833 404.333 OFFCURVE",
"1230.5 493 CURVE SMOOTH",
"1184.167 581.667 OFFCURVE",
"1119.667 652.5 OFFCURVE",
"1037 705.5 CURVE SMOOTH",
"954.333 758.5 OFFCURVE",
"859 788 OFFCURVE",
"751 794 CURVE",
"751 808 LINE",
"1199 1259 LINE SMOOTH",
"1244 1304 OFFCURVE",
"1262 1348 OFFCURVE",
"1262 1407 CURVE SMOOTH",
"1262 1461 OFFCURVE",
"1218 1490 OFFCURVE",
"1138 1490 CURVE SMOOTH",
"299 1490 LINE SMOOTH",
"219 1490 OFFCURVE",
"175 1455 OFFCURVE",
"175 1390 CURVE SMOOTH",
"175 1325 OFFCURVE",
"219 1290 OFFCURVE",
"299 1290 CURVE SMOOTH",
"961 1290 LINE",
"961 1278 LINE",
"555 871 LINE SMOOTH",
"510 826 OFFCURVE",
"492 782 OFFCURVE",
"492 720 CURVE SMOOTH",
"492 663 OFFCURVE",
"536 631 OFFCURVE",
"616 631 CURVE SMOOTH",
"622 631 LINE SMOOTH",
"709.333 631 OFFCURVE",
"786.5 612.833 OFFCURVE",
"853.5 576.5 CURVE SMOOTH",
"920.5 540.167 OFFCURVE",
"973.167 488.667 OFFCURVE",
"1011.5 422 CURVE SMOOTH",
"1049.833 355.333 OFFCURVE",
"1069 276.667 OFFCURVE",
"1069 186 CURVE SMOOTH",
"1069 105.333 OFFCURVE",
"1053.833 32.667 OFFCURVE",
"1023.5 -32 CURVE SMOOTH",
"993.167 -96.667 OFFCURVE",
"949.833 -147.667 OFFCURVE",
"893.5 -185 CURVE SMOOTH",
"837.167 -222.333 OFFCURVE",
"770.333 -241 OFFCURVE",
"693 -241 CURVE SMOOTH",
"628.333 -241 OFFCURVE",
"568.667 -227.5 OFFCURVE",
"514 -200.5 CURVE SMOOTH",
"459.333 -173.5 OFFCURVE",
"414.833 -136 OFFCURVE",
"380.5 -88 CURVE SMOOTH",
"363 -64 OFFCURVE",
"349 -37 OFFCURVE",
"340 -9 CURVE SMOOTH",
"321 49 OFFCURVE",
"286 79 OFFCURVE",
"212 79 CURVE SMOOTH",
"207 79 LINE SMOOTH",
"134 79 OFFCURVE",
"88 28 OFFCURVE",
"113 -54 CURVE SMOOTH"
);
}
);
userData = {
assembly = "NPUSHB[ ]	/* 56 values pushed */\01221 1 3 4 22 15 2 2 3 2 76 0 2 3 0 3 2 0 128 0 0 1 3 0 1 126 0 3 3 4 95 0 4 4 103 77 0 1 1 5 97 0 5 5 114 5 78 42 17 34 38 35 16 6 12 28 \012CALL[ ]	/* CallFunction */";
};
width = 1404;
}
);
note = uni01B7;
rightKerningGroup = B;
unicode = 01B7;
},
{
glyphname = Ezhreversed;
lastChange = "2024-07-06 19:26:32 +0000";
layers = (
{
layerId = "6C6EE9F0-1505-4036-BE3C-A809537EF5EF";
paths = (
{
closed = 1;
nodes = (
"1192 79 LINE SMOOTH",
"1118 79 OFFCURVE",
"1085 41 OFFCURVE",
"1057 -29 CURVE SMOOTH",
"1048 -50 OFFCURVE",
"1037 -69 OFFCURVE",
"1024 -88 CURVE SMOOTH",
"990 -136 OFFCURVE",
"945.667 -173.5 OFFCURVE",
"891 -200.5 CURVE SMOOTH",
"836.333 -227.5 OFFCURVE",
"776 -241 OFFCURVE",
"710 -241 CURVE SMOOTH",
"633.333 -241 OFFCURVE",
"567 -222.333 OFFCURVE",
"511 -185 CURVE SMOOTH",
"455 -147.667 OFFCURVE",
"411.667 -96.667 OFFCURVE",
"381 -32 CURVE SMOOTH",
"350.333 32.667 OFFCURVE",
"335 105.333 OFFCURVE",
"335 186 CURVE SMOOTH",
"335 276.667 OFFCURVE",
"354.167 355.333 OFFCURVE",
"392.5 422 CURVE SMOOTH",
"430.833 488.667 OFFCURVE",
"483.667 540.167 OFFCURVE",
"551 576.5 CURVE SMOOTH",
"618.333 612.833 OFFCURVE",
"695.667 631 OFFCURVE",
"783 631 CURVE SMOOTH",
"787 631 LINE SMOOTH",
"867 631 OFFCURVE",
"911 663 OFFCURVE",
"911 720 CURVE SMOOTH",
"911 783 OFFCURVE",
"893 826 OFFCURVE",
"848 871 CURVE SMOOTH",
"443 1278 LINE",
"443 1290 LINE",
"1106 1290 LINE SMOOTH",
"1186 1290 OFFCURVE",
"1230 1325 OFFCURVE",
"1230 1390 CURVE SMOOTH",
"1230 1455 OFFCURVE",
"1186 1490 OFFCURVE",
"1106 1490 CURVE SMOOTH",
"266 1490 LINE SMOOTH",
"186 1490 OFFCURVE",
"142 1461 OFFCURVE",
"142 1407 CURVE SMOOTH",
"142 1348 OFFCURVE",
"160 1304 OFFCURVE",
"205 1259 CURVE SMOOTH",
"653 808 LINE",
"653 794 LINE",
"545 788 OFFCURVE",
"449.833 758.667 OFFCURVE",
"367.5 706 CURVE SMOOTH",
"285.167 653.333 OFFCURVE",
"220.667 582.667 OFFCURVE",
"174 494 CURVE SMOOTH",
"127.333 405.333 OFFCURVE",
"104 303.667 OFFCURVE",
"104 189 CURVE SMOOTH",
"104 67 OFFCURVE",
"129.5 -41.333 OFFCURVE",
"180.5 -136 CURVE SMOOTH",
"231.5 -230.667 OFFCURVE",
"302.667 -305 OFFCURVE",
"394 -359 CURVE SMOOTH",
"485.333 -413 OFFCURVE",
"591.333 -440 OFFCURVE",
"712 -440 CURVE SMOOTH",
"822 -440 OFFCURVE",
"921.5 -418 OFFCURVE",
"1010.5 -374 CURVE SMOOTH",
"1099.5 -330 OFFCURVE",
"1171 -269 OFFCURVE",
"1225 -191 CURVE SMOOTH",
"1254 -149 OFFCURVE",
"1276 -103 OFFCURVE",
"1291 -54 CURVE SMOOTH",
"1316 28 OFFCURVE",
"1271 79 OFFCURVE",
"1198 79 CURVE SMOOTH"
);
}
);
userData = {
assembly = "NPUSHB[ ]	/* 69 values pushed */\01214 1 3 2 20 1 1 3 2 76 0 1 3 4 3 1 4 128 0 4 6 3 4 6 126 7 1 6 5 3 6 5 126 0 3 3 2 95 0 2 2 103 77 0 5 5 0 98 0 0 0 114 0 78 0 0 0 34 0 34 38 35 17 19 22 35 8 12 28 \012CALL[ ]	/* CallFunction */";
};
width = 1404;
}
);
note = uni01B8;
unicode = 01B8;
},
{
glyphname = F;
lastChange = "2024-07-06 19:26:32 +0000";
layers = (
{
layerId = "6C6EE9F0-1505-4036-BE3C-A809537EF5EF";
paths = (
{
closed = 1;
nodes = (
"165 124 LINE SMOOTH",
"165 44 OFFCURVE",
"205 0 OFFCURVE",
"279 0 CURVE SMOOTH",
"353 0 OFFCURVE",
"393 44 OFFCURVE",
"393 124 CURVE SMOOTH",
"393 620 LINE",
"901 620 LINE SMOOTH",
"981 620 OFFCURVE",
"1025 655 OFFCURVE",
"1025 718 CURVE SMOOTH",
"1025 781 OFFCURVE",
"981 815 OFFCURVE",
"901 815 CURVE SMOOTH",
"393 815 LINE",
"393 1294 LINE",
"968 1294 LINE SMOOTH",
"1048 1294 OFFCURVE",
"1092 1329 OFFCURVE",
"1092 1392 CURVE SMOOTH",
"1092 1455 OFFCURVE",
"1048 1490 OFFCURVE",
"968 1490 CURVE SMOOTH",
"289 1490 LINE SMOOTH",
"209 1490 OFFCURVE",
"165 1446 OFFCURVE",
"165 1366 CURVE SMOOTH"
);
}
);
userData = {
assembly = "NPUSHB[ ]	/* 38 values pushed */\0120 2 0 3 4 2 3 103 0 1 1 0 95 0 0 0 103 77 5 1 4 4 104 4 78 0 0 0 9 0 9 17 17 17 17 6 12 26 \012CALL[ ]	/* CallFunction */";
};
width = 1207;
}
);
leftKerningGroup = B;
note = F;
rightKerningGroup = F;
unicode = 0046;
},
{
glyphname = Fhook;
lastChange = "2024-07-06 19:26:32 +0000";
layers = (
{
layerId = "6C6EE9F0-1505-4036-BE3C-A809537EF5EF";
paths = (
{
closed = 1;
nodes = (
"36 -429 OFFCURVE",
"56 -430 OFFCURVE",
"78 -430 CURVE SMOOTH",
"288 -430 OFFCURVE",
"393 -337.667 OFFCURVE",
"393 -153 CURVE SMOOTH",
"393 620 LINE",
"901 620 LINE SMOOTH",
"981 620 OFFCURVE",
"1025 655 OFFCURVE",
"1025 718 CURVE SMOOTH",
"1025 781 OFFCURVE",
"981 815 OFFCURVE",
"901 815 CURVE SMOOTH",
"393 815 LINE",
"393 1294 LINE",
"968 1294 LINE SMOOTH",
"1048 1294 OFFCURVE",
"1092 1329 OFFCURVE",
"1092 1392 CURVE SMOOTH",
"1092 1455 OFFCURVE",
"1048 1490 OFFCURVE",
"968 1490 CURVE SMOOTH",
"289 1490 LINE SMOOTH",
"209 1490 OFFCURVE",
"165 1446 OFFCURVE",
"165 1366 CURVE SMOOTH",
"165 -142 LINE SMOOTH",
"165 -176 OFFCURVE",
"155 -200.833 OFFCURVE",
"135 -216.5 CURVE SMOOTH",
"115 -232.167 OFFCURVE",
"79 -240 OFFCURVE",
"27 -240 CURVE SMOOTH",
"17 -240 OFFCURVE",
"6 -239.5 OFFCURVE",
"-6 -238.5 CURVE SMOOTH",
"-12 -238 OFFCURVE",
"-18 -237 OFFCURVE",
"-24 -237 CURVE SMOOTH",
"-35 -235 OFFCURVE",
"-42 -268 OFFCURVE",
"-42 -326 CURVE SMOOTH",
"-42 -387 OFFCURVE",
"-22 -424 OFFCURVE",
"17 -428 CURVE SMOOTH"
);
}
);
userData = {
assembly = "NPUSHB[ ]	/* 48 values pushed */\0121 1 0 4 0 1 5 0 2 76 0 3 0 4 0 3 4 103 0 2 2 1 95 0 1 1 103 77 0 0 0 5 97 0 5 5 114 5 78 34 17 17 17 19 35 6 12 28 \012CALL[ ]	/* CallFunction */";
};
width = 1207;
}
);
leftKerningGroup = Fhook;
note = uni0191;
rightKerningGroup = F;
unicode = 0191;
},
{
glyphname = G;
lastChange = "2024-07-06 19:26:32 +0000";
layers = (
{
layerId = "6C6EE9F0-1505-4036-BE3C-A809537EF5EF";
paths = (
{
closed = 1;
nodes = (
"911.667 -20 OFFCURVE",
"1018.667 5 OFFCURVE",
"1112 55 CURVE SMOOTH",
"1205.333 105 OFFCURVE",
"1278.833 175.833 OFFCURVE",
"1332.5 267.5 CURVE SMOOTH",
"1386.167 359.167 OFFCURVE",
"1413 467.667 OFFCURVE",
"1413 593 CURVE SMOOTH",
"1413 640 LINE SMOOTH",
"1413 720 OFFCURVE",
"1369 764 OFFCURVE",
"1289 764 CURVE SMOOTH",
"949 764 LINE SMOOTH",
"869 764 OFFCURVE",
"825 731 OFFCURVE",
"825 670 CURVE SMOOTH",
"825 609 OFFCURVE",
"869 576 OFFCURVE",
"949 576 CURVE SMOOTH",
"1190 576 LINE",
"1187.333 456.667 OFFCURVE",
"1149.833 362.167 OFFCURVE",
"1077.5 292.5 CURVE SMOOTH",
"1005.167 222.833 OFFCURVE",
"910 188 OFFCURVE",
"792 188 CURVE SMOOTH",
"704 188 OFFCURVE",
"626 209.5 OFFCURVE",
"558 252.5 CURVE SMOOTH",
"490 295.5 OFFCURVE",
"436.5 358.333 OFFCURVE",
"397.5 441 CURVE SMOOTH",
"358.5 523.667 OFFCURVE",
"339 625 OFFCURVE",
"339 745 CURVE SMOOTH",
"339 865 OFFCURVE",
"358.5 966.5 OFFCURVE",
"397.5 1049.5 CURVE SMOOTH",
"436.5 1132.5 OFFCURVE",
"489.5 1195.333 OFFCURVE",
"556.5 1238 CURVE SMOOTH",
"623.5 1280.667 OFFCURVE",
"699 1302 OFFCURVE",
"783 1302 CURVE SMOOTH",
"881 1302 OFFCURVE",
"962.5 1276.667 OFFCURVE",
"1027.5 1226 CURVE SMOOTH",
"1067 1195 OFFCURVE",
"1099 1158 OFFCURVE",
"1125 1114 CURVE SMOOTH",
"1160 1051 OFFCURVE",
"1199 1019 OFFCURVE",
"1270 1019 CURVE SMOOTH",
"1283 1019 LINE SMOOTH",
"1355 1019 OFFCURVE",
"1395 1075 OFFCURVE",
"1358 1159 CURVE SMOOTH",
"1340 1200 OFFCURVE",
"1317 1239 OFFCURVE",
"1289.5 1274.5 CURVE SMOOTH",
"1232.5 1348.167 OFFCURVE",
"1160.333 1405.833 OFFCURVE",
"1073 1447.5 CURVE SMOOTH",
"985.667 1489.167 OFFCURVE",
"888.333 1510 OFFCURVE",
"781 1510 CURVE SMOOTH",
"652.333 1510 OFFCURVE",
"537.667 1479.167 OFFCURVE",
"437 1417.5 CURVE SMOOTH",
"336.333 1355.833 OFFCURVE",
"257.167 1267.833 OFFCURVE",
"199.5 1153.5 CURVE SMOOTH",
"141.833 1039.167 OFFCURVE",
"113 902.667 OFFCURVE",
"113 744 CURVE SMOOTH",
"113 586.667 OFFCURVE",
"141.333 451 OFFCURVE",
"198 337 CURVE SMOOTH",
"254.667 223 OFFCURVE",
"334 135 OFFCURVE",
"436 73 CURVE SMOOTH",
"538 11 OFFCURVE",
"656.333 -20 OFFCURVE",
"791 -20 CURVE SMOOTH"
);
}
);
userData = {
assembly = "NPUSHB[ ]	/* 59 values pushed */\0120 2 3 6 3 2 6 128 0 6 0 5 4 6 5 103 0 3 3 1 97 0 1 1 109 77 0 4 4 0 97 7 1 0 0 110 0 78 1 0 30 29 28 27 25 23 17 15 13 12 9 7 0 34 1 34 8 12 22 \012CALL[ ]	/* CallFunction */";
};
width = 1531;
}
);
leftKerningGroup = C;
note = G;
rightKerningGroup = G;
unicode = 0047;
},
{
glyphname = Ghook;
lastChange = "2024-07-06 19:26:32 +0000";
layers = (
{
layerId = "6C6EE9F0-1505-4036-BE3C-A809537EF5EF";
paths = (
{
closed = 1;
nodes = (
"911.667 -20 OFFCURVE",
"1018.667 5 OFFCURVE",
"1112 55 CURVE SMOOTH",
"1205.333 105 OFFCURVE",
"1278.833 175.833 OFFCURVE",
"1332.5 267.5 CURVE SMOOTH",
"1386.167 359.167 OFFCURVE",
"1413 467.667 OFFCURVE",
"1413 593 CURVE SMOOTH",
"1413 640 LINE SMOOTH",
"1413 720 OFFCURVE",
"1369 764 OFFCURVE",
"1289 764 CURVE SMOOTH",
"949 764 LINE SMOOTH",
"869 764 OFFCURVE",
"825 731 OFFCURVE",
"825 670 CURVE SMOOTH",
"825 609 OFFCURVE",
"869 576 OFFCURVE",
"949 576 CURVE SMOOTH",
"1190 576 LINE",
"1187.333 456.667 OFFCURVE",
"1149.833 362.167 OFFCURVE",
"1077.5 292.5 CURVE SMOOTH",
"1005.167 222.833 OFFCURVE",
"910 188 OFFCURVE",
"792 188 CURVE SMOOTH",
"704 188 OFFCURVE",
"626 209.5 OFFCURVE",
"558 252.5 CURVE SMOOTH",
"490 295.5 OFFCURVE",
"436.5 358.333 OFFCURVE",
"397.5 441 CURVE SMOOTH",
"358.5 523.667 OFFCURVE",
"339 625 OFFCURVE",
"339 745 CURVE SMOOTH",
"339 865 OFFCURVE",
"358.5 966.5 OFFCURVE",
"397.5 1049.5 CURVE SMOOTH",
"436.5 1132.5 OFFCURVE",
"489.5 1195.333 OFFCURVE",
"556.5 1238 CURVE SMOOTH",
"623.5 1280.667 OFFCURVE",
"699 1302 OFFCURVE",
"783 1302 CURVE SMOOTH",
"881 1302 OFFCURVE",
"962.5 1276.667 OFFCURVE",
"1027.5 1226 CURVE SMOOTH",
"1067 1195 OFFCURVE",
"1099 1158 OFFCURVE",
"1125 1114 CURVE SMOOTH",
"1160 1051 OFFCURVE",
"1199 1019 OFFCURVE",
"1270 1019 CURVE SMOOTH",
"1283 1019 LINE SMOOTH",
"1359 1019 OFFCURVE",
"1400 1063 OFFCURVE",
"1400 1143 CURVE SMOOTH",
"1400 1409 LINE SMOOTH",
"1400 1442.333 OFFCURVE",
"1412.167 1466.833 OFFCURVE",
"1436.5 1482.5 CURVE SMOOTH",
"1460.833 1498.167 OFFCURVE",
"1499.333 1506 OFFCURVE",
"1552 1506 CURVE SMOOTH",
"1564 1506 OFFCURVE",
"1575 1506 OFFCURVE",
"1587 1505 CURVE SMOOTH",
"1610 1503 OFFCURVE",
"1622 1532 OFFCURVE",
"1622 1587 CURVE SMOOTH",
"1622 1643 OFFCURVE",
"1583 1683 OFFCURVE",
"1506 1684 CURVE SMOOTH",
"1504 1684 OFFCURVE",
"1502 1684 OFFCURVE",
"1500 1684 CURVE SMOOTH",
"1397.333 1684 OFFCURVE",
"1319.333 1660.5 OFFCURVE",
"1266 1613.5 CURVE SMOOTH",
"1212.667 1566.5 OFFCURVE",
"1186 1498.333 OFFCURVE",
"1186 1409 CURVE SMOOTH",
"1186 1378 LINE",
"1132 1420 OFFCURVE",
"1070.667 1452.5 OFFCURVE",
"1002 1475.5 CURVE SMOOTH",
"933.333 1498.5 OFFCURVE",
"859.667 1510 OFFCURVE",
"781 1510 CURVE SMOOTH",
"652.333 1510 OFFCURVE",
"537.667 1479.167 OFFCURVE",
"437 1417.5 CURVE SMOOTH",
"336.333 1355.833 OFFCURVE",
"257.167 1267.833 OFFCURVE",
"199.5 1153.5 CURVE SMOOTH",
"141.833 1039.167 OFFCURVE",
"113 902.667 OFFCURVE",
"113 744 CURVE SMOOTH",
"113 586.667 OFFCURVE",
"141.333 451 OFFCURVE",
"198 337 CURVE SMOOTH",
"254.667 223 OFFCURVE",
"334 135 OFFCURVE",
"436 73 CURVE SMOOTH",
"538 11 OFFCURVE",
"656.333 -20 OFFCURVE",
"791 -20 CURVE SMOOTH"
);
}
);
userData = {
assembly = "NPUSHB[ ]	/* 82 values pushed */\01217 1 1 2 18 11 2 5 3 2 76 0 4 5 8 5 4 8 128 0 2 0 3 5 2 3 105 0 8 0 7 6 8 7 103 0 5 5 1 97 0 1 1 109 77 0 6 6 0 97 9 1 0 0 110 0 78 1 0 42 41 40 39 37 35 29 27 25 24 21 19 16 14 9 7 0 46 1 46 10 12 22 \012CALL[ ]	/* CallFunction */";
};
width = 1531;
}
);
leftKerningGroup = C;
note = uni0193;
rightKerningGroup = G;
unicode = 0193;
},
{
glyphname = Glottalstop;
lastChange = "2024-07-06 19:26:32 +0000";
layers = (
{
layerId = "6C6EE9F0-1505-4036-BE3C-A809537EF5EF";
paths = (
{
closed = 1;
nodes = (
"468 475 OFFCURVE",
"428 431 OFFCURVE",
"428 351 CURVE SMOOTH",
"428 124 LINE SMOOTH",
"428 44 OFFCURVE",
"472 0 OFFCURVE",
"552 0 CURVE SMOOTH",
"554 0 LINE SMOOTH",
"634 0 OFFCURVE",
"678 44 OFFCURVE",
"678 124 CURVE SMOOTH",
"678 286 LINE",
"759.333 305.333 OFFCURVE",
"827.333 340.667 OFFCURVE",
"882 392 CURVE SMOOTH",
"936.667 443.333 OFFCURVE",
"977.667 505.333 OFFCURVE",
"1005 578 CURVE SMOOTH",
"1032.333 650.667 OFFCURVE",
"1046 729 OFFCURVE",
"1046 813 CURVE SMOOTH",
"1046 964 LINE SMOOTH",
"1046 1062.667 OFFCURVE",
"1027.167 1153.5 OFFCURVE",
"989.5 1236.5 CURVE SMOOTH",
"951.833 1319.5 OFFCURVE",
"895.5 1385.833 OFFCURVE",
"820.5 1435.5 CURVE SMOOTH",
"745.5 1485.167 OFFCURVE",
"652 1510 OFFCURVE",
"540 1510 CURVE SMOOTH",
"451.333 1510 OFFCURVE",
"373.333 1491.833 OFFCURVE",
"306 1455.5 CURVE SMOOTH",
"238.667 1419.167 OFFCURVE",
"185.667 1369.333 OFFCURVE",
"147 1306 CURVE SMOOTH",
"127 1274 OFFCURVE",
"112 1239 OFFCURVE",
"102 1202 CURVE SMOOTH",
"83 1131 OFFCURVE",
"133 1089 OFFCURVE",
"211 1089 CURVE SMOOTH",
"284 1089 OFFCURVE",
"312 1127 OFFCURVE",
"346 1195 CURVE SMOOTH",
"356 1213 OFFCURVE",
"367 1229 OFFCURVE",
"381.5 1244 CURVE SMOOTH",
"419.833 1284.667 OFFCURVE",
"473.667 1305 OFFCURVE",
"543 1305 CURVE SMOOTH",
"611.667 1305 OFFCURVE",
"664.5 1287.667 OFFCURVE",
"701.5 1253 CURVE SMOOTH",
"738.5 1218.333 OFFCURVE",
"763.833 1174.833 OFFCURVE",
"777.5 1122.5 CURVE SMOOTH",
"791.167 1070.167 OFFCURVE",
"798 1017.333 OFFCURVE",
"798 964 CURVE SMOOTH",
"798 813 LINE SMOOTH",
"798 754.333 OFFCURVE",
"790.833 699.333 OFFCURVE",
"776.5 648 CURVE SMOOTH",
"762.167 596.667 OFFCURVE",
"736.5 555 OFFCURVE",
"699.5 523 CURVE SMOOTH",
"662.5 491 OFFCURVE",
"610.333 475 OFFCURVE",
"543 475 CURVE SMOOTH"
);
}
);
userData = {
assembly = "NPUSHB[ ]	/* 53 values pushed */\01227 1 4 0 1 76 0 2 1 0 1 2 0 128 0 1 1 3 97 0 3 3 109 77 5 1 0 0 4 95 0 4 4 104 4 78 2 0 29 28 19 17 14 13 11 9 0 30 2 30 6 12 22 \012CALL[ ]	/* CallFunction */";
};
width = 1133;
}
);
note = uni0241;
unicode = 0241;
},
{
glyphname = Yogh;
lastChange = "2024-07-06 19:26:32 +0000";
layers = (
{
layerId = "6C6EE9F0-1505-4036-BE3C-A809537EF5EF";
paths = (
{
closed = 1;
nodes = (
"443 387 OFFCURVE",
"515 411 OFFCURVE",
"583 438 CURVE SMOOTH",
"690.333 480 OFFCURVE",
"783.667 527.667 OFFCURVE",
"863 581 CURVE",
"892.333 559 OFFCURVE",
"913.167 528.667 OFFCURVE",
"925.5 490 CURVE SMOOTH",
"937.833 451.333 OFFCURVE",
"944 403.333 OFFCURVE",
"944 346 CURVE SMOOTH",
"944 230.667 OFFCURVE",
"915.667 135.333 OFFCURVE",
"859 60 CURVE SMOOTH",
"802.333 -15.333 OFFCURVE",
"720.5 -76.667 OFFCURVE",
"613.5 -124 CURVE SMOOTH",
"534 -159 OFFCURVE",
"442 -190 OFFCURVE",
"338 -216 CURVE SMOOTH",
"265 -234 OFFCURVE",
"228 -273 OFFCURVE",
"228 -338 CURVE SMOOTH",
"228 -399 OFFCURVE",
"279 -428 OFFCURVE",
"364 -409 CURVE SMOOTH",
"453 -389 OFFCURVE",
"536 -365 OFFCURVE",
"615 -338.5 CURVE SMOOTH",
"733 -298.167 OFFCURVE",
"835.167 -247.667 OFFCURVE",
"921.5 -187 CURVE SMOOTH",
"1007.833 -126.333 OFFCURVE",
"1074.667 -53.333 OFFCURVE",
"1122 32 CURVE SMOOTH",
"1169.333 117.333 OFFCURVE",
"1193 217.667 OFFCURVE",
"1193 333 CURVE SMOOTH",
"1193 423 OFFCURVE",
"1177 498.667 OFFCURVE",
"1145 560 CURVE SMOOTH",
"1113 621.333 OFFCURVE",
"1068.333 669.333 OFFCURVE",
"1011 704 CURVE",
"1062.333 758 OFFCURVE",
"1101.667 816.333 OFFCURVE",
"1129 879 CURVE SMOOTH",
"1156.333 941.667 OFFCURVE",
"1170 1008.333 OFFCURVE",
"1170 1079 CURVE SMOOTH",
"1170 1172.333 OFFCURVE",
"1148.167 1251 OFFCURVE",
"1104.5 1315 CURVE SMOOTH",
"1060.833 1379 OFFCURVE",
"1000.167 1427.5 OFFCURVE",
"922.5 1460.5 CURVE SMOOTH",
"844.833 1493.5 OFFCURVE",
"755.333 1510 OFFCURVE",
"654 1510 CURVE SMOOTH",
"552 1510 OFFCURVE",
"461.667 1493.167 OFFCURVE",
"383 1459.5 CURVE SMOOTH",
"304.333 1425.833 OFFCURVE",
"242.5 1378.333 OFFCURVE",
"197.5 1317 CURVE SMOOTH",
"175 1286 OFFCURVE",
"157 1252 OFFCURVE",
"146 1215 CURVE SMOOTH",
"124 1145 OFFCURVE",
"179 1102 OFFCURVE",
"264 1102 CURVE SMOOTH",
"269 1102 LINE SMOOTH",
"341 1102 OFFCURVE",
"365 1140 OFFCURVE",
"405 1203 CURVE SMOOTH",
"416 1222 OFFCURVE",
"432 1238 OFFCURVE",
"451.5 1253 CURVE SMOOTH",
"501.833 1291.667 OFFCURVE",
"569.333 1311 OFFCURVE",
"654 1311 CURVE SMOOTH",
"742 1311 OFFCURVE",
"809.167 1288.833 OFFCURVE",
"855.5 1244.5 CURVE SMOOTH",
"901.833 1200.167 OFFCURVE",
"925 1135.667 OFFCURVE",
"925 1051 CURVE SMOOTH",
"925 965 OFFCURVE",
"899.5 890.333 OFFCURVE",
"848.5 827 CURVE SMOOTH",
"797.5 763.667 OFFCURVE",
"720.5 707 OFFCURVE",
"617.5 657 CURVE SMOOTH",
"538 619 OFFCURVE",
"443 581 OFFCURVE",
"332 544 CURVE SMOOTH",
"262 521 OFFCURVE",
"228 483 OFFCURVE",
"228 422 CURVE SMOOTH",
"228 366 OFFCURVE",
"281 342 OFFCURVE",
"366 366 CURVE SMOOTH"
);
}
);
userData = {
assembly = "NPUSHB[ ]	/* 31 values pushed */\01239 32 31 23 1 0 6 1 73 0 1 0 1 134 0 0 0 2 97 0 2 2 109 0 78 35 18 39 3 12 25 \012CALL[ ]	/* CallFunction */";
};
width = 1321;
}
);
note = uni021C;
unicode = 021C;
},
{
glyphname = H;
lastChange = "2024-07-06 19:26:32 +0000";
layers = (
{
layerId = "6C6EE9F0-1505-4036-BE3C-A809537EF5EF";
paths = (
{
closed = 1;
nodes = (
"165 124 LINE SMOOTH",
"165 44 OFFCURVE",
"205 0 OFFCURVE",
"279 0 CURVE SMOOTH",
"353 0 OFFCURVE",
"393 44 OFFCURVE",
"393 124 CURVE SMOOTH",
"393 664 LINE",
"1131 664 LINE",
"1131 124 LINE SMOOTH",
"1131 44 OFFCURVE",
"1172 0 OFFCURVE",
"1246 0 CURVE SMOOTH",
"1320 0 OFFCURVE",
"1360 44 OFFCURVE",
"1360 124 CURVE SMOOTH",
"1360 1366 LINE SMOOTH",
"1360 1446 OFFCURVE",
"1320 1490 OFFCURVE",
"1246 1490 CURVE SMOOTH",
"1172 1490 OFFCURVE",
"1131 1446 OFFCURVE",
"1131 1366 CURVE SMOOTH",
"1131 860 LINE",
"393 860 LINE",
"393 1366 LINE SMOOTH",
"393 1446 OFFCURVE",
"353 1490 OFFCURVE",
"279 1490 CURVE SMOOTH",
"205 1490 OFFCURVE",
"165 1446 OFFCURVE",
"165 1366 CURVE SMOOTH"
);
}
);
userData = {
assembly = "NPUSHB[ ]	/* 36 values pushed */\0120 1 0 4 3 1 4 103 2 1 0 0 103 77 6 5 2 3 3 104 3 78 0 0 0 11 0 11 17 17 17 17 17 7 12 27 \012CALL[ ]	/* CallFunction */";
};
width = 1525;
}
);
leftKerningGroup = B;
note = H;
rightKerningGroup = Ereversed;
unicode = 0048;
},
{
glyphname = Hbar;
lastChange = "2024-07-06 19:26:32 +0000";
layers = (
{
layerId = "6C6EE9F0-1505-4036-BE3C-A809537EF5EF";
paths = (
{
closed = 1;
nodes = (
"1520 1165 OFFCURVE",
"1480 1193 OFFCURVE",
"1406 1193 CURVE",
"1406 1366 LINE SMOOTH",
"1406 1446 OFFCURVE",
"1366 1490 OFFCURVE",
"1292 1490 CURVE SMOOTH",
"1218 1490 OFFCURVE",
"1177 1446 OFFCURVE",
"1177 1366 CURVE SMOOTH",
"1177 1193 LINE",
"440 1193 LINE",
"440 1366 LINE SMOOTH",
"440 1446 OFFCURVE",
"400 1490 OFFCURVE",
"326 1490 CURVE SMOOTH",
"252 1490 OFFCURVE",
"211 1446 OFFCURVE",
"211 1366 CURVE SMOOTH",
"211 1193 LINE",
"151 1193 LINE SMOOTH",
"112 1193 OFFCURVE",
"90 1165 OFFCURVE",
"90 1113 CURVE SMOOTH",
"90 1061 OFFCURVE",
"133 1033 OFFCURVE",
"211 1033 CURVE",
"211 124 LINE SMOOTH",
"211 44 OFFCURVE",
"252 0 OFFCURVE",
"326 0 CURVE SMOOTH",
"400 0 OFFCURVE",
"440 44 OFFCURVE",
"440 124 CURVE SMOOTH",
"440 664 LINE",
"1177 664 LINE",
"1177 124 LINE SMOOTH",
"1177 44 OFFCURVE",
"1218 0 OFFCURVE",
"1292 0 CURVE SMOOTH",
"1366 0 OFFCURVE",
"1406 44 OFFCURVE",
"1406 124 CURVE SMOOTH",
"1406 1033 LINE",
"1463 1033 LINE SMOOTH",
"1500 1033 OFFCURVE",
"1520 1061 OFFCURVE",
"1520 1113 CURVE SMOOTH"
);
},
{
closed = 1;
nodes = (
"1177 1033 LINE",
"1177 860 LINE",
"440 860 LINE",
"440 1033 LINE"
);
}
);
userData = {
assembly = "NPUSHB[ ]	/* 56 values pushed */\01212 9 7 3 5 10 4 2 0 11 5 0 103 0 11 0 2 1 11 2 103 8 1 6 6 103 77 3 1 1 1 104 1 78 0 0 23 22 21 20 0 19 0 19 17 17 17 17 17 17 17 17 17 13 12 31 \012CALL[ ]	/* CallFunction */";
};
width = 1611;
}
);
leftKerningGroup = B;
note = Hbar;
rightKerningGroup = Ereversed;
unicode = 0126;
},
{
glyphname = Hwair;
lastChange = "2024-07-06 19:26:32 +0000";
layers = (
{
layerId = "6C6EE9F0-1505-4036-BE3C-A809537EF5EF";
paths = (
{
closed = 1;
nodes = (
"1793 -20 OFFCURVE",
"1914.333 22.5 OFFCURVE",
"2007 107.5 CURVE SMOOTH",
"2099.667 192.5 OFFCURVE",
"2146 317.333 OFFCURVE",
"2146 482 CURVE SMOOTH",
"2146 983 LINE SMOOTH",
"2146 1063 OFFCURVE",
"2106 1107 OFFCURVE",
"2032 1107 CURVE SMOOTH",
"1958 1107 OFFCURVE",
"1918 1063 OFFCURVE",
"1918 983 CURVE SMOOTH",
"1918 482 LINE SMOOTH",
"1918 380 OFFCURVE",
"1894.333 304.5 OFFCURVE",
"1847 255.5 CURVE SMOOTH",
"1799.667 206.5 OFFCURVE",
"1731.667 182 OFFCURVE",
"1643 182 CURVE SMOOTH",
"1554.333 182 OFFCURVE",
"1485.167 206.5 OFFCURVE",
"1435.5 255.5 CURVE SMOOTH",
"1385.833 304.5 OFFCURVE",
"1361 380 OFFCURVE",
"1361 482 CURVE SMOOTH",
"1361 1366 LINE SMOOTH",
"1361 1446 OFFCURVE",
"1320 1490 OFFCURVE",
"1246 1490 CURVE SMOOTH",
"1172 1490 OFFCURVE",
"1131 1446 OFFCURVE",
"1131 1366 CURVE SMOOTH",
"1131 844 LINE",
"393 844 LINE",
"393 1366 LINE SMOOTH",
"393 1446 OFFCURVE",
"353 1490 OFFCURVE",
"279 1490 CURVE SMOOTH",
"205 1490 OFFCURVE",
"165 1446 OFFCURVE",
"165 1366 CURVE SMOOTH",
"165 124 LINE SMOOTH",
"165 44 OFFCURVE",
"205 0 OFFCURVE",
"279 0 CURVE SMOOTH",
"353 0 OFFCURVE",
"393 44 OFFCURVE",
"393 124 CURVE SMOOTH",
"393 648 LINE",
"1131 648 LINE",
"1131 482 LINE SMOOTH",
"1131 319.333 OFFCURVE",
"1177.833 195 OFFCURVE",
"1271.5 109 CURVE SMOOTH",
"1365.167 23 OFFCURVE",
"1489 -20 OFFCURVE",
"1643 -20 CURVE SMOOTH"
);
}
);
userData = {
assembly = "MPPEM[ ]	/* MeasurePixelPerEm */\012PUSHB[ ]	/* 1 value pushed */\01225 \012LT[ ]	/* LessThan */\012IF[ ]	/* If */\012NPUSHB[ ]	/* 32 values pushed */\0120 4 0 1 6 4 1 103 5 1 3 3 103 77 0 7 7 106 77 0 6 6 0 97 2 8 2 0 0 110 0 78 \012ELSE[ ]	/* Else */\012NPUSHB[ ]	/* 36 values pushed */\0120 4 0 1 6 4 1 103 5 1 3 3 103 77 0 7 7 106 77 0 2 2 104 77 0 6 6 0 97 8 1 0 0 110 0 78 \012EIF[ ]	/* EndIf */\012NPUSHB[ ]	/* 23 values pushed */\0121 0 22 21 18 16 13 12 11 10 9 8 7 6 5 4 0 25 1 25 9 12 22 \012CALL[ ]	/* CallFunction */";
};
width = 2294;
}
);
leftKerningGroup = B;
note = uni01F6;
rightKerningGroup = Hwair;
unicode = 01F6;
},
{
glyphname = I;
lastChange = "2024-07-06 19:26:32 +0000";
layers = (
{
layerId = "6C6EE9F0-1505-4036-BE3C-A809537EF5EF";
paths = (
{
closed = 1;
nodes = (
"393 1366 LINE SMOOTH",
"393 1446 OFFCURVE",
"353 1490 OFFCURVE",
"279 1490 CURVE SMOOTH",
"205 1490 OFFCURVE",
"165 1446 OFFCURVE",
"165 1366 CURVE SMOOTH",
"165 124 LINE SMOOTH",
"165 44 OFFCURVE",
"205 0 OFFCURVE",
"279 0 CURVE SMOOTH",
"353 0 OFFCURVE",
"393 44 OFFCURVE",
"393 124 CURVE SMOOTH"
);
}
);
userData = {
assembly = "NPUSHB[ ]	/* 22 values pushed */\0122 1 1 1 103 77 0 0 0 104 0 78 0 0 0 3 0 3 17 3 12 23 \012CALL[ ]	/* CallFunction */";
};
width = 558;
}
);
leftKerningGroup = B;
note = I;
rightKerningGroup = Ereversed;
unicode = 0049;
},
{
glyphname = J;
lastChange = "2024-07-06 19:26:32 +0000";
layers = (
{
layerId = "6C6EE9F0-1505-4036-BE3C-A809537EF5EF";
paths = (
{
closed = 1;
nodes = (
"691.333 -20 OFFCURVE",
"803 19.167 OFFCURVE",
"887 97.5 CURVE SMOOTH",
"971 175.833 OFFCURVE",
"1013 288 OFFCURVE",
"1013 434 CURVE SMOOTH",
"1013 1366 LINE SMOOTH",
"1013 1446 OFFCURVE",
"973 1490 OFFCURVE",
"900 1490 CURVE SMOOTH",
"827 1490 OFFCURVE",
"786 1446 OFFCURVE",
"786 1366 CURVE SMOOTH",
"786 432 LINE SMOOTH",
"786 347.333 OFFCURVE",
"764.667 283 OFFCURVE",
"722 239 CURVE SMOOTH",
"679.333 195 OFFCURVE",
"622.667 173 OFFCURVE",
"552 173 CURVE SMOOTH",
"481.333 173 OFFCURVE",
"424.667 195 OFFCURVE",
"382 239 CURVE SMOOTH",
"339.333 283 OFFCURVE",
"318 347.333 OFFCURVE",
"318 432 CURVE SMOOTH",
"318 487 OFFCURVE",
"278 516 OFFCURVE",
"204 516 CURVE SMOOTH",
"130 516 OFFCURVE",
"89 487 OFFCURVE",
"89 433 CURVE SMOOTH",
"89 287.667 OFFCURVE",
"131.333 175.833 OFFCURVE",
"216 97.5 CURVE SMOOTH",
"300.667 19.167 OFFCURVE",
"412.667 -20 OFFCURVE",
"552 -20 CURVE SMOOTH"
);
}
);
userData = {
assembly = "NPUSHB[ ]	/* 40 values pushed */\0120 1 3 2 3 1 2 128 0 3 3 103 77 0 2 2 0 97 4 1 0 0 110 0 78 1 0 14 13 10 8 5 4 0 17 1 17 5 12 22 \012CALL[ ]	/* CallFunction */";
};
width = 1178;
}
);
leftKerningGroup = J;
note = J;
rightKerningGroup = J;
unicode = 004A;
},
{
glyphname = K;
lastChange = "2024-07-06 19:26:32 +0000";
layers = (
{
layerId = "6C6EE9F0-1505-4036-BE3C-A809537EF5EF";
paths = (
{
closed = 1;
nodes = (
"165 124 LINE SMOOTH",
"165 44 OFFCURVE",
"205 0 OFFCURVE",
"279 0 CURVE SMOOTH",
"353 0 OFFCURVE",
"393 44 OFFCURVE",
"393 124 CURVE SMOOTH",
"393 468 LINE",
"602 692 LINE",
"1029 78 LINE SMOOTH",
"1067 23 OFFCURVE",
"1112 0 OFFCURVE",
"1178 0 CURVE SMOOTH",
"1218 0 LINE SMOOTH",
"1293 0 OFFCURVE",
"1306 67 OFFCURVE",
"1247 151 CURVE SMOOTH",
"761 845 LINE",
"1209 1338 LINE SMOOTH",
"1282 1418 OFFCURVE",
"1253 1490 OFFCURVE",
"1148 1490 CURVE SMOOTH",
"1084 1490 OFFCURVE",
"1039 1470 OFFCURVE",
"996 1422 CURVE SMOOTH",
"639 1027 LINE SMOOTH",
"591.667 973.667 OFFCURVE",
"547.833 922 OFFCURVE",
"507.5 872 CURVE SMOOTH",
"467.167 822 OFFCURVE",
"428 770.333 OFFCURVE",
"390 717 CURVE",
"393 1014 LINE",
"393 1366 LINE SMOOTH",
"393 1446 OFFCURVE",
"353 1490 OFFCURVE",
"279 1490 CURVE SMOOTH",
"205 1490 OFFCURVE",
"165 1446 OFFCURVE",
"165 1366 CURVE SMOOTH"
);
}
);
userData = {
assembly = "NPUSHB[ ]	/* 35 values pushed */\01214 13 10 4 4 2 0 1 76 1 1 0 0 103 77 4 3 2 2 2 104 2 78 0 0 0 15 0 15 18 22 17 5 12 25 \012CALL[ ]	/* CallFunction */";
};
width = 1408;
}
);
leftKerningGroup = B;
note = K;
rightKerningGroup = K;
unicode = 004B;
},
{
glyphname = Khook;
lastChange = "2024-07-06 19:26:32 +0000";
layers = (
{
layerId = "6C6EE9F0-1505-4036-BE3C-A809537EF5EF";
paths = (
{
closed = 1;
nodes = (
"165 124 LINE SMOOTH",
"165 44 OFFCURVE",
"205 0 OFFCURVE",
"279 0 CURVE SMOOTH",
"353 0 OFFCURVE",
"393 44 OFFCURVE",
"393 124 CURVE SMOOTH",
"393 447 LINE",
"578 652 LINE",
"1010 75 LINE SMOOTH",
"1049 22 OFFCURVE",
"1095 0 OFFCURVE",
"1161 0 CURVE SMOOTH",
"1205 0 LINE SMOOTH",
"1280 0 OFFCURVE",
"1290 68 OFFCURVE",
"1227 151 CURVE SMOOTH",
"722 813 LINE",
"1120 1235 LINE SMOOTH",
"1155.333 1272.333 OFFCURVE",
"1189 1294.833 OFFCURVE",
"1221 1302.5 CURVE SMOOTH",
"1238 1307 OFFCURVE",
"1256 1307 OFFCURVE",
"1274 1302 CURVE SMOOTH",
"1309 1294 OFFCURVE",
"1337 1309 OFFCURVE",
"1364 1365 CURVE SMOOTH",
"1390 1418 OFFCURVE",
"1370 1479 OFFCURVE",
"1291 1499 CURVE SMOOTH",
"1255 1508 OFFCURVE",
"1217 1510 OFFCURVE",
"1179.5 1506 CURVE SMOOTH",
"1101.167 1497.333 OFFCURVE",
"1030 1458.333 OFFCURVE",
"966 1389 CURVE SMOOTH",
"412 785 LINE",
"393 785 LINE",
"393 1366 LINE SMOOTH",
"393 1446 OFFCURVE",
"353 1490 OFFCURVE",
"279 1490 CURVE SMOOTH",
"205 1490 OFFCURVE",
"165 1446 OFFCURVE",
"165 1366 CURVE SMOOTH"
);
}
);
userData = {
assembly = "NPUSHB[ ]	/* 35 values pushed */\01217 16 13 9 8 3 6 1 0 1 76 0 0 0 103 77 3 2 2 1 1 104 1 78 0 0 0 18 0 18 28 17 4 12 24 \012CALL[ ]	/* CallFunction */";
};
width = 1422;
}
);
leftKerningGroup = B;
note = uni0198;
rightKerningGroup = K;
unicode = 0198;
},
{
glyphname = L;
lastChange = "2024-07-06 19:26:32 +0000";
layers = (
{
layerId = "6C6EE9F0-1505-4036-BE3C-A809537EF5EF";
paths = (
{
closed = 1;
nodes = (
"165 124 LINE SMOOTH",
"165 44 OFFCURVE",
"209 0 OFFCURVE",
"289 0 CURVE SMOOTH",
"944 0 LINE SMOOTH",
"1024 0 OFFCURVE",
"1068 35 OFFCURVE",
"1068 98 CURVE SMOOTH",
"1068 161 OFFCURVE",
"1024 196 OFFCURVE",
"944 196 CURVE SMOOTH",
"393 196 LINE",
"393 1366 LINE SMOOTH",
"393 1446 OFFCURVE",
"353 1490 OFFCURVE",
"279 1490 CURVE SMOOTH",
"205 1490 OFFCURVE",
"165 1446 OFFCURVE",
"165 1366 CURVE SMOOTH"
);
}
);
userData = {
assembly = "NPUSHB[ ]	/* 28 values pushed */\0120 0 0 103 77 0 1 1 2 96 3 1 2 2 104 2 78 0 0 0 5 0 5 17 17 4 12 24 \012CALL[ ]	/* CallFunction */";
};
width = 1158;
}
);
leftKerningGroup = B;
note = L;
rightKerningGroup = L;
unicode = 004C;
},
{
glyphname = M;
lastChange = "2024-07-06 19:26:32 +0000";
layers = (
{
layerId = "6C6EE9F0-1505-4036-BE3C-A809537EF5EF";
paths = (
{
closed = 1;
nodes = (
"165 124 LINE SMOOTH",
"165 44 OFFCURVE",
"204 0 OFFCURVE",
"276 0 CURVE SMOOTH",
"348 0 OFFCURVE",
"387 44 OFFCURVE",
"387 124 CURVE SMOOTH",
"387 802 LINE SMOOTH",
"387 840 OFFCURVE",
"386.5 885 OFFCURVE",
"385.5 937 CURVE SMOOTH",
"382 1100 LINE SMOOTH",
"380.667 1156.667 OFFCURVE",
"379.333 1211 OFFCURVE",
"378 1263 CURVE",
"461.5 997 LINE SMOOTH",
"488.5 911.667 OFFCURVE",
"510.667 846.667 OFFCURVE",
"528 802 CURVE SMOOTH",
"799 98 LINE SMOOTH",
"825 32 OFFCURVE",
"868 0 OFFCURVE",
"935 0 CURVE SMOOTH",
"1001 0 OFFCURVE",
"1044 31 OFFCURVE",
"1069 98 CURVE SMOOTH",
"1337 802 LINE SMOOTH",
"1348.333 832.667 OFFCURVE",
"1362.333 873.167 OFFCURVE",
"1379 923.5 CURVE SMOOTH",
"1395.667 973.833 OFFCURVE",
"1413.333 1028.667 OFFCURVE",
"1432 1088 CURVE SMOOTH",
"1450.667 1147.333 OFFCURVE",
"1468.667 1207.333 OFFCURVE",
"1486 1268 CURVE",
"1480.5 1013.5 LINE SMOOTH",
"1478.833 927.167 OFFCURVE",
"1478 856.667 OFFCURVE",
"1478 802 CURVE SMOOTH",
"1478 124 LINE SMOOTH",
"1478 44 OFFCURVE",
"1518 0 OFFCURVE",
"1592 0 CURVE SMOOTH",
"1665 0 OFFCURVE",
"1705 44 OFFCURVE",
"1705 124 CURVE SMOOTH",
"1705 1366 LINE SMOOTH",
"1705 1446 OFFCURVE",
"1661 1490 OFFCURVE",
"1581 1490 CURVE SMOOTH",
"1472 1490 LINE SMOOTH",
"1401 1490 OFFCURVE",
"1355 1459 OFFCURVE",
"1330 1391 CURVE SMOOTH",
"1047 635 LINE SMOOTH",
"1037 607.667 OFFCURVE",
"1025.667 572.667 OFFCURVE",
"1013 530 CURVE SMOOTH",
"1000.333 487.333 OFFCURVE",
"987.333 441.667 OFFCURVE",
"974 393 CURVE SMOOTH",
"936 254 LINE",
"924.667 299.333 OFFCURVE",
"912.333 346.333 OFFCURVE",
"899 395 CURVE SMOOTH",
"885.667 443.667 OFFCURVE",
"872.667 489.167 OFFCURVE",
"860 531.5 CURVE SMOOTH",
"847.333 573.833 OFFCURVE",
"836 608.333 OFFCURVE",
"826 635 CURVE SMOOTH",
"538 1392 LINE SMOOTH",
"513 1459 OFFCURVE",
"467 1490 OFFCURVE",
"396 1490 CURVE SMOOTH",
"289 1490 LINE SMOOTH",
"209 1490 OFFCURVE",
"165 1446 OFFCURVE",
"165 1366 CURVE SMOOTH"
);
}
);
userData = {
assembly = "NPUSHB[ ]	/* 36 values pushed */\01229 19 7 3 2 0 1 76 1 1 0 0 103 77 5 4 3 3 2 2 104 2 78 0 0 0 34 0 34 25 17 26 17 6 12 26 \012CALL[ ]	/* CallFunction */";
};
width = 1869;
}
);
leftKerningGroup = B;
note = M;
rightKerningGroup = Ereversed;
unicode = 004D;
},
{
glyphname = Mturned;
lastChange = "2024-07-06 19:26:32 +0000";
layers = (
{
layerId = "6C6EE9F0-1505-4036-BE3C-A809537EF5EF";
paths = (
{
closed = 1;
nodes = (
"899.333 99.333 OFFCURVE",
"941.333 50.833 OFFCURVE",
"996 22.5 CURVE SMOOTH",
"1050.667 -5.833 OFFCURVE",
"1114.333 -20 OFFCURVE",
"1187 -20 CURVE SMOOTH",
"1256.333 -20 OFFCURVE",
"1316.667 -7.833 OFFCURVE",
"1368 16.5 CURVE SMOOTH",
"1419.333 40.833 OFFCURVE",
"1462 74.667 OFFCURVE",
"1496 118 CURVE",
"1500 59 LINE SMOOTH",
"1503 21 OFFCURVE",
"1542 0 OFFCURVE",
"1615 0 CURVE SMOOTH",
"1686 0 OFFCURVE",
"1725 44 OFFCURVE",
"1725 124 CURVE SMOOTH",
"1725 1366 LINE SMOOTH",
"1725 1446 OFFCURVE",
"1683 1490 OFFCURVE",
"1607 1490 CURVE SMOOTH",
"1530 1490 OFFCURVE",
"1488 1446 OFFCURVE",
"1488 1366 CURVE SMOOTH",
"1488 346 LINE",
"1471.333 296.667 OFFCURVE",
"1443.667 255.833 OFFCURVE",
"1405 223.5 CURVE SMOOTH",
"1366.333 191.167 OFFCURVE",
"1311.333 175 OFFCURVE",
"1240 175 CURVE SMOOTH",
"1208.667 175 OFFCURVE",
"1179.5 182.667 OFFCURVE",
"1152.5 198 CURVE SMOOTH",
"1125.5 213.333 OFFCURVE",
"1103.667 239.833 OFFCURVE",
"1087 277.5 CURVE SMOOTH",
"1070.333 315.167 OFFCURVE",
"1062 368 OFFCURVE",
"1062 436 CURVE SMOOTH",
"1062 1366 LINE SMOOTH",
"1062 1446 OFFCURVE",
"1020 1490 OFFCURVE",
"944 1490 CURVE SMOOTH",
"868 1490 OFFCURVE",
"826 1446 OFFCURVE",
"826 1366 CURVE SMOOTH",
"826 436 LINE SMOOTH",
"826 406 OFFCURVE",
"827 377.333 OFFCURVE",
"829 350 CURVE",
"813.667 303.333 OFFCURVE",
"786.833 262.5 OFFCURVE",
"748.5 227.5 CURVE SMOOTH",
"710.167 192.5 OFFCURVE",
"653 175 OFFCURVE",
"577 175 CURVE SMOOTH",
"546.333 175 OFFCURVE",
"517.667 182.667 OFFCURVE",
"491 198 CURVE SMOOTH",
"464.333 213.333 OFFCURVE",
"442.833 239.833 OFFCURVE",
"426.5 277.5 CURVE SMOOTH",
"410.167 315.167 OFFCURVE",
"402 368 OFFCURVE",
"402 436 CURVE SMOOTH",
"402 1366 LINE SMOOTH",
"402 1446 OFFCURVE",
"360 1490 OFFCURVE",
"284 1490 CURVE SMOOTH",
"207 1490 OFFCURVE",
"165 1446 OFFCURVE",
"165 1366 CURVE SMOOTH",
"165 436 LINE SMOOTH",
"165 323.333 OFFCURVE",
"179.167 233.667 OFFCURVE",
"207.5 167 CURVE SMOOTH",
"235.833 100.333 OFFCURVE",
"276.833 52.5 OFFCURVE",
"330.5 23.5 CURVE SMOOTH",
"384.167 -5.5 OFFCURVE",
"448.667 -20 OFFCURVE",
"524 -20 CURVE SMOOTH",
"607.333 -20 OFFCURVE",
"677.5 -3.333 OFFCURVE",
"734.5 30 CURVE SMOOTH",
"791.5 63.333 OFFCURVE",
"836.667 109.333 OFFCURVE",
"870 168 CURVE"
);
}
);
userData = {
assembly = "MPPEM[ ]	/* MeasurePixelPerEm */\012PUSHB[ ]	/* 1 value pushed */\01225 \012LT[ ]	/* LessThan */\012IF[ ]	/* If */\012NPUSHB[ ]	/* 10 values pushed */\01229 1 2 1 34 1 0 2 2 76 \012ELSE[ ]	/* Else */\012NPUSHB[ ]	/* 10 values pushed */\01229 1 2 1 34 1 6 2 2 76 \012EIF[ ]	/* EndIf */\012MPPEM[ ]	/* MeasurePixelPerEm */\012PUSHB[ ]	/* 1 value pushed */\01225 \012LT[ ]	/* LessThan */\012IF[ ]	/* If */\012NPUSHB[ ]	/* 21 values pushed */\0125 3 2 1 1 103 77 4 1 2 2 0 97 7 6 2 0 0 110 0 78 \012ELSE[ ]	/* Else */\012NPUSHB[ ]	/* 25 values pushed */\0125 3 2 1 1 103 77 0 6 6 104 77 4 1 2 2 0 97 7 1 0 0 110 0 78 \012EIF[ ]	/* EndIf */\012NPUSHB[ ]	/* 11 values pushed */\01235 17 19 36 21 36 20 34 8 12 30 \012CALL[ ]	/* CallFunction */";
};
width = 1888;
}
);
note = mcapturn;
unicode = 019C;
},
{
glyphname = N;
lastChange = "2024-07-06 19:26:32 +0000";
layers = (
{
layerId = "6C6EE9F0-1505-4036-BE3C-A809537EF5EF";
paths = (
{
closed = 1;
nodes = (
"165 124 LINE SMOOTH",
"165 44 OFFCURVE",
"206 0 OFFCURVE",
"281 0 CURVE SMOOTH",
"356 0 OFFCURVE",
"396 44 OFFCURVE",
"396 124 CURVE SMOOTH",
"396 795 LINE SMOOTH",
"396 833.667 OFFCURVE",
"394.333 889.667 OFFCURVE",
"391 963 CURVE SMOOTH",
"387.667 1036.333 OFFCURVE",
"383.667 1119.667 OFFCURVE",
"379 1213 CURVE",
"473 1040.5 LINE SMOOTH",
"499.667 992.167 OFFCURVE",
"524.167 948.667 OFFCURVE",
"546.5 910 CURVE SMOOTH",
"568.833 871.333 OFFCURVE",
"592.333 832.333 OFFCURVE",
"617 793 CURVE SMOOTH",
"1068 82 LINE SMOOTH",
"1104 25 OFFCURVE",
"1150 0 OFFCURVE",
"1217 0 CURVE SMOOTH",
"1260 0 LINE SMOOTH",
"1340 0 OFFCURVE",
"1384 44 OFFCURVE",
"1384 124 CURVE SMOOTH",
"1384 1366 LINE SMOOTH",
"1384 1446 OFFCURVE",
"1343 1490 OFFCURVE",
"1269 1490 CURVE SMOOTH",
"1194 1490 OFFCURVE",
"1153 1446 OFFCURVE",
"1153 1366 CURVE SMOOTH",
"1153 642 LINE SMOOTH",
"1153 599.333 OFFCURVE",
"1154.167 545.167 OFFCURVE",
"1156.5 479.5 CURVE SMOOTH",
"1158.833 413.833 OFFCURVE",
"1162.667 345 OFFCURVE",
"1168 273 CURVE",
"1134.667 344.333 OFFCURVE",
"1102.333 407.833 OFFCURVE",
"1071 463.5 CURVE SMOOTH",
"1039.667 519.167 OFFCURVE",
"1012.333 565.667 OFFCURVE",
"989 603 CURVE SMOOTH",
"480 1408 LINE SMOOTH",
"444 1465 OFFCURVE",
"398 1490 OFFCURVE",
"331 1490 CURVE SMOOTH",
"289 1490 LINE SMOOTH",
"209 1490 OFFCURVE",
"165 1446 OFFCURVE",
"165 1366 CURVE SMOOTH"
);
}
);
userData = {
assembly = "NPUSHB[ ]	/* 33 values pushed */\01218 6 2 2 0 1 76 1 1 0 0 103 77 4 3 2 2 2 104 2 78 0 0 0 22 0 22 17 24 17 5 12 25 \012CALL[ ]	/* CallFunction */";
};
width = 1549;
}
);
leftKerningGroup = B;
note = N;
rightKerningGroup = Ereversed;
unicode = 004E;
},
{
glyphname = Eng;
lastChange = "2024-07-06 19:26:32 +0000";
layers = (
{
layerId = "6C6EE9F0-1505-4036-BE3C-A809537EF5EF";
paths = (
{
closed = 1;
nodes = (
"1035 -429 OFFCURVE",
"1056 -430 OFFCURVE",
"1078 -430 CURVE SMOOTH",
"1288 -430 OFFCURVE",
"1393 -337.667 OFFCURVE",
"1393 -153 CURVE SMOOTH",
"1393 128 LINE",
"1384 128 LINE",
"1384 1366 LINE SMOOTH",
"1384 1446 OFFCURVE",
"1343 1490 OFFCURVE",
"1269 1490 CURVE SMOOTH",
"1194 1490 OFFCURVE",
"1153 1446 OFFCURVE",
"1153 1366 CURVE SMOOTH",
"1153 642 LINE SMOOTH",
"1153 599.333 OFFCURVE",
"1154.167 545.167 OFFCURVE",
"1156.5 479.5 CURVE SMOOTH",
"1158.833 413.833 OFFCURVE",
"1162.667 345 OFFCURVE",
"1168 273 CURVE",
"1134.667 344.333 OFFCURVE",
"1102.333 407.833 OFFCURVE",
"1071 463.5 CURVE SMOOTH",
"1039.667 519.167 OFFCURVE",
"1012.333 565.667 OFFCURVE",
"989 603 CURVE SMOOTH",
"480 1408 LINE SMOOTH",
"444 1465 OFFCURVE",
"398 1490 OFFCURVE",
"331 1490 CURVE SMOOTH",
"289 1490 LINE SMOOTH",
"209 1490 OFFCURVE",
"165 1446 OFFCURVE",
"165 1366 CURVE SMOOTH",
"165 124 LINE SMOOTH",
"165 44 OFFCURVE",
"206 0 OFFCURVE",
"281 0 CURVE SMOOTH",
"356 0 OFFCURVE",
"396 44 OFFCURVE",
"396 124 CURVE SMOOTH",
"396 795 LINE SMOOTH",
"396 833.667 OFFCURVE",
"394.333 889.667 OFFCURVE",
"391 963 CURVE SMOOTH",
"387.667 1036.333 OFFCURVE",
"383.667 1119.667 OFFCURVE",
"379 1213 CURVE",
"473 1040.5 LINE SMOOTH",
"499.667 992.167 OFFCURVE",
"524.167 948.667 OFFCURVE",
"546.5 910 CURVE SMOOTH",
"568.833 871.333 OFFCURVE",
"592.333 832.333 OFFCURVE",
"617 793 CURVE SMOOTH",
"1068 82 LINE SMOOTH",
"1104 25 OFFCURVE",
"1134 0 OFFCURVE",
"1165 0 CURVE",
"1165 -142 LINE SMOOTH",
"1165 -176 OFFCURVE",
"1155 -200.833 OFFCURVE",
"1135 -216.5 CURVE SMOOTH",
"1115 -232.167 OFFCURVE",
"1078.667 -240 OFFCURVE",
"1026 -240 CURVE SMOOTH",
"1016.667 -240 OFFCURVE",
"1006 -239.5 OFFCURVE",
"994 -238.5 CURVE SMOOTH",
"988 -238 OFFCURVE",
"982 -237 OFFCURVE",
"975 -237 CURVE SMOOTH",
"964 -235 OFFCURVE",
"957 -268 OFFCURVE",
"957 -326 CURVE SMOOTH",
"957 -387 OFFCURVE",
"977 -424 OFFCURVE",
"1017 -428 CURVE SMOOTH"
);
}
);
userData = {
assembly = "NPUSHB[ ]	/* 47 values pushed */\01225 14 2 1 3 1 1 0 1 0 1 5 0 3 76 4 1 3 3 103 77 2 1 1 1 104 77 0 0 0 5 97 0 5 5 114 5 78 36 24 17 25 19 35 6 12 28 \012CALL[ ]	/* CallFunction */";
};
width = 1549;
}
);
leftKerningGroup = B;
note = Eng;
rightKerningGroup = Ereversed;
unicode = 014A;
},
{
glyphname = Nhookleft;
lastChange = "2024-07-06 19:26:32 +0000";
layers = (
{
layerId = "6C6EE9F0-1505-4036-BE3C-A809537EF5EF";
paths = (
{
closed = 1;
nodes = (
"36 -429 OFFCURVE",
"56 -430 OFFCURVE",
"78 -430 CURVE SMOOTH",
"288 -430 OFFCURVE",
"393 -337.667 OFFCURVE",
"393 -153 CURVE SMOOTH",
"393 0 LINE",
"395 0 OFFCURVE",
"396 44 OFFCURVE",
"396 124 CURVE SMOOTH",
"396 795 LINE SMOOTH",
"396 833.667 OFFCURVE",
"394.333 889.667 OFFCURVE",
"391 963 CURVE SMOOTH",
"387.667 1036.333 OFFCURVE",
"383.667 1119.667 OFFCURVE",
"379 1213 CURVE",
"473 1040.5 LINE SMOOTH",
"499.667 992.167 OFFCURVE",
"524.167 948.667 OFFCURVE",
"546.5 910 CURVE SMOOTH",
"568.833 871.333 OFFCURVE",
"592.333 832.333 OFFCURVE",
"617 793 CURVE SMOOTH",
"1068 82 LINE SMOOTH",
"1104 25 OFFCURVE",
"1150 0 OFFCURVE",
"1217 0 CURVE SMOOTH",
"1260 0 LINE SMOOTH",
"1340 0 OFFCURVE",
"1384 44 OFFCURVE",
"1384 124 CURVE SMOOTH",
"1384 1366 LINE SMOOTH",
"1384 1446 OFFCURVE",
"1343 1490 OFFCURVE",
"1269 1490 CURVE SMOOTH",
"1194 1490 OFFCURVE",
"1153 1446 OFFCURVE",
"1153 1366 CURVE SMOOTH",
"1153 642 LINE SMOOTH",
"1153 599.333 OFFCURVE",
"1154.167 545.167 OFFCURVE",
"1156.5 479.5 CURVE SMOOTH",
"1158.833 413.833 OFFCURVE",
"1162.667 345 OFFCURVE",
"1168 273 CURVE",
"1134.667 344.333 OFFCURVE",
"1102.333 407.833 OFFCURVE",
"1071 463.5 CURVE SMOOTH",
"1039.667 519.167 OFFCURVE",
"1012.333 565.667 OFFCURVE",
"989 603 CURVE SMOOTH",
"480 1408 LINE SMOOTH",
"444 1465 OFFCURVE",
"398 1490 OFFCURVE",
"331 1490 CURVE SMOOTH",
"289 1490 LINE SMOOTH",
"209 1490 OFFCURVE",
"165 1446 OFFCURVE",
"165 1366 CURVE SMOOTH",
"165 -142 LINE SMOOTH",
"165 -176 OFFCURVE",
"155 -200.833 OFFCURVE",
"135 -216.5 CURVE SMOOTH",
"115 -232.167 OFFCURVE",
"79 -240 OFFCURVE",
"27 -240 CURVE SMOOTH",
"17 -240 OFFCURVE",
"6 -239.5 OFFCURVE",
"-6 -238.5 CURVE SMOOTH",
"-12 -238 OFFCURVE",
"-18 -237 OFFCURVE",
"-24 -237 CURVE SMOOTH",
"-35 -235 OFFCURVE",
"-42 -268 OFFCURVE",
"-42 -326 CURVE SMOOTH",
"-42 -387 OFFCURVE",
"-22 -424 OFFCURVE",
"17 -428 CURVE SMOOTH"
);
}
);
userData = {
assembly = "NPUSHB[ ]	/* 45 values pushed */\01225 13 2 3 1 1 1 0 3 0 1 4 0 3 76 2 1 1 1 103 77 0 3 3 104 77 0 0 0 4 98 0 4 4 114 4 78 44 17 24 19 35 5 12 27 \012CALL[ ]	/* CallFunction */";
};
width = 1549;
}
);
leftKerningGroup = Fhook;
note = Nhook;
rightKerningGroup = Ereversed;
unicode = 019D;
},
{
glyphname = Nlongrightleg;
lastChange = "2024-07-06 19:26:32 +0000";
layers = (
{
layerId = "6C6EE9F0-1505-4036-BE3C-A809537EF5EF";
paths = (
{
closed = 1;
nodes = (
"1156 -416 OFFCURVE",
"1198 -372 OFFCURVE",
"1198 -292 CURVE SMOOTH",
"1198 1033 LINE SMOOTH",
"1198 1137 OFFCURVE",
"1173.833 1224.5 OFFCURVE",
"1125.5 1295.5 CURVE SMOOTH",
"1077.167 1366.5 OFFCURVE",
"1013.5 1420 OFFCURVE",
"934.5 1456 CURVE SMOOTH",
"855.5 1492 OFFCURVE",
"770 1510 OFFCURVE",
"678 1510 CURVE SMOOTH",
"618.667 1510 OFFCURVE",
"562.5 1502.833 OFFCURVE",
"509.5 1488.5 CURVE SMOOTH",
"456.5 1474.167 OFFCURVE",
"407.667 1455 OFFCURVE",
"363 1431 CURVE",
"363 1461 LINE SMOOTH",
"363 1480 OFFCURVE",
"321 1490 OFFCURVE",
"245 1490 CURVE SMOOTH",
"168 1490 OFFCURVE",
"126 1446 OFFCURVE",
"126 1366 CURVE SMOOTH",
"126 124 LINE SMOOTH",
"126 44 OFFCURVE",
"168 0 OFFCURVE",
"245 0 CURVE SMOOTH",
"322 0 OFFCURVE",
"363 44 OFFCURVE",
"363 124 CURVE SMOOTH",
"363 1235 LINE",
"405.667 1261 OFFCURVE",
"451.333 1281 OFFCURVE",
"500 1295 CURVE SMOOTH",
"548.667 1309 OFFCURVE",
"599.333 1316 OFFCURVE",
"652 1316 CURVE SMOOTH",
"748.667 1316 OFFCURVE",
"823.667 1293.333 OFFCURVE",
"877 1248 CURVE SMOOTH",
"930.333 1202.667 OFFCURVE",
"957 1131 OFFCURVE",
"957 1033 CURVE SMOOTH",
"957 -292 LINE SMOOTH",
"957 -372 OFFCURVE",
"1000 -416 OFFCURVE",
"1078 -416 CURVE SMOOTH"
);
}
);
userData = {
assembly = "NPUSHB[ ]	/* 10 values pushed */\01213 1 1 3 8 1 2 1 2 76 \012MPPEM[ ]	/* MeasurePixelPerEm */\012PUSHB[ ]	/* 1 value pushed */\01225 \012LT[ ]	/* LessThan */\012IF[ ]	/* If */\012NPUSHB[ ]	/* 22 values pushed */\0120 1 1 3 97 4 1 3 3 103 77 0 2 2 104 77 0 0 0 108 0 78 \012ELSE[ ]	/* Else */\012NPUSHB[ ]	/* 26 values pushed */\0120 3 3 103 77 0 1 1 4 97 0 4 4 109 77 0 2 2 104 77 0 0 0 108 0 78 \012EIF[ ]	/* EndIf */\012PUSHB[ ]	/* 8 values pushed */\01235 17 19 35 16 5 12 27 \012CALL[ ]	/* CallFunction */";
};
width = 1320;
}
);
note = uni0220;
unicode = 0220;
},
{
glyphname = O;
lastChange = "2024-07-06 19:26:32 +0000";
layers = (
{
layerId = "6C6EE9F0-1505-4036-BE3C-A809537EF5EF";
paths = (
{
closed = 1;
nodes = (
"914.667 -20 OFFCURVE",
"1029.5 10.5 OFFCURVE",
"1130.5 71.5 CURVE SMOOTH",
"1231.5 132.5 OFFCURVE",
"1311.167 220.167 OFFCURVE",
"1369.5 334.5 CURVE SMOOTH",
"1427.833 448.833 OFFCURVE",
"1457 585.333 OFFCURVE",
"1457 744 CURVE SMOOTH",
"1457 903.333 OFFCURVE",
"1427.833 1040.167 OFFCURVE",
"1369.5 1154.5 CURVE SMOOTH",
"1311.167 1268.833 OFFCURVE",
"1231.5 1356.667 OFFCURVE",
"1130.5 1418 CURVE SMOOTH",
"1029.5 1479.333 OFFCURVE",
"914.667 1510 OFFCURVE",
"786 1510 CURVE SMOOTH",
"657.333 1510 OFFCURVE",
"542.167 1479.333 OFFCURVE",
"440.5 1418 CURVE SMOOTH",
"338.833 1356.667 OFFCURVE",
"258.833 1268.833 OFFCURVE",
"200.5 1154.5 CURVE SMOOTH",
"142.167 1040.167 OFFCURVE",
"113 903.333 OFFCURVE",
"113 744 CURVE SMOOTH",
"113 585.333 OFFCURVE",
"142.167 449 OFFCURVE",
"200.5 335 CURVE SMOOTH",
"258.833 221 OFFCURVE",
"338.833 133.333 OFFCURVE",
"440.5 72 CURVE SMOOTH",
"542.167 10.667 OFFCURVE",
"657.333 -20 OFFCURVE",
"786 -20 CURVE SMOOTH"
);
},
{
closed = 1;
nodes = (
"700.667 188 OFFCURVE",
"624.333 209.333 OFFCURVE",
"557 252 CURVE SMOOTH",
"489.667 294.667 OFFCURVE",
"436.5 357.333 OFFCURVE",
"397.5 440 CURVE SMOOTH",
"358.5 522.667 OFFCURVE",
"339 624 OFFCURVE",
"339 744 CURVE SMOOTH",
"339 864.667 OFFCURVE",
"358.5 966.5 OFFCURVE",
"397.5 1049.5 CURVE SMOOTH",
"436.5 1132.5 OFFCURVE",
"489.667 1195.333 OFFCURVE",
"557 1238 CURVE SMOOTH",
"624.333 1280.667 OFFCURVE",
"700.667 1302 OFFCURVE",
"786 1302 CURVE SMOOTH",
"870.667 1302 OFFCURVE",
"946.5 1280.667 OFFCURVE",
"1013.5 1238 CURVE SMOOTH",
"1080.5 1195.333 OFFCURVE",
"1133.5 1132.5 OFFCURVE",
"1172.5 1049.5 CURVE SMOOTH",
"1211.5 966.5 OFFCURVE",
"1231 864.667 OFFCURVE",
"1231 744 CURVE SMOOTH",
"1231 624 OFFCURVE",
"1211.5 522.667 OFFCURVE",
"1172.5 440 CURVE SMOOTH",
"1133.5 357.333 OFFCURVE",
"1080.5 294.667 OFFCURVE",
"1013.5 252 CURVE SMOOTH",
"946.5 209.333 OFFCURVE",
"870.667 188 OFFCURVE",
"786 188 CURVE SMOOTH"
);
}
);
userData = {
assembly = "NPUSHB[ ]	/* 42 values pushed */\0120 3 3 1 97 0 1 1 109 77 5 1 2 2 0 97 4 1 0 0 110 0 78 17 16 1 0 25 23 16 31 17 31 9 7 0 15 1 15 6 12 22 \012CALL[ ]	/* CallFunction */";
};
width = 1570;
}
);
leftKerningGroup = C;
note = O;
rightKerningGroup = Oopen;
unicode = 004F;
},
{
glyphname = OU;
lastChange = "2024-07-06 19:26:32 +0000";
layers = (
{
layerId = "6C6EE9F0-1505-4036-BE3C-A809537EF5EF";
paths = (
{
closed = 1;
nodes = (
"584.667 918 OFFCURVE",
"533 922.833 OFFCURVE",
"487 932.5 CURVE SMOOTH",
"441 942.167 OFFCURVE",
"404.5 961.667 OFFCURVE",
"377.5 991 CURVE SMOOTH",
"350.5 1020.333 OFFCURVE",
"337 1065 OFFCURVE",
"337 1125 CURVE SMOOTH",
"337 1180.333 OFFCURVE",
"350.333 1223.5 OFFCURVE",
"377 1254.5 CURVE SMOOTH",
"391 1271 OFFCURVE",
"410 1285 OFFCURVE",
"433 1297 CURVE SMOOTH",
"477 1319 OFFCURVE",
"501 1351 OFFCURVE",
"501 1416 CURVE SMOOTH",
"501 1476 OFFCURVE",
"451 1513 OFFCURVE",
"369 1491 CURVE SMOOTH",
"341 1484 OFFCURVE",
"315 1474 OFFCURVE",
"290 1462.5 CURVE SMOOTH",
"228 1433.5 OFFCURVE",
"179 1391 OFFCURVE",
"143 1335 CURVE SMOOTH",
"107 1279 OFFCURVE",
"89 1209 OFFCURVE",
"89 1125 CURVE SMOOTH",
"89 1045 OFFCURVE",
"106.167 979 OFFCURVE",
"140.5 927 CURVE SMOOTH",
"174.833 875 OFFCURVE",
"221.333 834.333 OFFCURVE",
"280 805 CURVE",
"220.667 767 OFFCURVE",
"174 717.833 OFFCURVE",
"140 657.5 CURVE SMOOTH",
"106 597.167 OFFCURVE",
"89 526 OFFCURVE",
"89 444 CURVE SMOOTH",
"89 342 OFFCURVE",
"113.333 256.667 OFFCURVE",
"162 188 CURVE SMOOTH",
"210.667 119.333 OFFCURVE",
"277.167 67.5 OFFCURVE",
"361.5 32.5 CURVE SMOOTH",
"445.833 -2.5 OFFCURVE",
"541.333 -20 OFFCURVE",
"648 -20 CURVE SMOOTH",
"671 -20 LINE SMOOTH",
"777.667 -20 OFFCURVE",
"873 -2.5 OFFCURVE",
"957 32.5 CURVE SMOOTH",
"1041 67.5 OFFCURVE",
"1107.333 119.667 OFFCURVE",
"1156 189 CURVE SMOOTH",
"1204.667 258.333 OFFCURVE",
"1229 344.333 OFFCURVE",
"1229 447 CURVE SMOOTH",
"1229 528.333 OFFCURVE",
"1212.167 599 OFFCURVE",
"1178.5 659 CURVE SMOOTH",
"1144.833 719 OFFCURVE",
"1098.333 767.667 OFFCURVE",
"1039 805 CURVE",
"1097.667 834.333 OFFCURVE",
"1144.333 875 OFFCURVE",
"1179 927 CURVE SMOOTH",
"1213.667 979 OFFCURVE",
"1231 1045 OFFCURVE",
"1231 1125 CURVE SMOOTH",
"1231 1208.333 OFFCURVE",
"1213.167 1278.167 OFFCURVE",
"1177.5 1334.5 CURVE SMOOTH",
"1141.833 1390.833 OFFCURVE",
"1092.833 1433.5 OFFCURVE",
"1030.5 1462.5 CURVE SMOOTH",
"998 1477 OFFCURVE",
"964 1489 OFFCURVE",
"927 1497 CURVE SMOOTH",
"859 1512 OFFCURVE",
"818 1475 OFFCURVE",
"818 1416 CURVE SMOOTH",
"818 1352 OFFCURVE",
"855 1321 OFFCURVE",
"913 1280 CURVE SMOOTH",
"924 1273 OFFCURVE",
"933 1265 OFFCURVE",
"941.5 1255.5 CURVE SMOOTH",
"969.167 1225.167 OFFCURVE",
"983 1181.667 OFFCURVE",
"983 1125 CURVE SMOOTH",
"983 1065.667 OFFCURVE",
"969.5 1021.167 OFFCURVE",
"942.5 991.5 CURVE SMOOTH",
"915.5 961.833 OFFCURVE",
"878.833 942.167 OFFCURVE",
"832.5 932.5 CURVE SMOOTH",
"786.167 922.833 OFFCURVE",
"734.333 918 OFFCURVE",
"677 918 CURVE SMOOTH",
"642 918 LINE SMOOTH"
);
},
{
closed = 1;
nodes = (
"765 715 OFFCURVE",
"840.333 692.667 OFFCURVE",
"897 648 CURVE SMOOTH",
"953.667 603.333 OFFCURVE",
"982 536.333 OFFCURVE",
"982 447 CURVE SMOOTH",
"982 355 OFFCURVE",
"953.667 287.667 OFFCURVE",
"897 245 CURVE SMOOTH",
"840.333 202.333 OFFCURVE",
"765 181 OFFCURVE",
"671 181 CURVE SMOOTH",
"648 181 LINE SMOOTH",
"554 181 OFFCURVE",
"478.667 202.333 OFFCURVE",
"422 245 CURVE SMOOTH",
"365.333 287.667 OFFCURVE",
"337 354 OFFCURVE",
"337 444 CURVE SMOOTH",
"337 534.667 OFFCURVE",
"365.333 602.5 OFFCURVE",
"422 647.5 CURVE SMOOTH",
"478.667 692.5 OFFCURVE",
"554 715 OFFCURVE",
"648 715 CURVE SMOOTH",
"671 715 LINE SMOOTH"
);
}
);
userData = {
assembly = "NPUSHB[ ]	/* 62 values pushed */\01239 8 2 0 1 31 16 2 4 0 2 76 6 1 0 7 1 4 5 0 4 105 3 1 1 1 109 77 0 5 5 2 98 0 2 2 110 2 78 48 46 2 0 55 52 46 59 48 59 38 37 25 22 10 9 0 45 2 45 8 12 22 \012CALL[ ]	/* CallFunction */";
};
width = 1319;
}
);
note = uni0222;
unicode = 0222;
},
{
glyphname = Ohorn;
lastChange = "2024-07-06 19:26:32 +0000";
layers = (
{
layerId = "6C6EE9F0-1505-4036-BE3C-A809537EF5EF";
paths = (
{
closed = 1;
nodes = (
"914.667 -20 OFFCURVE",
"1029.5 10.5 OFFCURVE",
"1130.5 71.5 CURVE SMOOTH",
"1231.5 132.5 OFFCURVE",
"1311.167 220.167 OFFCURVE",
"1369.5 334.5 CURVE SMOOTH",
"1427.833 448.833 OFFCURVE",
"1457 585.333 OFFCURVE",
"1457 744 CURVE SMOOTH",
"1457 871.333 OFFCURVE",
"1437.833 984.667 OFFCURVE",
"1399.5 1084 CURVE SMOOTH",
"1361.167 1183.333 OFFCURVE",
"1308.333 1266 OFFCURVE",
"1241 1332 CURVE",
"1270 1332 LINE SMOOTH",
"1330 1332 OFFCURVE",
"1376 1346.5 OFFCURVE",
"1408 1375.5 CURVE SMOOTH",
"1440 1404.5 OFFCURVE",
"1456 1449.667 OFFCURVE",
"1456 1511 CURVE SMOOTH",
"1456 1574 LINE SMOOTH",
"1456 1654 OFFCURVE",
"1420 1698 OFFCURVE",
"1355 1698 CURVE SMOOTH",
"1290 1698 OFFCURVE",
"1254 1654 OFFCURVE",
"1254 1574 CURVE SMOOTH",
"1254 1511 LINE SMOOTH",
"1254 1497 OFFCURVE",
"1247 1490 OFFCURVE",
"1233 1490 CURVE SMOOTH",
"1155.667 1490 OFFCURVE",
"1095.5 1491 OFFCURVE",
"1052.5 1493 CURVE SMOOTH",
"1009.5 1495 OFFCURVE",
"975.167 1497.333 OFFCURVE",
"949.5 1500 CURVE SMOOTH",
"876.5 1507 LINE SMOOTH",
"853.5 1509 OFFCURVE",
"823.333 1510 OFFCURVE",
"786 1510 CURVE SMOOTH",
"786 1510 OFFCURVE",
"786 1510 OFFCURVE",
"786 1510 CURVE SMOOTH",
"657.333 1510 OFFCURVE",
"542.167 1479.333 OFFCURVE",
"440.5 1418 CURVE SMOOTH",
"338.833 1356.667 OFFCURVE",
"258.833 1268.833 OFFCURVE",
"200.5 1154.5 CURVE SMOOTH",
"142.167 1040.167 OFFCURVE",
"113 903.333 OFFCURVE",
"113 744 CURVE SMOOTH",
"113 585.333 OFFCURVE",
"142.167 449 OFFCURVE",
"200.5 335 CURVE SMOOTH",
"258.833 221 OFFCURVE",
"338.833 133.333 OFFCURVE",
"440.5 72 CURVE SMOOTH",
"542.167 10.667 OFFCURVE",
"657.333 -20 OFFCURVE",
"786 -20 CURVE SMOOTH"
);
},
{
closed = 1;
nodes = (
"700.667 188 OFFCURVE",
"624.333 209.333 OFFCURVE",
"557 252 CURVE SMOOTH",
"489.667 294.667 OFFCURVE",
"436.5 357.333 OFFCURVE",
"397.5 440 CURVE SMOOTH",
"358.5 522.667 OFFCURVE",
"339 624 OFFCURVE",
"339 744 CURVE SMOOTH",
"339 864.667 OFFCURVE",
"358.5 966.5 OFFCURVE",
"397.5 1049.5 CURVE SMOOTH",
"436.5 1132.5 OFFCURVE",
"489.667 1195.333 OFFCURVE",
"557 1238 CURVE SMOOTH",
"624.333 1280.667 OFFCURVE",
"700.667 1302 OFFCURVE",
"786 1302 CURVE SMOOTH",
"870.667 1302 OFFCURVE",
"946.5 1280.667 OFFCURVE",
"1013.5 1238 CURVE SMOOTH",
"1080.5 1195.333 OFFCURVE",
"1133.5 1132.5 OFFCURVE",
"1172.5 1049.5 CURVE SMOOTH",
"1211.5 966.5 OFFCURVE",
"1231 864.667 OFFCURVE",
"1231 744 CURVE SMOOTH",
"1231 624 OFFCURVE",
"1211.5 522.667 OFFCURVE",
"1172.5 440 CURVE SMOOTH",
"1133.5 357.333 OFFCURVE",
"1080.5 294.667 OFFCURVE",
"1013.5 252 CURVE SMOOTH",
"946.5 209.333 OFFCURVE",
"870.667 188 OFFCURVE",
"786 188 CURVE SMOOTH"
);
}
);
userData = {
assembly = "MPPEM[ ]	/* MeasurePixelPerEm */\012PUSHB[ ]	/* 1 value pushed */\01217 \012LT[ ]	/* LessThan */\012IF[ ]	/* If */\012NPUSHB[ ]	/* 31 values pushed */\0120 3 1 4 3 87 6 1 4 4 1 97 2 1 1 1 109 77 8 1 5 5 0 97 7 1 0 0 110 0 78 \012ELSE[ ]	/* Else */\012MPPEM[ ]	/* MeasurePixelPerEm */\012PUSHB[ ]	/* 1 value pushed */\01230 \012LT[ ]	/* LessThan */\012IF[ ]	/* If */\012NPUSHB[ ]	/* 32 values pushed */\0120 3 0 4 6 3 4 105 0 6 6 1 97 2 1 1 1 109 77 8 1 5 5 0 97 7 1 0 0 110 0 78 \012ELSE[ ]	/* Else */\012NPUSHB[ ]	/* 36 values pushed */\0120 3 0 4 6 3 4 105 0 2 2 103 77 0 6 6 1 97 0 1 1 109 77 8 1 5 5 0 97 7 1 0 0 110 0 78 \012EIF[ ]	/* EndIf */\012EIF[ ]	/* EndIf */\012NPUSHB[ ]	/* 25 values pushed */\01234 33 1 0 42 40 33 48 34 48 26 23 20 19 17 14 12 7 0 32 1 32 9 12 22 \012CALL[ ]	/* CallFunction */";
};
width = 1572;
}
);
leftKerningGroup = C;
note = Ohorn;
rightKerningGroup = Ohorn;
unicode = 01A0;
},
{
glyphname = Oi;
lastChange = "2024-07-06 19:26:32 +0000";
layers = (
{
layerId = "6C6EE9F0-1505-4036-BE3C-A809537EF5EF";
paths = (
{
closed = 1;
nodes = (
"1660 1366 LINE SMOOTH",
"1660 1446 OFFCURVE",
"1624 1490 OFFCURVE",
"1558 1490 CURVE SMOOTH",
"1500 1490 OFFCURVE",
"1458 1482 OFFCURVE",
"1405 1459 CURVE SMOOTH",
"1204 1372 LINE",
"1153.333 1413.333 OFFCURVE",
"1090.167 1446.667 OFFCURVE",
"1014.5 1472 CURVE SMOOTH",
"938.833 1497.333 OFFCURVE",
"856.667 1510 OFFCURVE",
"768 1510 CURVE SMOOTH",
"632 1510 OFFCURVE",
"515.333 1482.167 OFFCURVE",
"418 1426.5 CURVE SMOOTH",
"320.667 1370.833 OFFCURVE",
"246 1290.667 OFFCURVE",
"194 1186 CURVE SMOOTH",
"142 1081.333 OFFCURVE",
"116 955.667 OFFCURVE",
"116 809 CURVE SMOOTH",
"116 681 LINE SMOOTH",
"116 536.333 OFFCURVE",
"141.333 411.667 OFFCURVE",
"192 307 CURVE SMOOTH",
"242.667 202.333 OFFCURVE",
"315.5 121.667 OFFCURVE",
"410.5 65 CURVE SMOOTH",
"505.5 8.333 OFFCURVE",
"620 -20 OFFCURVE",
"754 -20 CURVE SMOOTH",
"871.333 -20 OFFCURVE",
"976.5 -0.167 OFFCURVE",
"1069.5 39.5 CURVE SMOOTH",
"1129 65 OFFCURVE",
"1179 95 OFFCURVE",
"1219 130 CURVE SMOOTH",
"1265 172 OFFCURVE",
"1276 219 OFFCURVE",
"1276 280 CURVE SMOOTH",
"1276 1174 LINE",
"1422 1232 LINE",
"1422 -294 LINE SMOOTH",
"1422 -374 OFFCURVE",
"1464 -418 OFFCURVE",
"1541 -418 CURVE SMOOTH",
"1618 -418 OFFCURVE",
"1660 -374 OFFCURVE",
"1660 -294 CURVE SMOOTH"
);
},
{
closed = 1;
nodes = (
"364 809 LINE SMOOTH",
"364 972.333 OFFCURVE",
"397 1096.833 OFFCURVE",
"463 1182.5 CURVE SMOOTH",
"529 1268.167 OFFCURVE",
"631.333 1311 OFFCURVE",
"770 1311 CURVE SMOOTH",
"824 1311 OFFCURVE",
"875.333 1303 OFFCURVE",
"924 1287 CURVE SMOOTH",
"972.667 1271 OFFCURVE",
"1011 1248 OFFCURVE",
"1039 1218 CURVE",
"1039 269 LINE",
"978.333 207.667 OFFCURVE",
"887.333 177 OFFCURVE",
"766 177 CURVE SMOOTH",
"628.667 177 OFFCURVE",
"527.333 221.667 OFFCURVE",
"462 311 CURVE SMOOTH",
"396.667 400.333 OFFCURVE",
"364 523.667 OFFCURVE",
"364 681 CURVE SMOOTH"
);
}
);
userData = {
assembly = "MPPEM[ ]	/* MeasurePixelPerEm */\012PUSHB[ ]	/* 1 value pushed */\01225 \012LT[ ]	/* LessThan */\012IF[ ]	/* If */\012NPUSHB[ ]	/* 14 values pushed */\01220 1 5 2 29 28 5 4 3 5 4 5 2 76 \012ELSE[ ]	/* Else */\012NPUSHB[ ]	/* 14 values pushed */\01220 1 5 3 29 28 5 4 3 5 4 5 2 76 \012EIF[ ]	/* EndIf */\012MPPEM[ ]	/* MeasurePixelPerEm */\012PUSHB[ ]	/* 1 value pushed */\01225 \012LT[ ]	/* LessThan */\012IF[ ]	/* If */\012NPUSHB[ ]	/* 28 values pushed */\0120 5 5 2 97 6 3 2 2 2 109 77 0 4 4 1 97 0 1 1 110 77 0 0 0 108 0 78 \012ELSE[ ]	/* Else */\012NPUSHB[ ]	/* 32 values pushed */\0126 1 3 3 103 77 0 5 5 2 97 0 2 2 109 77 0 4 4 1 97 0 1 1 110 77 0 0 0 108 0 78 \012EIF[ ]	/* EndIf */\012NPUSHB[ ]	/* 16 values pushed */\0120 0 33 31 27 25 0 21 0 21 39 37 17 7 12 25 \012CALL[ ]	/* CallFunction */";
};
width = 1825;
}
);
note = OI;
unicode = 01A2;
},
{
glyphname = Oopen;
lastChange = "2024-07-06 19:26:32 +0000";
layers = (
{
layerId = "6C6EE9F0-1505-4036-BE3C-A809537EF5EF";
paths = (
{
closed = 1;
nodes = (
"608.667 1510 OFFCURVE",
"510.5 1488.5 OFFCURVE",
"423.5 1445.5 CURVE SMOOTH",
"336.5 1402.5 OFFCURVE",
"265.333 1343.333 OFFCURVE",
"210 1268 CURVE SMOOTH",
"182 1230 OFFCURVE",
"159 1189 OFFCURVE",
"141 1145 CURVE SMOOTH",
"108 1062 OFFCURVE",
"151 1008 OFFCURVE",
"226 1008 CURVE SMOOTH",
"298 1008 OFFCURVE",
"334 1043 OFFCURVE",
"368 1109 CURVE SMOOTH",
"392 1156 OFFCURVE",
"426 1195 OFFCURVE",
"469.5 1225.5 CURVE SMOOTH",
"541.167 1276.5 OFFCURVE",
"623.667 1302 OFFCURVE",
"717 1302 CURVE SMOOTH",
"801.667 1302 OFFCURVE",
"877.667 1280.833 OFFCURVE",
"945 1238.5 CURVE SMOOTH",
"1012.333 1196.167 OFFCURVE",
"1065.5 1133.667 OFFCURVE",
"1104.5 1051 CURVE SMOOTH",
"1143.5 968.333 OFFCURVE",
"1163 866.667 OFFCURVE",
"1163 746 CURVE SMOOTH",
"1163 626 OFFCURVE",
"1143.5 524.5 OFFCURVE",
"1104.5 441.5 CURVE SMOOTH",
"1065.5 358.5 OFFCURVE",
"1012.333 295.5 OFFCURVE",
"945 252.5 CURVE SMOOTH",
"877.667 209.5 OFFCURVE",
"801.333 188 OFFCURVE",
"716 188 CURVE SMOOTH",
"623.333 188 OFFCURVE",
"541 213.333 OFFCURVE",
"469 264 CURVE SMOOTH",
"425 295 OFFCURVE",
"391 334 OFFCURVE",
"368 381 CURVE SMOOTH",
"335 448 OFFCURVE",
"299 483 OFFCURVE",
"227 483 CURVE SMOOTH",
"219 483 LINE SMOOTH",
"148 483 OFFCURVE",
"108 428 OFFCURVE",
"141 344 CURVE SMOOTH",
"160 296 OFFCURVE",
"185 251 OFFCURVE",
"215 211.5 CURVE SMOOTH",
"272.333 136.5 OFFCURVE",
"344.333 79.167 OFFCURVE",
"431 39.5 CURVE SMOOTH",
"517.667 -0.167 OFFCURVE",
"613.333 -20 OFFCURVE",
"718 -20 CURVE SMOOTH",
"846.667 -20 OFFCURVE",
"961.667 10.667 OFFCURVE",
"1063 72 CURVE SMOOTH",
"1164.333 133.333 OFFCURVE",
"1244.167 221.167 OFFCURVE",
"1302.5 335.5 CURVE SMOOTH",
"1360.833 449.833 OFFCURVE",
"1390 586.667 OFFCURVE",
"1390 746 CURVE SMOOTH",
"1390 904.667 OFFCURVE",
"1360.833 1041 OFFCURVE",
"1302.5 1155 CURVE SMOOTH",
"1244.167 1269 OFFCURVE",
"1164.5 1356.667 OFFCURVE",
"1063.5 1418 CURVE SMOOTH",
"962.5 1479.333 OFFCURVE",
"847.333 1510 OFFCURVE",
"718 1510 CURVE SMOOTH"
);
}
);
userData = {
assembly = "NPUSHB[ ]	/* 56 values pushed */\0120 5 4 2 4 5 2 128 0 2 3 4 2 3 126 0 4 4 0 97 6 1 0 0 109 77 0 3 3 1 97 0 1 1 110 1 78 1 0 28 27 25 23 17 15 13 12 9 7 0 31 1 31 7 12 22 \012CALL[ ]	/* CallFunction */";
};
width = 1502;
}
);
leftKerningGroup = C;
note = uni0186;
rightKerningGroup = Oopen;
unicode = 0186;
},
{
glyphname = OE;
lastChange = "2024-07-06 19:26:32 +0000";
layers = (
{
layerId = "6C6EE9F0-1505-4036-BE3C-A809537EF5EF";
paths = (
{
closed = 1;
nodes = (
"1817 0 LINE SMOOTH",
"1897 0 OFFCURVE",
"1941 35 OFFCURVE",
"1941 98 CURVE SMOOTH",
"1941 161 OFFCURVE",
"1897 196 OFFCURVE",
"1817 196 CURVE SMOOTH",
"1225 196 LINE",
"1225 655 LINE",
"1760 655 LINE SMOOTH",
"1840 655 OFFCURVE",
"1884 690 OFFCURVE",
"1884 753 CURVE SMOOTH",
"1884 816 OFFCURVE",
"1840 850 OFFCURVE",
"1760 850 CURVE SMOOTH",
"1225 850 LINE",
"1225 1294 LINE",
"1810 1294 LINE SMOOTH",
"1890 1294 OFFCURVE",
"1934 1329 OFFCURVE",
"1934 1392 CURVE SMOOTH",
"1934 1455 OFFCURVE",
"1890 1490 OFFCURVE",
"1810 1490 CURVE SMOOTH",
"796 1490 LINE SMOOTH",
"660.667 1490 OFFCURVE",
"541.667 1459.167 OFFCURVE",
"439 1397.5 CURVE SMOOTH",
"336.333 1335.833 OFFCURVE",
"256.333 1249.167 OFFCURVE",
"199 1137.5 CURVE SMOOTH",
"141.667 1025.833 OFFCURVE",
"113 894.667 OFFCURVE",
"113 744 CURVE SMOOTH",
"113 594.667 OFFCURVE",
"141.667 464.167 OFFCURVE",
"199 352.5 CURVE SMOOTH",
"256.333 240.833 OFFCURVE",
"336.333 154.167 OFFCURVE",
"439 92.5 CURVE SMOOTH",
"541.667 30.833 OFFCURVE",
"660 0 OFFCURVE",
"794 0 CURVE SMOOTH"
);
},
{
closed = 1;
nodes = (
"996 200 LINE",
"797 200 LINE SMOOTH",
"705 200 OFFCURVE",
"624.5 221.667 OFFCURVE",
"555.5 265 CURVE SMOOTH",
"486.5 308.333 OFFCURVE",
"432.833 370.5 OFFCURVE",
"394.5 451.5 CURVE SMOOTH",
"356.167 532.5 OFFCURVE",
"337 630 OFFCURVE",
"337 744 CURVE SMOOTH",
"337 916.667 OFFCURVE",
"379.333 1050.833 OFFCURVE",
"464 1146.5 CURVE SMOOTH",
"548.667 1242.167 OFFCURVE",
"660.333 1290 OFFCURVE",
"799 1290 CURVE SMOOTH",
"996 1290 LINE"
);
}
);
userData = {
assembly = "NPUSHB[ ]	/* 60 values pushed */\0120 3 0 4 5 3 4 103 6 1 2 2 1 95 0 1 1 103 77 9 7 2 5 5 0 95 8 1 0 0 104 0 78 19 19 1 0 19 28 19 27 22 20 17 16 15 14 13 12 11 10 9 7 0 18 1 18 10 12 22 \012CALL[ ]	/* CallFunction */";
};
width = 2067;
}
);
leftKerningGroup = C;
note = OE;
rightKerningGroup = AE;
unicode = 0152;
},
{
glyphname = P;
lastChange = "2024-07-06 19:26:32 +0000";
layers = (
{
layerId = "6C6EE9F0-1505-4036-BE3C-A809537EF5EF";
paths = (
{
closed = 1;
nodes = (
"165 124 LINE SMOOTH",
"165 44 OFFCURVE",
"205 0 OFFCURVE",
"279 0 CURVE SMOOTH",
"353 0 OFFCURVE",
"393 44 OFFCURVE",
"393 124 CURVE SMOOTH",
"393 522 LINE",
"697 522 LINE SMOOTH",
"812.333 522 OFFCURVE",
"908.333 543.167 OFFCURVE",
"985 585.5 CURVE SMOOTH",
"1061.667 627.833 OFFCURVE",
"1119.167 685.5 OFFCURVE",
"1157.5 758.5 CURVE SMOOTH",
"1195.833 831.5 OFFCURVE",
"1215 914 OFFCURVE",
"1215 1006 CURVE SMOOTH",
"1215 1098 OFFCURVE",
"1196 1180.5 OFFCURVE",
"1158 1253.5 CURVE SMOOTH",
"1120 1326.5 OFFCURVE",
"1062.667 1384.167 OFFCURVE",
"986 1426.5 CURVE SMOOTH",
"909.333 1468.833 OFFCURVE",
"813.667 1490 OFFCURVE",
"699 1490 CURVE SMOOTH",
"289 1490 LINE SMOOTH",
"209 1490 OFFCURVE",
"165 1446 OFFCURVE",
"165 1366 CURVE SMOOTH"
);
},
{
closed = 1;
nodes = (
"393 715 LINE",
"393 1295 LINE",
"673 1295 LINE SMOOTH",
"783.667 1295 OFFCURVE",
"863.167 1267.833 OFFCURVE",
"911.5 1213.5 CURVE SMOOTH",
"959.833 1159.167 OFFCURVE",
"984 1090 OFFCURVE",
"984 1006 CURVE SMOOTH",
"984 922 OFFCURVE",
"959.833 852.5 OFFCURVE",
"911.5 797.5 CURVE SMOOTH",
"863.167 742.5 OFFCURVE",
"784.333 715 OFFCURVE",
"675 715 CURVE SMOOTH"
);
}
);
userData = {
assembly = "NPUSHB[ ]	/* 40 values pushed */\0120 3 0 1 2 3 1 103 0 4 4 0 95 0 0 0 103 77 5 1 2 2 104 2 78 0 0 21 19 15 13 0 12 0 12 38 33 6 12 24 \012CALL[ ]	/* CallFunction */";
};
width = 1314;
}
);
leftKerningGroup = B;
note = P;
rightKerningGroup = P;
unicode = 0050;
},
{
glyphname = Phook;
lastChange = "2024-07-06 19:26:32 +0000";
layers = (
{
layerId = "6C6EE9F0-1505-4036-BE3C-A809537EF5EF";
paths = (
{
closed = 1;
nodes = (
"57 1124 OFFCURVE",
"94 1098 OFFCURVE",
"162 1098 CURVE SMOOTH",
"230 1098 OFFCURVE",
"266 1121 OFFCURVE",
"266 1162 CURVE SMOOTH",
"266 1250 OFFCURVE",
"310.333 1294 OFFCURVE",
"399 1294 CURVE SMOOTH",
"481 1294 LINE",
"481 124 LINE SMOOTH",
"481 44 OFFCURVE",
"521 0 OFFCURVE",
"595 0 CURVE SMOOTH",
"669 0 OFFCURVE",
"709 44 OFFCURVE",
"709 124 CURVE SMOOTH",
"709 522 LINE",
"1013 522 LINE SMOOTH",
"1128.333 522 OFFCURVE",
"1224.333 543.167 OFFCURVE",
"1301 585.5 CURVE SMOOTH",
"1377.667 627.833 OFFCURVE",
"1435.167 685.5 OFFCURVE",
"1473.5 758.5 CURVE SMOOTH",
"1511.833 831.5 OFFCURVE",
"1531 914 OFFCURVE",
"1531 1006 CURVE SMOOTH",
"1531 1098 OFFCURVE",
"1512 1180.5 OFFCURVE",
"1474 1253.5 CURVE SMOOTH",
"1436 1326.5 OFFCURVE",
"1378.667 1384.167 OFFCURVE",
"1302 1426.5 CURVE SMOOTH",
"1225.333 1468.833 OFFCURVE",
"1129.667 1490 OFFCURVE",
"1015 1490 CURVE SMOOTH",
"401 1490 LINE SMOOTH",
"171.667 1490 OFFCURVE",
"57 1383.667 OFFCURVE",
"57 1171 CURVE SMOOTH"
);
},
{
closed = 1;
nodes = (
"709 715 LINE",
"709 1295 LINE",
"989 1295 LINE SMOOTH",
"1099.667 1295 OFFCURVE",
"1179.167 1267.833 OFFCURVE",
"1227.5 1213.5 CURVE SMOOTH",
"1275.833 1159.167 OFFCURVE",
"1300 1090 OFFCURVE",
"1300 1006 CURVE SMOOTH",
"1300 922 OFFCURVE",
"1275.833 852.5 OFFCURVE",
"1227.5 797.5 CURVE SMOOTH",
"1179.167 742.5 OFFCURVE",
"1100.333 715 OFFCURVE",
"991 715 CURVE SMOOTH"
);
}
);
userData = {
assembly = "MPPEM[ ]	/* MeasurePixelPerEm */\012PUSHB[ ]	/* 1 value pushed */\01213 \012LT[ ]	/* LessThan */\012IF[ ]	/* If */\012NPUSHB[ ]	/* 33 values pushed */\0127 1 4 3 5 3 4 114 0 5 0 1 2 5 1 103 6 1 3 3 0 95 0 0 0 103 77 0 2 2 104 2 78 \012ELSE[ ]	/* Else */\012NPUSHB[ ]	/* 34 values pushed */\0127 1 4 3 5 3 4 5 128 0 5 0 1 2 5 1 103 6 1 3 3 0 95 0 0 0 103 77 0 2 2 104 2 78 \012EIF[ ]	/* EndIf */\012NPUSHB[ ]	/* 17 values pushed */\0120 0 29 27 23 21 0 20 0 20 33 17 38 50 8 12 26 \012CALL[ ]	/* CallFunction */";
};
width = 1630;
}
);
leftKerningGroup = B;
note = uni01A4;
rightKerningGroup = P;
unicode = 01A4;
},
{
glyphname = Thorn;
lastChange = "2024-07-06 19:26:32 +0000";
layers = (
{
layerId = "6C6EE9F0-1505-4036-BE3C-A809537EF5EF";
paths = (
{
closed = 1;
nodes = (
"196 1490 OFFCURVE",
"155 1446 OFFCURVE",
"155 1366 CURVE SMOOTH",
"155 124 LINE SMOOTH",
"155 44 OFFCURVE",
"196 0 OFFCURVE",
"271 0 CURVE SMOOTH",
"346 0 OFFCURVE",
"386 44 OFFCURVE",
"386 124 CURVE SMOOTH",
"386 319 LINE",
"649 319 LINE SMOOTH",
"759 319 OFFCURVE",
"852.333 338.5 OFFCURVE",
"929 377.5 CURVE SMOOTH",
"1005.667 416.5 OFFCURVE",
"1063.667 469 OFFCURVE",
"1103 535 CURVE SMOOTH",
"1142.333 601 OFFCURVE",
"1162 675 OFFCURVE",
"1162 757 CURVE SMOOTH",
"1162 838.333 OFFCURVE",
"1142.333 912 OFFCURVE",
"1103 978 CURVE SMOOTH",
"1063.667 1044 OFFCURVE",
"1005.667 1096.5 OFFCURVE",
"929 1135.5 CURVE SMOOTH",
"852.333 1174.5 OFFCURVE",
"759 1194 OFFCURVE",
"649 1194 CURVE SMOOTH",
"386 1195 LINE",
"386 1366 LINE SMOOTH",
"386 1446 OFFCURVE",
"346 1490 OFFCURVE",
"271 1490 CURVE SMOOTH"
);
},
{
closed = 1;
nodes = (
"386 509 LINE",
"386 1004 LINE",
"649 1004 LINE SMOOTH",
"747 1004 OFFCURVE",
"820.833 980.833 OFFCURVE",
"870.5 934.5 CURVE SMOOTH",
"920.167 888.167 OFFCURVE",
"945 827.667 OFFCURVE",
"945 753 CURVE SMOOTH",
"945 679 OFFCURVE",
"920.167 619.833 OFFCURVE",
"870.5 575.5 CURVE SMOOTH",
"820.833 531.167 OFFCURVE",
"747 509 OFFCURVE",
"649 509 CURVE SMOOTH"
);
}
);
userData = {
assembly = "NPUSHB[ ]	/* 36 values pushed */\0120 1 0 5 4 1 5 103 0 4 0 2 3 4 2 103 0 0 0 103 77 0 3 3 104 3 78 36 33 17 38 33 16 6 12 28 \012CALL[ ]	/* CallFunction */";
};
width = 1325;
}
);
leftKerningGroup = B;
note = Thorn;
unicode = 00DE;
},
{
glyphname = Q;
lastChange = "2024-07-06 19:26:32 +0000";
layers = (
{
layerId = "6C6EE9F0-1505-4036-BE3C-A809537EF5EF";
paths = (
{
closed = 1;
nodes = (
"881.333 -20 OFFCURVE",
"970 -2.667 OFFCURVE",
"1052 32 CURVE",
"1122 -60 LINE SMOOTH",
"1162 -112 OFFCURVE",
"1207 -135 OFFCURVE",
"1273 -135 CURVE SMOOTH",
"1293 -135 LINE SMOOTH",
"1355 -135 OFFCURVE",
"1354 -67 OFFCURVE",
"1291 16 CURVE SMOOTH",
"1207 126 LINE",
"1284.333 191.333 OFFCURVE",
"1345.333 276.167 OFFCURVE",
"1390 380.5 CURVE SMOOTH",
"1434.667 484.833 OFFCURVE",
"1457 606 OFFCURVE",
"1457 744 CURVE SMOOTH",
"1457 903.333 OFFCURVE",
"1427.833 1040.167 OFFCURVE",
"1369.5 1154.5 CURVE SMOOTH",
"1311.167 1268.833 OFFCURVE",
"1231.5 1356.667 OFFCURVE",
"1130.5 1418 CURVE SMOOTH",
"1029.5 1479.333 OFFCURVE",
"914.667 1510 OFFCURVE",
"786 1510 CURVE SMOOTH",
"657.333 1510 OFFCURVE",
"542.167 1479.333 OFFCURVE",
"440.5 1418 CURVE SMOOTH",
"338.833 1356.667 OFFCURVE",
"258.833 1268.833 OFFCURVE",
"200.5 1154.5 CURVE SMOOTH",
"142.167 1040.167 OFFCURVE",
"113 903.333 OFFCURVE",
"113 744 CURVE SMOOTH",
"113 585.333 OFFCURVE",
"142.167 449 OFFCURVE",
"200.5 335 CURVE SMOOTH",
"258.833 221 OFFCURVE",
"338.833 133.333 OFFCURVE",
"440.5 72 CURVE SMOOTH",
"542.167 10.667 OFFCURVE",
"657.333 -20 OFFCURVE",
"786 -20 CURVE SMOOTH"
);
},
{
closed = 1;
nodes = (
"769 481 OFFCURVE",
"765 413 OFFCURVE",
"828 330 CURVE SMOOTH",
"921 208 LINE",
"878.333 194.667 OFFCURVE",
"833.333 188 OFFCURVE",
"786 188 CURVE SMOOTH",
"700.667 188 OFFCURVE",
"624.333 209.333 OFFCURVE",
"557 252 CURVE SMOOTH",
"489.667 294.667 OFFCURVE",
"436.5 357.333 OFFCURVE",
"397.5 440 CURVE SMOOTH",
"358.5 522.667 OFFCURVE",
"339 624 OFFCURVE",
"339 744 CURVE SMOOTH",
"339 864.667 OFFCURVE",
"358.5 966.5 OFFCURVE",
"397.5 1049.5 CURVE SMOOTH",
"436.5 1132.5 OFFCURVE",
"489.667 1195.333 OFFCURVE",
"557 1238 CURVE SMOOTH",
"624.333 1280.667 OFFCURVE",
"700.667 1302 OFFCURVE",
"786 1302 CURVE SMOOTH",
"870.667 1302 OFFCURVE",
"946.5 1280.667 OFFCURVE",
"1013.5 1238 CURVE SMOOTH",
"1080.5 1195.333 OFFCURVE",
"1133.5 1132.5 OFFCURVE",
"1172.5 1049.5 CURVE SMOOTH",
"1211.5 966.5 OFFCURVE",
"1231 864.667 OFFCURVE",
"1231 744 CURVE SMOOTH",
"1231 642.667 OFFCURVE",
"1216.833 554.667 OFFCURVE",
"1188.5 480 CURVE SMOOTH",
"1160.167 405.333 OFFCURVE",
"1121.667 344.667 OFFCURVE",
"1073 298 CURVE",
"989 407 LINE SMOOTH",
"949 460 OFFCURVE",
"904 481 OFFCURVE",
"838 481 CURVE SMOOTH"
);
}
);
userData = {
assembly = "NPUSHB[ ]	/* 66 values pushed */\01239 22 2 5 3 18 15 2 0 5 2 76 0 3 4 5 4 3 5 128 0 2 0 2 134 0 4 4 1 97 0 1 1 109 77 0 5 5 0 98 6 1 0 0 110 0 78 1 0 38 36 30 28 21 20 17 16 9 7 0 19 1 19 7 12 22 \012CALL[ ]	/* CallFunction */";
};
width = 1574;
}
);
leftKerningGroup = C;
note = Q;
rightKerningGroup = Oopen;
unicode = 0051;
},
{
glyphname = Q_rthook;
lastChange = "2024-07-06 19:26:32 +0000";
layers = (
{
layerId = "6C6EE9F0-1505-4036-BE3C-A809537EF5EF";
paths = (
{
closed = 1;
nodes = (
"1407 1366 LINE SMOOTH",
"1407 1446 OFFCURVE",
"1368 1490 OFFCURVE",
"1297 1490 CURVE SMOOTH",
"1226 1490 OFFCURVE",
"1187 1446 OFFCURVE",
"1187 1366 CURVE SMOOTH",
"1187 1264 LINE",
"1176 1264 LINE",
"1139.333 1338.667 OFFCURVE",
"1083.167 1398.333 OFFCURVE",
"1007.5 1443 CURVE SMOOTH",
"931.833 1487.667 OFFCURVE",
"843.333 1510 OFFCURVE",
"742 1510 CURVE SMOOTH",
"618.667 1510 OFFCURVE",
"509.667 1477 OFFCURVE",
"415 1411 CURVE SMOOTH",
"320.333 1345 OFFCURVE",
"246.333 1254.667 OFFCURVE",
"193 1140 CURVE SMOOTH",
"139.667 1025.333 OFFCURVE",
"113 895 OFFCURVE",
"113 749 CURVE SMOOTH",
"113 599.667 OFFCURVE",
"139.667 466.833 OFFCURVE",
"193 350.5 CURVE SMOOTH",
"246.333 234.167 OFFCURVE",
"320.333 142.833 OFFCURVE",
"415 76.5 CURVE SMOOTH",
"509.667 10.167 OFFCURVE",
"618.667 -23 OFFCURVE",
"742 -23 CURVE SMOOTH",
"842 -23 OFFCURVE",
"929.833 -0.333 OFFCURVE",
"1005.5 45 CURVE SMOOTH",
"1081.167 90.333 OFFCURVE",
"1138 152.333 OFFCURVE",
"1176 231 CURVE",
"1187 231 LINE",
"1187 -153 LINE SMOOTH",
"1187 -337.667 OFFCURVE",
"1291.667 -430 OFFCURVE",
"1501 -430 CURVE SMOOTH",
"1524 -430 OFFCURVE",
"1544 -429 OFFCURVE",
"1563 -428 CURVE SMOOTH",
"1603 -424 OFFCURVE",
"1623 -389 OFFCURVE",
"1623 -332 CURVE SMOOTH",
"1623 -277 OFFCURVE",
"1554 -251 OFFCURVE",
"1554 -251 CURVE SMOOTH",
"1501.333 -251 OFFCURVE",
"1463.667 -243.333 OFFCURVE",
"1441 -228 CURVE SMOOTH",
"1418.333 -212.667 OFFCURVE",
"1407 -187.667 OFFCURVE",
"1407 -153 CURVE SMOOTH"
);
},
{
closed = 1;
nodes = (
"680.667 188 OFFCURVE",
"607.333 210.5 OFFCURVE",
"544 255.5 CURVE SMOOTH",
"480.667 300.5 OFFCURVE",
"431.333 364.833 OFFCURVE",
"396 448.5 CURVE SMOOTH",
"360.667 532.167 OFFCURVE",
"343 631.667 OFFCURVE",
"343 747 CURVE SMOOTH",
"343 857 OFFCURVE",
"360.167 954 OFFCURVE",
"394.5 1038 CURVE SMOOTH",
"428.833 1122 OFFCURVE",
"477.833 1187.667 OFFCURVE",
"541.5 1235 CURVE SMOOTH",
"605.167 1282.333 OFFCURVE",
"680 1306 OFFCURVE",
"766 1306 CURVE SMOOTH",
"861.333 1306 OFFCURVE",
"940.333 1281.333 OFFCURVE",
"1003 1232 CURVE SMOOTH",
"1065.667 1182.667 OFFCURVE",
"1112.333 1115.833 OFFCURVE",
"1143 1031.5 CURVE SMOOTH",
"1173.667 947.167 OFFCURVE",
"1189 852.333 OFFCURVE",
"1189 747 CURVE SMOOTH",
"1189 640.333 OFFCURVE",
"1174.5 544.833 OFFCURVE",
"1145.5 460.5 CURVE SMOOTH",
"1116.5 376.167 OFFCURVE",
"1070.833 309.667 OFFCURVE",
"1008.5 261 CURVE SMOOTH",
"946.167 212.333 OFFCURVE",
"864.667 188 OFFCURVE",
"764 188 CURVE SMOOTH"
);
}
);
userData = {
assembly = "NPUSHB[ ]	/* 15 values pushed */\01227 12 2 5 6 6 1 0 2 7 1 1 0 3 76 \012MPPEM[ ]	/* MeasurePixelPerEm */\012PUSHB[ ]	/* 1 value pushed */\01225 \012LT[ ]	/* LessThan */\012IF[ ]	/* If */\012NPUSHB[ ]	/* 34 values pushed */\0120 6 6 3 97 7 4 2 3 3 109 77 8 1 5 5 2 97 0 2 2 113 77 0 0 0 1 98 0 1 1 114 1 78 \012ELSE[ ]	/* Else */\012NPUSHB[ ]	/* 38 values pushed */\0127 1 4 4 103 77 0 6 6 3 97 0 3 3 109 77 8 1 5 5 2 97 0 2 2 113 77 0 0 0 1 98 0 1 1 114 1 78 \012EIF[ ]	/* EndIf */\012NPUSHB[ ]	/* 21 values pushed */\01231 30 0 0 39 37 30 45 31 45 0 29 0 29 38 37 35 35 9 12 26 \012CALL[ ]	/* CallFunction */";
};
width = 1572;
}
);
leftKerningGroup = C;
note = Q_rthook;
rightKerningGroup = Q_rthook;
},
{
glyphname = R;
lastChange = "2024-07-06 19:26:32 +0000";
layers = (
{
layerId = "6C6EE9F0-1505-4036-BE3C-A809537EF5EF";
paths = (
{
closed = 1;
nodes = (
"165 124 LINE SMOOTH",
"165 44 OFFCURVE",
"205 0 OFFCURVE",
"279 0 CURVE SMOOTH",
"353 0 OFFCURVE",
"393 44 OFFCURVE",
"393 124 CURVE SMOOTH",
"393 563 LINE",
"697 563 LINE",
"710 563 LINE",
"965 88 LINE SMOOTH",
"997 28 OFFCURVE",
"1043 0 OFFCURVE",
"1112 0 CURVE SMOOTH",
"1142 0 LINE SMOOTH",
"1217 0 OFFCURVE",
"1237 62 OFFCURVE",
"1190 148 CURVE SMOOTH",
"943 602 LINE",
"1033.667 636 OFFCURVE",
"1101.667 689.5 OFFCURVE",
"1147 762.5 CURVE SMOOTH",
"1192.333 835.5 OFFCURVE",
"1215 922 OFFCURVE",
"1215 1022 CURVE SMOOTH",
"1215 1113.333 OFFCURVE",
"1196 1194.167 OFFCURVE",
"1158 1264.5 CURVE SMOOTH",
"1120 1334.833 OFFCURVE",
"1062.667 1390 OFFCURVE",
"986 1430 CURVE SMOOTH",
"909.333 1470 OFFCURVE",
"813.667 1490 OFFCURVE",
"699 1490 CURVE SMOOTH",
"289 1490 LINE SMOOTH",
"209 1490 OFFCURVE",
"165 1446 OFFCURVE",
"165 1366 CURVE SMOOTH"
);
},
{
closed = 1;
nodes = (
"393 758 LINE",
"393 1295 LINE",
"673 1295 LINE SMOOTH",
"783 1295 OFFCURVE",
"862.333 1270.5 OFFCURVE",
"911 1221.5 CURVE SMOOTH",
"959.667 1172.5 OFFCURVE",
"984 1106 OFFCURVE",
"984 1022 CURVE SMOOTH",
"984 938.667 OFFCURVE",
"959.833 873.833 OFFCURVE",
"911.5 827.5 CURVE SMOOTH",
"863.167 781.167 OFFCURVE",
"784.333 758 OFFCURVE",
"675 758 CURVE SMOOTH"
);
}
);
userData = {
assembly = "NPUSHB[ ]	/* 48 values pushed */\0129 1 2 4 1 76 0 4 0 2 1 4 2 103 0 5 5 0 95 0 0 0 103 77 6 3 2 1 1 104 1 78 0 0 25 23 19 17 0 16 0 16 49 23 33 7 12 25 \012CALL[ ]	/* CallFunction */";
};
width = 1327;
}
);
leftKerningGroup = B;
note = R;
rightKerningGroup = G.1;
unicode = 0052;
},
{
glyphname = Rstroke;
lastChange = "2024-07-06 19:26:32 +0000";
layers = (
{
layerId = "6C6EE9F0-1505-4036-BE3C-A809537EF5EF";
paths = (
{
closed = 1;
nodes = (
"188 124 LINE SMOOTH",
"188 44 OFFCURVE",
"228 0 OFFCURVE",
"302 0 CURVE SMOOTH",
"376 0 OFFCURVE",
"416 44 OFFCURVE",
"416 124 CURVE SMOOTH",
"416 563 LINE",
"720 563 LINE",
"733 563 LINE",
"988 88 LINE SMOOTH",
"1020 28 OFFCURVE",
"1066 0 OFFCURVE",
"1135 0 CURVE SMOOTH",
"1165 0 LINE SMOOTH",
"1240 0 OFFCURVE",
"1260 62 OFFCURVE",
"1213 148 CURVE SMOOTH",
"966 602 LINE",
"1056.667 636 OFFCURVE",
"1124.667 689.5 OFFCURVE",
"1170 762.5 CURVE SMOOTH",
"1215.333 835.5 OFFCURVE",
"1238 922 OFFCURVE",
"1238 1022 CURVE SMOOTH",
"1238 1113.333 OFFCURVE",
"1218.833 1194.167 OFFCURVE",
"1180.5 1264.5 CURVE SMOOTH",
"1142.167 1334.833 OFFCURVE",
"1084.833 1390 OFFCURVE",
"1008.5 1430 CURVE SMOOTH",
"932.167 1470 OFFCURVE",
"836.333 1490 OFFCURVE",
"721 1490 CURVE SMOOTH",
"312 1490 LINE SMOOTH",
"232 1490 OFFCURVE",
"188 1446 OFFCURVE",
"188 1366 CURVE SMOOTH",
"188 756 LINE",
"105 756 LINE SMOOTH",
"51 756 OFFCURVE",
"22 723 OFFCURVE",
"22 664 CURVE SMOOTH",
"22 605 OFFCURVE",
"66 572 OFFCURVE",
"146 572 CURVE SMOOTH",
"188 572 LINE"
);
},
{
closed = 1;
nodes = (
"416 758 LINE",
"416 1295 LINE",
"696 1295 LINE SMOOTH",
"806 1295 OFFCURVE",
"885.333 1270.5 OFFCURVE",
"934 1221.5 CURVE SMOOTH",
"982.667 1172.5 OFFCURVE",
"1007 1106 OFFCURVE",
"1007 1022 CURVE SMOOTH",
"1007 938.667 OFFCURVE",
"982.667 873.833 OFFCURVE",
"934 827.5 CURVE SMOOTH",
"885.333 781.167 OFFCURVE",
"806.333 758 OFFCURVE",
"697 758 CURVE SMOOTH"
);
}
);
userData = {
assembly = "NPUSHB[ ]	/* 52 values pushed */\01213 1 0 1 1 76 6 1 1 4 1 0 3 1 0 103 0 7 7 2 95 0 2 2 103 77 8 5 2 3 3 104 3 78 0 0 29 27 23 21 0 20 0 20 49 23 33 17 17 9 12 27 \012CALL[ ]	/* CallFunction */";
};
width = 1343;
}
);
leftKerningGroup = B;
note = uni024C;
rightKerningGroup = G.1;
unicode = 024C;
},
{
glyphname = S;
lastChange = "2024-07-06 19:26:32 +0000";
layers = (
{
layerId = "6C6EE9F0-1505-4036-BE3C-A809537EF5EF";
paths = (
{
closed = 1;
nodes = (
"781.667 -25 OFFCURVE",
"881.167 -6.167 OFFCURVE",
"963.5 31.5 CURVE SMOOTH",
"1045.833 69.167 OFFCURVE",
"1108.667 121 OFFCURVE",
"1152 187 CURVE SMOOTH",
"1195.333 253 OFFCURVE",
"1217 328 OFFCURVE",
"1217 412 CURVE SMOOTH",
"1217 479.333 OFFCURVE",
"1203.833 536.833 OFFCURVE",
"1177.5 584.5 CURVE SMOOTH",
"1151.167 632.167 OFFCURVE",
"1116.667 672.167 OFFCURVE",
"1074 704.5 CURVE SMOOTH",
"1031.333 736.833 OFFCURVE",
"984.833 763.167 OFFCURVE",
"934.5 783.5 CURVE SMOOTH",
"884.167 803.833 OFFCURVE",
"835.333 820 OFFCURVE",
"788 832 CURVE SMOOTH",
"643 870 LINE SMOOTH",
"605 880 OFFCURVE",
"565.167 893.5 OFFCURVE",
"523.5 910.5 CURVE SMOOTH",
"481.833 927.5 OFFCURVE",
"446.667 950.5 OFFCURVE",
"418 979.5 CURVE SMOOTH",
"389.333 1008.5 OFFCURVE",
"375 1046.667 OFFCURVE",
"375 1094 CURVE SMOOTH",
"375 1157.333 OFFCURVE",
"401.667 1209.5 OFFCURVE",
"455 1250.5 CURVE SMOOTH",
"508.333 1291.5 OFFCURVE",
"580 1312 OFFCURVE",
"670 1312 CURVE SMOOTH",
"754.667 1312 OFFCURVE",
"824.833 1293.333 OFFCURVE",
"880.5 1256 CURVE SMOOTH",
"908 1237 OFFCURVE",
"930 1215 OFFCURVE",
"946 1188 CURVE SMOOTH",
"979 1130 OFFCURVE",
"1009 1098 OFFCURVE",
"1081 1098 CURVE SMOOTH",
"1086 1098 LINE SMOOTH",
"1155 1098 OFFCURVE",
"1202 1150 OFFCURVE",
"1170 1232 CURVE SMOOTH",
"1159 1259 OFFCURVE",
"1145 1285 OFFCURVE",
"1127.5 1309.5 CURVE SMOOTH",
"1083.167 1371.833 OFFCURVE",
"1022.167 1420.833 OFFCURVE",
"944.5 1456.5 CURVE SMOOTH",
"866.833 1492.167 OFFCURVE",
"777 1510 OFFCURVE",
"675 1510 CURVE SMOOTH",
"575 1510 OFFCURVE",
"485.167 1492.167 OFFCURVE",
"405.5 1456.5 CURVE SMOOTH",
"325.833 1420.833 OFFCURVE",
"262.833 1370.833 OFFCURVE",
"216.5 1306.5 CURVE SMOOTH",
"170.167 1242.167 OFFCURVE",
"147 1167 OFFCURVE",
"147 1081 CURVE SMOOTH",
"147 979 OFFCURVE",
"181.167 896 OFFCURVE",
"249.5 832 CURVE SMOOTH",
"317.833 768 OFFCURVE",
"413 719.667 OFFCURVE",
"535 687 CURVE SMOOTH",
"709 639 LINE SMOOTH",
"789 617.667 OFFCURVE",
"856.167 591.167 OFFCURVE",
"910.5 559.5 CURVE SMOOTH",
"964.833 527.833 OFFCURVE",
"992 479.667 OFFCURVE",
"992 415 CURVE SMOOTH",
"992 343 OFFCURVE",
"961 285 OFFCURVE",
"899 241 CURVE SMOOTH",
"837 197 OFFCURVE",
"758.667 175 OFFCURVE",
"664 175 CURVE SMOOTH",
"578 175 OFFCURVE",
"503.333 194.5 OFFCURVE",
"440 233.5 CURVE SMOOTH",
"407 254 OFFCURVE",
"382 279 OFFCURVE",
"365 311 CURVE SMOOTH",
"329 377 OFFCURVE",
"300 414 OFFCURVE",
"227 414 CURVE SMOOTH",
"221 414 LINE SMOOTH",
"149 414 OFFCURVE",
"103 362 OFFCURVE",
"131 280 CURVE SMOOTH",
"156 206 OFFCURVE",
"201 143 OFFCURVE",
"265 92.5 CURVE SMOOTH",
"364.333 14.167 OFFCURVE",
"497.667 -25 OFFCURVE",
"665 -25 CURVE SMOOTH"
);
}
);
userData = {
assembly = "NPUSHB[ ]	/* 56 values pushed */\0120 4 5 1 5 4 1 128 0 1 2 5 1 2 126 0 5 5 3 97 0 3 3 109 77 0 2 2 0 97 6 1 0 0 113 0 78 1 0 30 28 26 25 22 20 8 6 4 3 0 45 1 45 7 12 22 \012CALL[ ]	/* CallFunction */";
};
width = 1323;
}
);
leftKerningGroup = S;
note = S;
rightKerningGroup = S;
unicode = 0053;
},
{
glyphname = Germandbls;
lastChange = "2024-07-06 19:26:32 +0000";
layers = (
{
layerId = "6C6EE9F0-1505-4036-BE3C-A809537EF5EF";
paths = (
{
closed = 1;
nodes = (
"165 124 LINE SMOOTH",
"165 44 OFFCURVE",
"205 0 OFFCURVE",
"279 0 CURVE SMOOTH",
"353 0 OFFCURVE",
"393 44 OFFCURVE",
"393 124 CURVE SMOOTH",
"393 986 LINE SMOOTH",
"393 1044.667 OFFCURVE",
"400.833 1099.167 OFFCURVE",
"416.5 1149.5 CURVE SMOOTH",
"432.167 1199.833 OFFCURVE",
"459 1240.5 OFFCURVE",
"497 1271.5 CURVE SMOOTH",
"535 1302.5 OFFCURVE",
"587.333 1318 OFFCURVE",
"654 1318 CURVE SMOOTH",
"712.667 1318 OFFCURVE",
"763.667 1308.333 OFFCURVE",
"807 1289 CURVE SMOOTH",
"850.333 1269.667 OFFCURVE",
"888 1248.333 OFFCURVE",
"920 1225 CURVE",
"686 923 LINE SMOOTH",
"648 875 OFFCURVE",
"633 831 OFFCURVE",
"633 771 CURVE SMOOTH",
"633 717 OFFCURVE",
"677 687 OFFCURVE",
"757 687 CURVE SMOOTH",
"775 687 LINE SMOOTH",
"796.333 687 OFFCURVE",
"824 684.5 OFFCURVE",
"858 679.5 CURVE SMOOTH",
"892 674.5 OFFCURVE",
"926.167 663.667 OFFCURVE",
"960.5 647 CURVE SMOOTH",
"994.833 630.333 OFFCURVE",
"1023.833 604.5 OFFCURVE",
"1047.5 569.5 CURVE SMOOTH",
"1071.167 534.5 OFFCURVE",
"1083 486.667 OFFCURVE",
"1083 426 CURVE SMOOTH",
"1083 347.333 OFFCURVE",
"1058.667 285.333 OFFCURVE",
"1010 240 CURVE SMOOTH",
"961.333 194.667 OFFCURVE",
"892.667 172 OFFCURVE",
"804 172 CURVE SMOOTH",
"760.667 172 OFFCURVE",
"720.167 177 OFFCURVE",
"682.5 187 CURVE SMOOTH",
"665 192 OFFCURVE",
"647 197 OFFCURVE",
"631 202 CURVE SMOOTH",
"598 213 OFFCURVE",
"569 187 OFFCURVE",
"547 127 CURVE SMOOTH",
"525 68 OFFCURVE",
"555 14 OFFCURVE",
"635 -2 CURVE SMOOTH",
"644 -4 OFFCURVE",
"652 -6 OFFCURVE",
"660.5 -7 CURVE SMOOTH",
"711.5 -15.667 OFFCURVE",
"761.333 -20 OFFCURVE",
"810 -20 CURVE SMOOTH",
"910 -20 OFFCURVE",
"998.333 -2.667 OFFCURVE",
"1075 32 CURVE SMOOTH",
"1151.667 66.667 OFFCURVE",
"1212 117 OFFCURVE",
"1256 183 CURVE SMOOTH",
"1300 249 OFFCURVE",
"1322 329 OFFCURVE",
"1322 423 CURVE SMOOTH",
"1322 547 OFFCURVE",
"1282.5 647 OFFCURVE",
"1203.5 723 CURVE SMOOTH",
"1124.5 799 OFFCURVE",
"1015 843 OFFCURVE",
"875 855 CURVE",
"1130 1176 LINE SMOOTH",
"1180 1240 OFFCURVE",
"1175 1304 OFFCURVE",
"1109 1350 CURVE SMOOTH",
"1058 1385 OFFCURVE",
"1005 1416 OFFCURVE",
"949 1442.5 CURVE SMOOTH",
"855 1487.5 OFFCURVE",
"754.667 1510 OFFCURVE",
"648 1510 CURVE SMOOTH",
"492.667 1510 OFFCURVE",
"373.333 1465 OFFCURVE",
"290 1375 CURVE SMOOTH",
"206.667 1285 OFFCURVE",
"165 1155.333 OFFCURVE",
"165 986 CURVE SMOOTH"
);
}
);
userData = {
assembly = "MPPEM[ ]	/* MeasurePixelPerEm */\012PUSHB[ ]	/* 1 value pushed */\01225 \012LT[ ]	/* LessThan */\012IF[ ]	/* If */\012NPUSHB[ ]	/* 17 values pushed */\01233 32 8 7 4 3 4 19 1 2 3 18 1 1 2 3 76 \012ELSE[ ]	/* Else */\012NPUSHB[ ]	/* 17 values pushed */\01233 32 8 7 4 3 4 19 1 2 3 18 1 5 2 3 76 \012EIF[ ]	/* EndIf */\012MPPEM[ ]	/* MeasurePixelPerEm */\012PUSHB[ ]	/* 1 value pushed */\01225 \012LT[ ]	/* LessThan */\012IF[ ]	/* If */\012NPUSHB[ ]	/* 31 values pushed */\0120 3 4 2 4 3 2 128 0 4 4 0 97 0 0 0 109 77 0 2 2 1 97 6 5 2 1 1 110 1 78 \012ELSE[ ]	/* Else */\012NPUSHB[ ]	/* 35 values pushed */\0120 3 4 2 4 3 2 128 0 4 4 0 97 0 0 0 109 77 6 1 5 5 104 77 0 2 2 1 97 0 1 1 110 1 78 \012EIF[ ]	/* EndIf */\012NPUSHB[ ]	/* 14 values pushed */\0120 0 0 41 0 41 36 38 37 41 35 7 12 27 \012CALL[ ]	/* CallFunction */";
};
width = 1427;
}
);
leftKerningGroup = B;
note = uni1E9E;
rightKerningGroup = S;
unicode = 1E9E;
},
{
glyphname = Schwa;
lastChange = "2024-07-06 19:26:32 +0000";
layers = (
{
layerId = "6C6EE9F0-1505-4036-BE3C-A809537EF5EF";
paths = (
{
closed = 1;
nodes = (
"888.667 -20 OFFCURVE",
"1005.833 11 OFFCURVE",
"1105.5 73 CURVE SMOOTH",
"1205.167 135 OFFCURVE",
"1282.167 223 OFFCURVE",
"1336.5 337 CURVE SMOOTH",
"1390.833 451 OFFCURVE",
"1418 586.667 OFFCURVE",
"1418 744 CURVE SMOOTH",
"1418 902.667 OFFCURVE",
"1389.167 1039.167 OFFCURVE",
"1331.5 1153.5 CURVE SMOOTH",
"1273.833 1267.833 OFFCURVE",
"1194.667 1355.833 OFFCURVE",
"1094 1417.5 CURVE SMOOTH",
"993.333 1479.167 OFFCURVE",
"878.333 1510 OFFCURVE",
"749 1510 CURVE SMOOTH",
"642.333 1510 OFFCURVE",
"545.333 1489.167 OFFCURVE",
"458 1447.5 CURVE SMOOTH",
"370.667 1405.833 OFFCURVE",
"298.333 1348.167 OFFCURVE",
"241 1274.5 CURVE SMOOTH",
"212 1237 OFFCURVE",
"188 1197 OFFCURVE",
"170 1154 CURVE SMOOTH",
"135 1073 OFFCURVE",
"181 1019 OFFCURVE",
"260 1019 CURVE SMOOTH",
"331 1019 OFFCURVE",
"370 1051 OFFCURVE",
"405 1114 CURVE SMOOTH",
"432 1159 OFFCURVE",
"465 1197 OFFCURVE",
"505 1227 CURVE SMOOTH",
"571 1277 OFFCURVE",
"652.333 1302 OFFCURVE",
"749 1302 CURVE SMOOTH",
"831.667 1302 OFFCURVE",
"906 1281.333 OFFCURVE",
"972 1240 CURVE SMOOTH",
"1038 1198.667 OFFCURVE",
"1090.5 1138 OFFCURVE",
"1129.5 1058 CURVE SMOOTH",
"1168.5 978 OFFCURVE",
"1189.333 880 OFFCURVE",
"1192 764 CURVE",
"242 764 LINE SMOOTH",
"162 764 OFFCURVE",
"118 720 OFFCURVE",
"118 640 CURVE SMOOTH",
"118 593 LINE SMOOTH",
"118 467.667 OFFCURVE",
"146 359.167 OFFCURVE",
"202 267.5 CURVE SMOOTH",
"258 175.833 OFFCURVE",
"333.833 105 OFFCURVE",
"429.5 55 CURVE SMOOTH",
"525.167 5 OFFCURVE",
"633.333 -20 OFFCURVE",
"754 -20 CURVE SMOOTH"
);
},
{
closed = 1;
nodes = (
"1153 450 OFFCURVE",
"1103.667 353.833 OFFCURVE",
"1029 287.5 CURVE SMOOTH",
"954.333 221.167 OFFCURVE",
"862.333 188 OFFCURVE",
"753 188 CURVE SMOOTH",
"674.333 188 OFFCURVE",
"604.333 203.833 OFFCURVE",
"543 235.5 CURVE SMOOTH",
"481.667 267.167 OFFCURVE",
"433.167 312 OFFCURVE",
"397.5 370 CURVE SMOOTH",
"361.833 428 OFFCURVE",
"343 496.667 OFFCURVE",
"341 576 CURVE",
"1177 576 LINE"
);
}
);
userData = {
assembly = "NPUSHB[ ]	/* 59 values pushed */\0120 3 2 1 2 3 1 128 0 1 0 5 6 1 5 103 0 2 2 4 97 0 4 4 109 77 0 6 6 0 97 7 1 0 0 110 0 78 1 0 32 30 27 26 19 17 14 13 11 9 6 5 0 25 1 25 8 12 22 \012CALL[ ]	/* CallFunction */";
};
width = 1531;
}
);
note = uni018F;
unicode = 018F;
},
{
glyphname = T;
lastChange = "2024-07-06 19:26:32 +0000";
layers = (
{
layerId = "6C6EE9F0-1505-4036-BE3C-A809537EF5EF";
paths = (
{
closed = 1;
nodes = (
"90 1328 OFFCURVE",
"134 1294 OFFCURVE",
"214 1294 CURVE SMOOTH",
"555 1294 LINE",
"555 124 LINE SMOOTH",
"555 44 OFFCURVE",
"596 0 OFFCURVE",
"670 0 CURVE SMOOTH",
"744 0 OFFCURVE",
"784 44 OFFCURVE",
"784 124 CURVE SMOOTH",
"784 1294 LINE",
"1123 1294 LINE SMOOTH",
"1203 1294 OFFCURVE",
"1247 1329 OFFCURVE",
"1247 1392 CURVE SMOOTH",
"1247 1455 OFFCURVE",
"1203 1490 OFFCURVE",
"1123 1490 CURVE SMOOTH",
"214 1490 LINE SMOOTH",
"134 1490 OFFCURVE",
"90 1455 OFFCURVE",
"90 1392 CURVE SMOOTH"
);
}
);
userData = {
assembly = "NPUSHB[ ]	/* 30 values pushed */\0124 3 2 1 1 0 95 0 0 0 103 77 0 2 2 104 2 78 0 0 0 7 0 7 17 17 17 5 12 25 \012CALL[ ]	/* CallFunction */";
};
width = 1337;
}
);
leftKerningGroup = "Kabashkir-cy";
note = T;
rightKerningGroup = "Enghe-cy";
unicode = 0054;
},
{
glyphname = Tdiagonalstroke;
lastChange = "2024-07-06 19:26:32 +0000";
layers = (
{
layerId = "6C6EE9F0-1505-4036-BE3C-A809537EF5EF";
paths = (
{
closed = 1;
nodes = (
"325 -209 OFFCURVE",
"359 -178 OFFCURVE",
"386 -113 CURVE SMOOTH",
"555 299 LINE",
"555 124 LINE SMOOTH",
"555 44 OFFCURVE",
"596 0 OFFCURVE",
"670 0 CURVE SMOOTH",
"744 0 OFFCURVE",
"784 44 OFFCURVE",
"784 124 CURVE SMOOTH",
"784 857 LINE",
"963 1294 LINE",
"1123 1294 LINE SMOOTH",
"1203 1294 OFFCURVE",
"1247 1329 OFFCURVE",
"1247 1392 CURVE SMOOTH",
"1247 1455 OFFCURVE",
"1203 1490 OFFCURVE",
"1123 1490 CURVE SMOOTH",
"1043 1490 LINE",
"1086 1595 LINE SMOOTH",
"1112 1657 OFFCURVE",
"1101 1699 OFFCURVE",
"1060 1699 CURVE SMOOTH",
"1013 1699 OFFCURVE",
"978 1669 OFFCURVE",
"951 1603 CURVE SMOOTH",
"905 1490 LINE",
"214 1490 LINE SMOOTH",
"134 1490 OFFCURVE",
"90 1455 OFFCURVE",
"90 1392 CURVE SMOOTH",
"90 1329 OFFCURVE",
"134 1294 OFFCURVE",
"214 1294 CURVE SMOOTH",
"555 1294 LINE",
"555 638 LINE",
"267 -65 LINE SMOOTH",
"232 -151 OFFCURVE",
"237 -209 OFFCURVE",
"278 -209 CURVE SMOOTH"
);
},
{
closed = 1;
nodes = (
"784 1294 LINE",
"824 1294 LINE",
"784 1195 LINE"
);
}
);
userData = {
assembly = "NPUSHB[ ]	/* 9 values pushed */\01217 15 12 1 4 5 0 1 76 \012MPPEM[ ]	/* MeasurePixelPerEm */\012PUSHB[ ]	/* 1 value pushed */\01212 \012LT[ ]	/* LessThan */\012IF[ ]	/* If */\012NPUSHB[ ]	/* 31 values pushed */\0120 2 1 1 2 112 8 1 6 5 6 134 7 4 2 0 0 1 95 3 1 1 1 103 77 0 5 5 104 5 78 \012ELSE[ ]	/* Else */\012NPUSHB[ ]	/* 30 values pushed */\0120 2 1 2 133 8 1 6 5 6 134 7 4 2 0 0 1 95 3 1 1 1 103 77 0 5 5 104 5 78 \012EIF[ ]	/* EndIf */\012NPUSHB[ ]	/* 17 values pushed */\0120 0 19 18 0 16 0 16 18 17 17 17 17 18 9 12 28 \012CALL[ ]	/* CallFunction */";
};
width = 1337;
}
);
leftKerningGroup = "Kabashkir-cy";
note = uni023E;
rightKerningGroup = "Enghe-cy";
unicode = 023E;
},
{
glyphname = Thook;
lastChange = "2024-07-06 19:26:32 +0000";
layers = (
{
layerId = "6C6EE9F0-1505-4036-BE3C-A809537EF5EF";
paths = (
{
closed = 1;
nodes = (
"78 1124 OFFCURVE",
"115 1098 OFFCURVE",
"183 1098 CURVE SMOOTH",
"251 1098 OFFCURVE",
"287 1121 OFFCURVE",
"287 1162 CURVE SMOOTH",
"287 1250 OFFCURVE",
"331.333 1294 OFFCURVE",
"420 1294 CURVE SMOOTH",
"596 1294 LINE",
"596 124 LINE SMOOTH",
"596 44 OFFCURVE",
"637 0 OFFCURVE",
"711 0 CURVE SMOOTH",
"785 0 OFFCURVE",
"825 44 OFFCURVE",
"825 124 CURVE SMOOTH",
"825 1294 LINE",
"1164 1294 LINE SMOOTH",
"1244 1294 OFFCURVE",
"1288 1329 OFFCURVE",
"1288 1392 CURVE SMOOTH",
"1288 1455 OFFCURVE",
"1244 1490 OFFCURVE",
"1164 1490 CURVE SMOOTH",
"422 1490 LINE SMOOTH",
"192.667 1490 OFFCURVE",
"78 1383.667 OFFCURVE",
"78 1171 CURVE SMOOTH"
);
}
);
userData = {
assembly = "MPPEM[ ]	/* MeasurePixelPerEm */\012PUSHB[ ]	/* 1 value pushed */\01213 \012LT[ ]	/* LessThan */\012IF[ ]	/* If */\012NPUSHB[ ]	/* 25 values pushed */\0125 1 4 1 2 1 4 114 3 1 1 1 0 95 0 0 0 103 77 0 2 2 104 2 78 \012ELSE[ ]	/* Else */\012NPUSHB[ ]	/* 26 values pushed */\0125 1 4 1 2 1 4 2 128 3 1 1 1 0 95 0 0 0 103 77 0 2 2 104 2 78 \012EIF[ ]	/* EndIf */\012NPUSHB[ ]	/* 13 values pushed */\0120 0 0 13 0 13 33 17 17 34 6 12 26 \012CALL[ ]	/* CallFunction */";
};
width = 1378;
}
);
leftKerningGroup = "Kabashkir-cy";
note = uni01AC;
rightKerningGroup = "Enghe-cy";
unicode = 01AC;
},
{
glyphname = Tonefive;
lastChange = "2024-07-06 19:26:32 +0000";
layers = (
{
layerId = "6C6EE9F0-1505-4036-BE3C-A809537EF5EF";
paths = (
{
closed = 1;
nodes = (
"769 -20 OFFCURVE",
"857.833 1.667 OFFCURVE",
"935.5 45 CURVE SMOOTH",
"1013.167 88.333 OFFCURVE",
"1074 147.833 OFFCURVE",
"1118 223.5 CURVE SMOOTH",
"1162 299.167 OFFCURVE",
"1184 385.333 OFFCURVE",
"1184 482 CURVE SMOOTH",
"1184 578 OFFCURVE",
"1163.5 663.333 OFFCURVE",
"1122.5 738 CURVE SMOOTH",
"1081.5 812.667 OFFCURVE",
"1025.5 871.333 OFFCURVE",
"954.5 914 CURVE SMOOTH",
"883.5 956.667 OFFCURVE",
"802.667 978 OFFCURVE",
"712 978 CURVE SMOOTH",
"656 978 OFFCURVE",
"603.833 968.833 OFFCURVE",
"555.5 950.5 CURVE SMOOTH",
"507.167 932.167 OFFCURVE",
"468.333 908.333 OFFCURVE",
"439 879 CURVE",
"431 879 LINE",
"478 1295 LINE",
"986 1295 LINE SMOOTH",
"1066 1295 OFFCURVE",
"1110 1330 OFFCURVE",
"1110 1393 CURVE SMOOTH",
"1110 1456 OFFCURVE",
"1066 1490 OFFCURVE",
"986 1490 CURVE SMOOTH",
"214 1490 LINE SMOOTH",
"134 1490 OFFCURVE",
"90 1456 OFFCURVE",
"90 1393 CURVE SMOOTH",
"90 1330 OFFCURVE",
"134 1295 OFFCURVE",
"214 1295 CURVE SMOOTH",
"265 1295 LINE",
"217 858 LINE SMOOTH",
"208 778 OFFCURVE",
"246 731 OFFCURVE",
"325 720 CURVE SMOOTH",
"326 720 LINE SMOOTH",
"388 711 OFFCURVE",
"431 728 OFFCURVE",
"489 754 CURVE SMOOTH",
"499 759 OFFCURVE",
"511 763 OFFCURVE",
"523 767.5 CURVE SMOOTH",
"568.333 783.167 OFFCURVE",
"613.667 791 OFFCURVE",
"659 791 CURVE SMOOTH",
"717.667 791 OFFCURVE",
"769.667 777.5 OFFCURVE",
"815 750.5 CURVE SMOOTH",
"860.333 723.5 OFFCURVE",
"896 686.333 OFFCURVE",
"922 639 CURVE SMOOTH",
"948 591.667 OFFCURVE",
"961 538 OFFCURVE",
"961 478 CURVE SMOOTH",
"961 388.667 OFFCURVE",
"933.5 315.333 OFFCURVE",
"878.5 258 CURVE SMOOTH",
"823.5 200.667 OFFCURVE",
"753.667 172 OFFCURVE",
"669 172 CURVE SMOOTH",
"597.667 172 OFFCURVE",
"536.333 192.333 OFFCURVE",
"485 233 CURVE SMOOTH",
"459 253 OFFCURVE",
"440 276 OFFCURVE",
"425 302 CURVE SMOOTH",
"396 359 OFFCURVE",
"366 390 OFFCURVE",
"294 390 CURVE SMOOTH",
"289 390 LINE SMOOTH",
"220 390 OFFCURVE",
"174 337 OFFCURVE",
"206 256 CURVE SMOOTH",
"217 229 OFFCURVE",
"231 203 OFFCURVE",
"247.5 179 CURVE SMOOTH",
"290.5 117 OFFCURVE",
"348.333 68.333 OFFCURVE",
"421 33 CURVE SMOOTH",
"493.667 -2.333 OFFCURVE",
"576.333 -20 OFFCURVE",
"669 -20 CURVE SMOOTH"
);
}
);
userData = {
assembly = "NPUSHB[ ]	/* 73 values pushed */\01226 1 3 7 19 18 2 1 3 2 76 0 1 3 2 3 1 2 128 0 7 0 3 1 7 3 105 6 1 4 4 5 95 0 5 5 103 77 0 2 2 0 97 8 1 0 0 110 0 78 1 0 31 29 25 24 23 22 21 20 16 14 9 7 5 4 0 37 1 37 9 12 22 \012CALL[ ]	/* CallFunction */";
};
width = 1297;
}
);
note = uni01BC;
unicode = 01BC;
},
{
glyphname = Tonesix;
lastChange = "2024-07-06 19:26:32 +0000";
layers = (
{
layerId = "6C6EE9F0-1505-4036-BE3C-A809537EF5EF";
paths = (
{
closed = 1;
nodes = (
"604 892 LINE",
"604 1366 LINE SMOOTH",
"604 1446 OFFCURVE",
"560 1490 OFFCURVE",
"480 1490 CURVE SMOOTH",
"146 1490 LINE SMOOTH",
"66 1490 OFFCURVE",
"22 1455 OFFCURVE",
"22 1392 CURVE SMOOTH",
"22 1329 OFFCURVE",
"66 1294 OFFCURVE",
"146 1294 CURVE SMOOTH",
"376 1294 LINE",
"376 124 LINE SMOOTH",
"376 44 OFFCURVE",
"420 0 OFFCURVE",
"500 0 CURVE SMOOTH",
"933 0 LINE SMOOTH",
"1043.667 0 OFFCURVE",
"1137.833 19.167 OFFCURVE",
"1215.5 57.5 CURVE SMOOTH",
"1293.167 95.833 OFFCURVE",
"1352.5 149 OFFCURVE",
"1393.5 217 CURVE SMOOTH",
"1434.5 285 OFFCURVE",
"1455 363.667 OFFCURVE",
"1455 453 CURVE SMOOTH",
"1455 586.333 OFFCURVE",
"1409.5 692.667 OFFCURVE",
"1318.5 772 CURVE SMOOTH",
"1227.5 851.333 OFFCURVE",
"1099 891.333 OFFCURVE",
"933 892 CURVE SMOOTH"
);
},
{
closed = 1;
nodes = (
"604 699 LINE",
"933 699 LINE SMOOTH",
"1028.333 699 OFFCURVE",
"1101.667 675.167 OFFCURVE",
"1153 627.5 CURVE SMOOTH",
"1204.333 579.833 OFFCURVE",
"1230 522.667 OFFCURVE",
"1230 456 CURVE SMOOTH",
"1230 410 OFFCURVE",
"1218.5 366.833 OFFCURVE",
"1195.5 326.5 CURVE SMOOTH",
"1172.5 286.167 OFFCURVE",
"1139 253.667 OFFCURVE",
"1095 229 CURVE SMOOTH",
"1051 204.333 OFFCURVE",
"997 192.333 OFFCURVE",
"933 193 CURVE SMOOTH",
"604 193 LINE"
);
}
);
userData = {
assembly = "NPUSHB[ ]	/* 44 values pushed */\0120 0 6 1 5 4 0 5 103 0 2 2 3 95 0 3 3 103 77 0 4 4 1 95 0 1 1 104 1 78 14 14 14 23 14 22 34 17 17 37 32 7 12 27 \012CALL[ ]	/* CallFunction */";
};
width = 1512;
}
);
note = uni0184;
unicode = 0184;
},
{
glyphname = Tonetwo;
lastChange = "2024-07-06 19:26:32 +0000";
layers = (
{
layerId = "6C6EE9F0-1505-4036-BE3C-A809537EF5EF";
paths = (
{
closed = 1;
nodes = (
"825.333 -25 OFFCURVE",
"958.667 14.167 OFFCURVE",
"1058 92.5 CURVE SMOOTH",
"1122 143 OFFCURVE",
"1167 206 OFFCURVE",
"1192 280 CURVE SMOOTH",
"1220 362 OFFCURVE",
"1172 414 OFFCURVE",
"1096 414 CURVE SMOOTH",
"1023 414 OFFCURVE",
"994 377 OFFCURVE",
"958 311 CURVE SMOOTH",
"941 279 OFFCURVE",
"916 254 OFFCURVE",
"883 233.5 CURVE SMOOTH",
"819.667 194.5 OFFCURVE",
"745 175 OFFCURVE",
"659 175 CURVE SMOOTH",
"564.333 175 OFFCURVE",
"486 197 OFFCURVE",
"424 241 CURVE SMOOTH",
"362 285 OFFCURVE",
"331 343 OFFCURVE",
"331 415 CURVE SMOOTH",
"331 479.667 OFFCURVE",
"358.167 527.833 OFFCURVE",
"412.5 559.5 CURVE SMOOTH",
"466.833 591.167 OFFCURVE",
"534 617.667 OFFCURVE",
"614 639 CURVE SMOOTH",
"788 687 LINE SMOOTH",
"910 719.667 OFFCURVE",
"1005.167 768 OFFCURVE",
"1073.5 832 CURVE SMOOTH",
"1141.833 896 OFFCURVE",
"1176 979 OFFCURVE",
"1176 1081 CURVE SMOOTH",
"1176 1167 OFFCURVE",
"1152.833 1242.167 OFFCURVE",
"1106.5 1306.5 CURVE SMOOTH",
"1060.167 1370.833 OFFCURVE",
"997.167 1420.833 OFFCURVE",
"917.5 1456.5 CURVE SMOOTH",
"837.833 1492.167 OFFCURVE",
"748 1510 OFFCURVE",
"648 1510 CURVE SMOOTH",
"546 1510 OFFCURVE",
"456.167 1492.167 OFFCURVE",
"378.5 1456.5 CURVE SMOOTH",
"300.833 1420.833 OFFCURVE",
"239.833 1371.833 OFFCURVE",
"195.5 1309.5 CURVE SMOOTH",
"173 1278 OFFCURVE",
"156 1245 OFFCURVE",
"145 1209 CURVE SMOOTH",
"123 1141 OFFCURVE",
"169 1098 OFFCURVE",
"242 1098 CURVE SMOOTH",
"314 1098 OFFCURVE",
"342 1135 OFFCURVE",
"382 1197 CURVE SMOOTH",
"398 1220 OFFCURVE",
"418 1239 OFFCURVE",
"442.5 1256 CURVE SMOOTH",
"498.167 1293.333 OFFCURVE",
"568.333 1312 OFFCURVE",
"653 1312 CURVE SMOOTH",
"743 1312 OFFCURVE",
"814.833 1291.5 OFFCURVE",
"868.5 1250.5 CURVE SMOOTH",
"922.167 1209.5 OFFCURVE",
"949 1157.333 OFFCURVE",
"949 1094 CURVE SMOOTH",
"949 1046.667 OFFCURVE",
"934.5 1008.5 OFFCURVE",
"905.5 979.5 CURVE SMOOTH",
"876.5 950.5 OFFCURVE",
"841.167 927.5 OFFCURVE",
"799.5 910.5 CURVE SMOOTH",
"757.833 893.5 OFFCURVE",
"718 880 OFFCURVE",
"680 870 CURVE SMOOTH",
"535 832 LINE SMOOTH",
"487.667 820 OFFCURVE",
"438.833 803.833 OFFCURVE",
"388.5 783.5 CURVE SMOOTH",
"338.167 763.167 OFFCURVE",
"291.667 736.833 OFFCURVE",
"249 704.5 CURVE SMOOTH",
"206.333 672.167 OFFCURVE",
"171.833 632.167 OFFCURVE",
"145.5 584.5 CURVE SMOOTH",
"119.167 536.833 OFFCURVE",
"106 479.333 OFFCURVE",
"106 412 CURVE SMOOTH",
"106 328 OFFCURVE",
"127.667 253 OFFCURVE",
"171 187 CURVE SMOOTH",
"214.333 121 OFFCURVE",
"277.167 69.167 OFFCURVE",
"359.5 31.5 CURVE SMOOTH",
"441.833 -6.167 OFFCURVE",
"541.333 -25 OFFCURVE",
"658 -25 CURVE SMOOTH"
);
}
);
userData = {
assembly = "NPUSHB[ ]	/* 56 values pushed */\0120 2 1 5 1 2 5 128 0 5 4 1 5 4 126 0 1 1 3 97 0 3 3 109 77 0 4 4 0 97 6 1 0 0 113 0 78 1 0 43 42 40 38 26 24 21 20 18 16 0 45 1 45 7 12 22 \012CALL[ ]	/* CallFunction */";
};
width = 1323;
}
);
leftKerningGroup = S;
note = uni01A7;
rightKerningGroup = B;
unicode = 01A7;
},
{
glyphname = Tretroflexhook;
lastChange = "2024-07-06 19:26:32 +0000";
layers = (
{
layerId = "6C6EE9F0-1505-4036-BE3C-A809537EF5EF";
paths = (
{
closed = 1;
nodes = (
"876 -430 OFFCURVE",
"883 -430 OFFCURVE",
"890 -430 CURVE SMOOTH",
"962 -428 OFFCURVE",
"998 -388 OFFCURVE",
"998 -330 CURVE SMOOTH",
"998 -274 OFFCURVE",
"930 -246 OFFCURVE",
"930 -246 CURVE SMOOTH",
"877.333 -246 OFFCURVE",
"839.833 -238.833 OFFCURVE",
"817.5 -224.5 CURVE SMOOTH",
"795.167 -210.167 OFFCURVE",
"784 -186 OFFCURVE",
"784 -152 CURVE SMOOTH",
"784 1294 LINE",
"1123 1294 LINE SMOOTH",
"1203 1294 OFFCURVE",
"1247 1329 OFFCURVE",
"1247 1392 CURVE SMOOTH",
"1247 1455 OFFCURVE",
"1203 1490 OFFCURVE",
"1123 1490 CURVE SMOOTH",
"214 1490 LINE SMOOTH",
"134 1490 OFFCURVE",
"90 1455 OFFCURVE",
"90 1392 CURVE SMOOTH",
"90 1329 OFFCURVE",
"134 1294 OFFCURVE",
"214 1294 CURVE SMOOTH",
"555 1294 LINE",
"555 -153 LINE SMOOTH",
"555 -243.667 OFFCURVE",
"581.667 -312.5 OFFCURVE",
"635 -359.5 CURVE SMOOTH",
"688.333 -406.5 OFFCURVE",
"766.333 -430 OFFCURVE",
"869 -430 CURVE SMOOTH"
);
}
);
userData = {
assembly = "NPUSHB[ ]	/* 50 values pushed */\01215 1 4 1 16 1 0 4 2 76 3 1 1 1 2 95 0 2 2 103 77 0 4 4 0 97 5 1 0 0 114 0 78 1 0 14 12 9 8 7 6 5 4 0 17 1 17 6 12 22 \012CALL[ ]	/* CallFunction */";
};
width = 1337;
}
);
leftKerningGroup = "Kabashkir-cy";
note = Trthook;
rightKerningGroup = "Enghe-cy";
unicode = 01AE;
},
{
glyphname = U;
lastChange = "2024-07-06 19:26:32 +0000";
layers = (
{
layerId = "6C6EE9F0-1505-4036-BE3C-A809537EF5EF";
paths = (
{
closed = 1;
nodes = (
"877.667 -23 OFFCURVE",
"981.333 -0.167 OFFCURVE",
"1070 45.5 CURVE SMOOTH",
"1158.667 91.167 OFFCURVE",
"1227.667 154.333 OFFCURVE",
"1277 235 CURVE SMOOTH",
"1326.333 315.667 OFFCURVE",
"1351 408 OFFCURVE",
"1351 512 CURVE SMOOTH",
"1351 1366 LINE SMOOTH",
"1351 1446 OFFCURVE",
"1311 1490 OFFCURVE",
"1237 1490 CURVE SMOOTH",
"1163 1490 OFFCURVE",
"1122 1446 OFFCURVE",
"1122 1366 CURVE SMOOTH",
"1122 531 LINE SMOOTH",
"1122 430.333 OFFCURVE",
"1089.5 347.333 OFFCURVE",
"1024.5 282 CURVE SMOOTH",
"959.5 216.667 OFFCURVE",
"871 184 OFFCURVE",
"759 184 CURVE SMOOTH",
"646.333 184 OFFCURVE",
"557.167 216.667 OFFCURVE",
"491.5 282 CURVE SMOOTH",
"425.833 347.333 OFFCURVE",
"393 430.333 OFFCURVE",
"393 531 CURVE SMOOTH",
"393 1366 LINE SMOOTH",
"393 1446 OFFCURVE",
"353 1490 OFFCURVE",
"279 1490 CURVE SMOOTH",
"205 1490 OFFCURVE",
"165 1446 OFFCURVE",
"165 1366 CURVE SMOOTH",
"165 512 LINE SMOOTH",
"165 408 OFFCURVE",
"189.5 315.667 OFFCURVE",
"238.5 235 CURVE SMOOTH",
"287.5 154.333 OFFCURVE",
"356.5 91.167 OFFCURVE",
"445.5 45.5 CURVE SMOOTH",
"534.5 -0.167 OFFCURVE",
"639 -23 OFFCURVE",
"759 -23 CURVE SMOOTH"
);
}
);
userData = {
assembly = "NPUSHB[ ]	/* 33 values pushed */\0123 1 1 1 103 77 0 2 2 0 97 4 1 0 0 113 0 78 1 0 15 14 11 9 6 5 0 19 1 19 5 12 22 \012CALL[ ]	/* CallFunction */";
};
width = 1516;
}
);
leftKerningGroup = U;
note = U;
rightKerningGroup = J;
unicode = 0055;
},
{
glyphname = Ubar;
lastChange = "2024-07-06 19:26:32 +0000";
layers = (
{
layerId = "6C6EE9F0-1505-4036-BE3C-A809537EF5EF";
paths = (
{
closed = 1;
nodes = (
"1537 835 OFFCURVE",
"1493 859 OFFCURVE",
"1413 859 CURVE SMOOTH",
"1362 859 LINE",
"1362 1366 LINE SMOOTH",
"1362 1446 OFFCURVE",
"1322 1490 OFFCURVE",
"1248 1490 CURVE SMOOTH",
"1174 1490 OFFCURVE",
"1133 1446 OFFCURVE",
"1133 1366 CURVE SMOOTH",
"1133 859 LINE",
"405 859 LINE",
"405 1366 LINE SMOOTH",
"405 1446 OFFCURVE",
"365 1490 OFFCURVE",
"291 1490 CURVE SMOOTH",
"217 1490 OFFCURVE",
"176 1446 OFFCURVE",
"176 1366 CURVE SMOOTH",
"176 859 LINE",
"85 859 LINE SMOOTH",
"26 859 OFFCURVE",
"-7 834 OFFCURVE",
"-7 790 CURVE SMOOTH",
"-7 746 OFFCURVE",
"37 721 OFFCURVE",
"117 721 CURVE SMOOTH",
"176 721 LINE",
"176 512 LINE SMOOTH",
"176 408 OFFCURVE",
"200.5 315.667 OFFCURVE",
"249.5 235 CURVE SMOOTH",
"298.5 154.333 OFFCURVE",
"367.5 91.167 OFFCURVE",
"456.5 45.5 CURVE SMOOTH",
"545.5 -0.167 OFFCURVE",
"650 -23 OFFCURVE",
"770 -23 CURVE SMOOTH",
"888.667 -23 OFFCURVE",
"992.333 -0.167 OFFCURVE",
"1081 45.5 CURVE SMOOTH",
"1169.667 91.167 OFFCURVE",
"1238.667 154.333 OFFCURVE",
"1288 235 CURVE SMOOTH",
"1337.333 315.667 OFFCURVE",
"1362 408 OFFCURVE",
"1362 512 CURVE SMOOTH",
"1362 721 LINE",
"1450 721 LINE SMOOTH",
"1506 721 OFFCURVE",
"1537 746 OFFCURVE",
"1537 790 CURVE SMOOTH"
);
},
{
closed = 1;
nodes = (
"1133 721 LINE",
"1133 531 LINE SMOOTH",
"1133 430.333 OFFCURVE",
"1100.5 347.333 OFFCURVE",
"1035.5 282 CURVE SMOOTH",
"970.5 216.667 OFFCURVE",
"882 184 OFFCURVE",
"770 184 CURVE SMOOTH",
"657.333 184 OFFCURVE",
"568.333 216.667 OFFCURVE",
"503 282 CURVE SMOOTH",
"437.667 347.333 OFFCURVE",
"405 430.333 OFFCURVE",
"405 531 CURVE SMOOTH",
"405 721 LINE"
);
}
);
userData = {
assembly = "NPUSHB[ ]	/* 50 values pushed */\01210 7 5 3 3 8 2 2 0 9 3 0 103 6 1 4 4 103 77 0 9 9 1 97 0 1 1 113 1 78 0 0 29 27 24 23 0 22 0 22 17 17 17 17 20 36 17 11 12 29 \012CALL[ ]	/* CallFunction */";
};
width = 1530;
}
);
leftKerningGroup = U;
note = uni0244;
rightKerningGroup = J;
unicode = 0244;
},
{
glyphname = Uhorn;
lastChange = "2024-07-06 19:26:32 +0000";
layers = (
{
layerId = "6C6EE9F0-1505-4036-BE3C-A809537EF5EF";
paths = (
{
closed = 1;
nodes = (
"877.667 -23 OFFCURVE",
"981.333 -0.167 OFFCURVE",
"1070 45.5 CURVE SMOOTH",
"1158.667 91.167 OFFCURVE",
"1227.667 154.333 OFFCURVE",
"1277 235 CURVE SMOOTH",
"1326.333 315.667 OFFCURVE",
"1351 408 OFFCURVE",
"1351 512 CURVE SMOOTH",
"1351 1329 LINE",
"1470.333 1331 OFFCURVE",
"1530 1391.667 OFFCURVE",
"1530 1511 CURVE SMOOTH",
"1530 1574 LINE SMOOTH",
"1530 1654 OFFCURVE",
"1494 1698 OFFCURVE",
"1429 1698 CURVE SMOOTH",
"1364 1698 OFFCURVE",
"1328 1654 OFFCURVE",
"1328 1574 CURVE SMOOTH",
"1328 1511 LINE SMOOTH",
"1328 1497 OFFCURVE",
"1321 1490 OFFCURVE",
"1307 1490 CURVE SMOOTH",
"1246 1490 LINE SMOOTH",
"1166 1490 OFFCURVE",
"1122 1446 OFFCURVE",
"1122 1366 CURVE SMOOTH",
"1122 531 LINE SMOOTH",
"1122 430.333 OFFCURVE",
"1089.5 347.333 OFFCURVE",
"1024.5 282 CURVE SMOOTH",
"959.5 216.667 OFFCURVE",
"871 184 OFFCURVE",
"759 184 CURVE SMOOTH",
"646.333 184 OFFCURVE",
"557.167 216.667 OFFCURVE",
"491.5 282 CURVE SMOOTH",
"425.833 347.333 OFFCURVE",
"393 430.333 OFFCURVE",
"393 531 CURVE SMOOTH",
"393 1366 LINE SMOOTH",
"393 1446 OFFCURVE",
"353 1490 OFFCURVE",
"279 1490 CURVE SMOOTH",
"205 1490 OFFCURVE",
"165 1446 OFFCURVE",
"165 1366 CURVE SMOOTH",
"165 512 LINE SMOOTH",
"165 408 OFFCURVE",
"189.5 315.667 OFFCURVE",
"238.5 235 CURVE SMOOTH",
"287.5 154.333 OFFCURVE",
"356.5 91.167 OFFCURVE",
"445.5 45.5 CURVE SMOOTH",
"534.5 -0.167 OFFCURVE",
"639 -23 OFFCURVE",
"759 -23 CURVE SMOOTH"
);
}
);
userData = {
assembly = "NPUSHB[ ]	/* 45 values pushed */\0120 4 0 5 2 4 5 105 3 1 1 1 103 77 0 2 2 0 97 6 1 0 0 113 0 78 1 0 22 21 19 18 16 14 11 9 6 5 0 26 1 26 7 12 22 \012CALL[ ]	/* CallFunction */";
};
width = 1511;
}
);
leftKerningGroup = U;
note = Uhorn;
rightKerningGroup = Uhorn;
unicode = 01AF;
},
{
glyphname = "Upsilon-latin";
lastChange = "2024-07-06 19:26:32 +0000";
layers = (
{
layerId = "6C6EE9F0-1505-4036-BE3C-A809537EF5EF";
paths = (
{
closed = 1;
nodes = (
"113 556 OFFCURVE",
"142 432.167 OFFCURVE",
"200 324.5 CURVE SMOOTH",
"258 216.833 OFFCURVE",
"337.667 132.5 OFFCURVE",
"439 71.5 CURVE SMOOTH",
"540.333 10.5 OFFCURVE",
"656.667 -20 OFFCURVE",
"788 -20 CURVE SMOOTH",
"919.333 -20 OFFCURVE",
"1035.667 10.5 OFFCURVE",
"1137 71.5 CURVE SMOOTH",
"1238.333 132.5 OFFCURVE",
"1318 216.833 OFFCURVE",
"1376 324.5 CURVE SMOOTH",
"1434 432.167 OFFCURVE",
"1463 556 OFFCURVE",
"1463 696 CURVE SMOOTH",
"1463 832 OFFCURVE",
"1435.833 949.167 OFFCURVE",
"1381.5 1047.5 CURVE SMOOTH",
"1327.167 1145.833 OFFCURVE",
"1254.333 1224 OFFCURVE",
"1163 1282 CURVE",
"1163 1294 LINE",
"1339 1294 LINE SMOOTH",
"1419 1294 OFFCURVE",
"1463 1329 OFFCURVE",
"1463 1392 CURVE SMOOTH",
"1463 1455 OFFCURVE",
"1419 1490 OFFCURVE",
"1339 1490 CURVE SMOOTH",
"1035 1490 LINE SMOOTH",
"955 1490 OFFCURVE",
"911 1446 OFFCURVE",
"911 1366 CURVE SMOOTH",
"911 1342 LINE SMOOTH",
"911 1273 OFFCURVE",
"942 1234 OFFCURVE",
"998 1193 CURVE SMOOTH",
"1025 1174 OFFCURVE",
"1050 1152 OFFCURVE",
"1074.5 1126 CURVE SMOOTH",
"1123.5 1074 OFFCURVE",
"1162.5 1012 OFFCURVE",
"1191.5 940 CURVE SMOOTH",
"1220.5 868 OFFCURVE",
"1235 789.333 OFFCURVE",
"1235 704 CURVE SMOOTH",
"1235 607.333 OFFCURVE",
"1216 520 OFFCURVE",
"1178 442 CURVE SMOOTH",
"1140 364 OFFCURVE",
"1087.333 302.167 OFFCURVE",
"1020 256.5 CURVE SMOOTH",
"952.667 210.833 OFFCURVE",
"875.333 188 OFFCURVE",
"788 188 CURVE SMOOTH",
"700.667 188 OFFCURVE",
"623.167 210.833 OFFCURVE",
"555.5 256.5 CURVE SMOOTH",
"487.833 302.167 OFFCURVE",
"434.833 364 OFFCURVE",
"396.5 442 CURVE SMOOTH",
"358.167 520 OFFCURVE",
"339 607.333 OFFCURVE",
"339 704 CURVE SMOOTH",
"339 789.333 OFFCURVE",
"353.667 868 OFFCURVE",
"383 940 CURVE SMOOTH",
"412.333 1012 OFFCURVE",
"451.833 1074 OFFCURVE",
"501.5 1126 CURVE SMOOTH",
"526 1152 OFFCURVE",
"552 1174 OFFCURVE",
"579 1193 CURVE SMOOTH",
"635 1233 OFFCURVE",
"665 1273 OFFCURVE",
"665 1342 CURVE SMOOTH",
"665 1366 LINE SMOOTH",
"665 1446 OFFCURVE",
"621 1490 OFFCURVE",
"541 1490 CURVE SMOOTH",
"237 1490 LINE SMOOTH",
"157 1490 OFFCURVE",
"113 1455 OFFCURVE",
"113 1392 CURVE SMOOTH",
"113 1329 OFFCURVE",
"157 1294 OFFCURVE",
"237 1294 CURVE SMOOTH",
"413 1294 LINE",
"413 1282 LINE",
"321 1222.667 OFFCURVE",
"248 1144.167 OFFCURVE",
"194 1046.5 CURVE SMOOTH",
"140 948.833 OFFCURVE",
"113 832 OFFCURVE",
"113 696 CURVE SMOOTH"
);
}
);
userData = {
assembly = "NPUSHB[ ]	/* 39 values pushed */\01224 8 2 2 0 1 76 4 1 0 0 1 95 3 1 1 1 103 77 0 2 2 5 97 0 5 5 110 5 78 39 17 24 40 17 35 6 12 28 \012CALL[ ]	/* CallFunction */";
};
width = 1576;
}
);
note = Upsilon2;
unicode = 01B1;
},
{
glyphname = V;
lastChange = "2024-07-06 19:26:32 +0000";
layers = (
{
layerId = "6C6EE9F0-1505-4036-BE3C-A809537EF5EF";
paths = (
{
closed = 1;
nodes = (
"763 0 LINE SMOOTH",
"835 0 OFFCURVE",
"881 32 OFFCURVE",
"905 100 CURVE SMOOTH",
"1350 1348 LINE SMOOTH",
"1381 1435 OFFCURVE",
"1346 1490 OFFCURVE",
"1261 1490 CURVE SMOOTH",
"1189 1490 OFFCURVE",
"1143 1457 OFFCURVE",
"1120 1389 CURVE SMOOTH",
"872 661 LINE SMOOTH",
"854 604.333 OFFCURVE",
"833.333 537 OFFCURVE",
"810 459 CURVE SMOOTH",
"786.667 381 OFFCURVE",
"760.333 289 OFFCURVE",
"731 183 CURVE",
"701.667 287 OFFCURVE",
"675 378.5 OFFCURVE",
"651 457.5 CURVE SMOOTH",
"627 536.5 OFFCURVE",
"605.667 604.333 OFFCURVE",
"587 661 CURVE SMOOTH",
"332 1390 LINE SMOOTH",
"308 1459 OFFCURVE",
"263 1490 OFFCURVE",
"191 1490 CURVE SMOOTH",
"174 1490 LINE SMOOTH",
"100 1490 OFFCURVE",
"71 1435 OFFCURVE",
"102 1348 CURVE SMOOTH",
"554 99 LINE SMOOTH",
"578 31 OFFCURVE",
"624 0 OFFCURVE",
"696 0 CURVE SMOOTH"
);
}
);
userData = {
assembly = "NPUSHB[ ]	/* 30 values pushed */\0126 1 2 0 1 76 1 1 0 0 103 77 3 1 2 2 104 2 78 0 0 0 12 0 12 24 17 4 12 24 \012CALL[ ]	/* CallFunction */";
};
width = 1452;
}
);
leftKerningGroup = V;
note = V;
rightKerningGroup = V;
unicode = 0056;
},
{
glyphname = "V-middleWelsh";
lastChange = "2024-07-06 19:26:32 +0000";
layers = (
{
layerId = "6C6EE9F0-1505-4036-BE3C-A809537EF5EF";
paths = (
{
closed = 1;
nodes = (
"718 724 OFFCURVE",
"744 701 OFFCURVE",
"768 673 CURVE SMOOTH",
"816.667 616.333 OFFCURVE",
"841 538.333 OFFCURVE",
"841 439 CURVE SMOOTH",
"841 355 OFFCURVE",
"819.667 290 OFFCURVE",
"777 244 CURVE SMOOTH",
"734.333 198 OFFCURVE",
"674.667 175 OFFCURVE",
"598 175 CURVE SMOOTH",
"530 175 OFFCURVE",
"471.333 205.667 OFFCURVE",
"422 267 CURVE SMOOTH",
"372.667 328.333 OFFCURVE",
"348 416.667 OFFCURVE",
"348 532 CURVE SMOOTH",
"348 654 LINE SMOOTH",
"348 832.667 OFFCURVE",
"386.667 972.167 OFFCURVE",
"464 1072.5 CURVE SMOOTH",
"521 1146 OFFCURVE",
"598 1201 OFFCURVE",
"697 1237 CURVE SMOOTH",
"770 1264 OFFCURVE",
"806 1302 OFFCURVE",
"795 1366 CURVE SMOOTH",
"785 1430 OFFCURVE",
"733 1459 OFFCURVE",
"654 1437 CURVE SMOOTH",
"548 1407 OFFCURVE",
"459 1364 OFFCURVE",
"386.5 1306.5 CURVE SMOOTH",
"287.5 1228.167 OFFCURVE",
"215.667 1129.5 OFFCURVE",
"171 1010.5 CURVE SMOOTH",
"126.333 891.5 OFFCURVE",
"104 757.667 OFFCURVE",
"104 609 CURVE SMOOTH",
"104 551 LINE SMOOTH",
"104 451.667 OFFCURVE",
"123 358.5 OFFCURVE",
"161 271.5 CURVE SMOOTH",
"199 184.5 OFFCURVE",
"254.833 114.167 OFFCURVE",
"328.5 60.5 CURVE SMOOTH",
"402.167 6.833 OFFCURVE",
"493 -20 OFFCURVE",
"601 -20 CURVE SMOOTH",
"753.667 -20 OFFCURVE",
"871.667 22.5 OFFCURVE",
"955 107.5 CURVE SMOOTH",
"1038.333 192.5 OFFCURVE",
"1080 308.333 OFFCURVE",
"1080 455 CURVE SMOOTH",
"1080 539.667 OFFCURVE",
"1062.667 617 OFFCURVE",
"1028 687 CURVE SMOOTH",
"993.333 757 OFFCURVE",
"946 816.667 OFFCURVE",
"886 866 CURVE SMOOTH",
"856 891 OFFCURVE",
"823 912 OFFCURVE",
"789 931 CURVE SMOOTH",
"721 967 OFFCURVE",
"666 943 OFFCURVE",
"639 883 CURVE SMOOTH",
"611 823 OFFCURVE",
"633 783 OFFCURVE",
"690 744 CURVE SMOOTH"
);
}
);
userData = {
assembly = "NPUSHB[ ]	/* 22 values pushed */\01218 17 1 3 1 74 0 1 1 0 97 0 0 0 110 0 78 47 39 2 12 24 \012CALL[ ]	/* CallFunction */";
};
width = 1184;
}
);
note = uni1EFC;
unicode = 1EFC;
},
{
glyphname = "Gamma-latin";
lastChange = "2024-07-06 19:26:32 +0000";
layers = (
{
layerId = "6C6EE9F0-1505-4036-BE3C-A809537EF5EF";
paths = (
{
closed = 1;
nodes = (
"95 1490 OFFCURVE",
"61 1432 OFFCURVE",
"100 1345 CURVE SMOOTH",
"570 309 LINE",
"461 67.5 LINE SMOOTH",
"433 5.833 OFFCURVE",
"412.333 -44.167 OFFCURVE",
"399 -82.5 CURVE SMOOTH",
"385.667 -120.833 OFFCURVE",
"379 -155 OFFCURVE",
"379 -185 CURVE SMOOTH",
"379 -267 OFFCURVE",
"406.5 -330.333 OFFCURVE",
"461.5 -375 CURVE SMOOTH",
"516.5 -419.667 OFFCURVE",
"591 -442 OFFCURVE",
"685 -442 CURVE SMOOTH",
"779 -442 OFFCURVE",
"853.167 -419.5 OFFCURVE",
"907.5 -374.5 CURVE SMOOTH",
"961.833 -329.5 OFFCURVE",
"989 -267.333 OFFCURVE",
"989 -188 CURVE SMOOTH",
"989 -142 OFFCURVE",
"971.833 -81.167 OFFCURVE",
"937.5 -5.5 CURVE SMOOTH",
"903.167 70.167 OFFCURVE",
"857.333 172.667 OFFCURVE",
"800 302 CURVE",
"1270 1345 LINE SMOOTH",
"1309 1432 OFFCURVE",
"1274 1490 OFFCURVE",
"1184 1490 CURVE SMOOTH",
"1114 1490 OFFCURVE",
"1068 1460 OFFCURVE",
"1040 1395 CURVE SMOOTH",
"684 570 LINE",
"329 1395 LINE SMOOTH",
"301 1460 OFFCURVE",
"255 1490 OFFCURVE",
"185 1490 CURVE SMOOTH"
);
},
{
closed = 1;
nodes = (
"711 -3.333 OFFCURVE",
"729.667 -49.333 OFFCURVE",
"743 -86 CURVE SMOOTH",
"756.333 -122.667 OFFCURVE",
"763 -154 OFFCURVE",
"763 -180 CURVE SMOOTH",
"763 -202.667 OFFCURVE",
"755.833 -221.667 OFFCURVE",
"741.5 -237 CURVE SMOOTH",
"727.167 -252.333 OFFCURVE",
"708.333 -260 OFFCURVE",
"685 -260 CURVE SMOOTH",
"661 -260 OFFCURVE",
"642 -252.5 OFFCURVE",
"628 -237.5 CURVE SMOOTH",
"614 -222.5 OFFCURVE",
"607 -203.333 OFFCURVE",
"607 -180 CURVE SMOOTH",
"607 -154.667 OFFCURVE",
"614 -123.667 OFFCURVE",
"628 -87 CURVE SMOOTH",
"642 -50.333 OFFCURVE",
"661.667 -4 OFFCURVE",
"687 52 CURVE"
);
}
);
userData = {
assembly = "NPUSHB[ ]	/* 32 values pushed */\01218 5 2 3 3 0 1 76 1 1 0 0 103 77 0 3 3 2 97 0 2 2 114 2 78 44 38 18 16 4 12 26 \012CALL[ ]	/* CallFunction */";
};
width = 1370;
}
);
leftKerningGroup = V;
note = Gamma1;
rightKerningGroup = V;
unicode = 0194;
},
{
glyphname = Vhook;
lastChange = "2024-07-06 19:26:32 +0000";
layers = (
{
layerId = "6C6EE9F0-1505-4036-BE3C-A809537EF5EF";
paths = (
{
closed = 1;
nodes = (
"761.667 -20 OFFCURVE",
"853.5 -1.167 OFFCURVE",
"936.5 36.5 CURVE SMOOTH",
"1019.5 74.167 OFFCURVE",
"1085.667 130.333 OFFCURVE",
"1135 205 CURVE SMOOTH",
"1184.333 279.667 OFFCURVE",
"1209 372 OFFCURVE",
"1209 482 CURVE SMOOTH",
"1209 1138 LINE SMOOTH",
"1209 1257.333 OFFCURVE",
"1176.833 1349.167 OFFCURVE",
"1112.5 1413.5 CURVE SMOOTH",
"1048.167 1477.833 OFFCURVE",
"965.333 1510 OFFCURVE",
"864 1510 CURVE SMOOTH",
"840.667 1510 OFFCURVE",
"817.5 1508.333 OFFCURVE",
"794.5 1505 CURVE SMOOTH",
"783 1503 OFFCURVE",
"773 1502 OFFCURVE",
"762 1499 CURVE SMOOTH",
"741 1495 OFFCURVE",
"731 1454 OFFCURVE",
"731 1379 CURVE SMOOTH",
"731 1299 LINE",
"742.333 1301.667 OFFCURVE",
"755.333 1303.5 OFFCURVE",
"770 1304.5 CURVE SMOOTH",
"784.667 1305.5 OFFCURVE",
"797 1306 OFFCURVE",
"807 1306 CURVE SMOOTH",
"857.667 1306 OFFCURVE",
"895.667 1293.667 OFFCURVE",
"921 1269 CURVE SMOOTH",
"946.333 1244.333 OFFCURVE",
"959.333 1200.667 OFFCURVE",
"960 1138 CURVE SMOOTH",
"960 482 LINE SMOOTH",
"960 378.667 OFFCURVE",
"933.667 302 OFFCURVE",
"881 252 CURVE SMOOTH",
"828.333 202 OFFCURVE",
"755 177 OFFCURVE",
"661 177 CURVE SMOOTH",
"566.333 177 OFFCURVE",
"492.333 202 OFFCURVE",
"439 252 CURVE SMOOTH",
"385.667 302 OFFCURVE",
"359 378.667 OFFCURVE",
"359 482 CURVE SMOOTH",
"359 1366 LINE SMOOTH",
"359 1446 OFFCURVE",
"316 1490 OFFCURVE",
"236 1490 CURVE SMOOTH",
"156 1490 OFFCURVE",
"113 1446 OFFCURVE",
"113 1366 CURVE SMOOTH",
"113 482 LINE SMOOTH",
"113 371.333 OFFCURVE",
"137 278.833 OFFCURVE",
"185 204.5 CURVE SMOOTH",
"233 130.167 OFFCURVE",
"298.333 74.167 OFFCURVE",
"381 36.5 CURVE SMOOTH",
"463.667 -1.167 OFFCURVE",
"557 -20 OFFCURVE",
"661 -20 CURVE SMOOTH"
);
}
);
userData = {
assembly = "MPPEM[ ]	/* MeasurePixelPerEm */\012PUSHB[ ]	/* 1 value pushed */\01225 \012LT[ ]	/* LessThan */\012IF[ ]	/* If */\012NPUSHB[ ]	/* 10 values pushed */\01220 1 2 3 1 76 21 1 1 74 \012ELSE[ ]	/* Else */\012NPUSHB[ ]	/* 10 values pushed */\01221 1 1 4 20 1 2 3 2 76 \012EIF[ ]	/* EndIf */\012MPPEM[ ]	/* MeasurePixelPerEm */\012PUSHB[ ]	/* 1 value pushed */\01225 \012LT[ ]	/* LessThan */\012IF[ ]	/* If */\012NPUSHB[ ]	/* 23 values pushed */\0120 3 3 1 97 4 1 1 1 103 77 0 2 2 0 97 5 1 0 0 110 0 78 \012ELSE[ ]	/* Else */\012NPUSHB[ ]	/* 27 values pushed */\0120 1 1 103 77 0 3 3 4 97 0 4 4 109 77 0 2 2 0 97 5 1 0 0 110 0 78 \012EIF[ ]	/* EndIf */\012NPUSHB[ ]	/* 17 values pushed */\0121 0 25 23 19 16 11 9 6 5 0 31 1 31 6 12 22 \012CALL[ ]	/* CallFunction */";
};
width = 1321;
}
);
note = Vcursive;
unicode = 01B2;
},
{
glyphname = Vturned;
lastChange = "2024-07-06 19:26:32 +0000";
layers = (
{
layerId = "6C6EE9F0-1505-4036-BE3C-A809537EF5EF";
paths = (
{
closed = 1;
nodes = (
"1254 0 LINE SMOOTH",
"1345 0 OFFCURVE",
"1385 55 OFFCURVE",
"1354 142 CURVE SMOOTH",
"909 1390 LINE SMOOTH",
"885 1458 OFFCURVE",
"839 1490 OFFCURVE",
"767 1490 CURVE SMOOTH",
"743 1490 LINE SMOOTH",
"671 1490 OFFCURVE",
"625 1458 OFFCURVE",
"601 1390 CURVE SMOOTH",
"156 142 LINE SMOOTH",
"125 55 OFFCURVE",
"165 0 OFFCURVE",
"256 0 CURVE SMOOTH",
"271 0 LINE SMOOTH",
"343 0 OFFCURVE",
"389 32 OFFCURVE",
"411 102 CURVE SMOOTH",
"754 1176 LINE",
"1101 102 LINE SMOOTH",
"1123 33 OFFCURVE",
"1169 0 OFFCURVE",
"1241 0 CURVE SMOOTH"
);
}
);
userData = {
assembly = "NPUSHB[ ]	/* 30 values pushed */\0121 1 0 1 1 76 0 1 1 103 77 3 2 2 0 0 104 0 78 0 0 0 6 0 6 17 18 4 12 24 \012CALL[ ]	/* CallFunction */";
};
width = 1510;
}
);
note = uni0245;
unicode = 0245;
},
{
glyphname = W;
lastChange = "2024-07-06 19:26:32 +0000";
layers = (
{
layerId = "6C6EE9F0-1505-4036-BE3C-A809537EF5EF";
paths = (
{
closed = 1;
nodes = (
"609 0 LINE SMOOTH",
"683 0 OFFCURVE",
"728 34 OFFCURVE",
"747 106 CURVE SMOOTH",
"955 883 LINE SMOOTH",
"969.667 938.333 OFFCURVE",
"982.5 993.833 OFFCURVE",
"993.5 1049.5 CURVE SMOOTH",
"1004.5 1105.167 OFFCURVE",
"1015.333 1163.667 OFFCURVE",
"1026 1225 CURVE",
"1036.667 1160.333 OFFCURVE",
"1047.833 1099.667 OFFCURVE",
"1059.5 1043 CURVE SMOOTH",
"1071.167 986.333 OFFCURVE",
"1083.667 933 OFFCURVE",
"1097 883 CURVE SMOOTH",
"1306 106 LINE SMOOTH",
"1325 34 OFFCURVE",
"1370 0 OFFCURVE",
"1444 0 CURVE SMOOTH",
"1488 0 LINE SMOOTH",
"1561 0 OFFCURVE",
"1607 35 OFFCURVE",
"1626 106 CURVE SMOOTH",
"1965 1351 LINE SMOOTH",
"1988 1436 OFFCURVE",
"1952 1490 OFFCURVE",
"1871 1490 CURVE SMOOTH",
"1797 1490 OFFCURVE",
"1752 1455 OFFCURVE",
"1734 1383 CURVE SMOOTH",
"1546 636 LINE SMOOTH",
"1530.667 571.333 OFFCURVE",
"1515.833 504 OFFCURVE",
"1501.5 434 CURVE SMOOTH",
"1487.167 364 OFFCURVE",
"1473.667 293.667 OFFCURVE",
"1461 223 CURVE",
"1447 293.667 OFFCURVE",
"1432.667 364 OFFCURVE",
"1418 434 CURVE SMOOTH",
"1403.333 504 OFFCURVE",
"1387.667 571.333 OFFCURVE",
"1371 636 CURVE SMOOTH",
"1179 1383 LINE SMOOTH",
"1161 1455 OFFCURVE",
"1116 1490 OFFCURVE",
"1042 1490 CURVE SMOOTH",
"1012 1490 LINE SMOOTH",
"938 1490 OFFCURVE",
"892 1454 OFFCURVE",
"874 1383 CURVE SMOOTH",
"681 636 LINE SMOOTH",
"663.667 570.667 OFFCURVE",
"647.833 502.5 OFFCURVE",
"633.5 431.5 CURVE SMOOTH",
"591 217 LINE",
"578.333 289 OFFCURVE",
"565 360.5 OFFCURVE",
"551 431.5 CURVE SMOOTH",
"537 502.5 OFFCURVE",
"522 570.667 OFFCURVE",
"506 636 CURVE SMOOTH",
"318 1383 LINE SMOOTH",
"300 1455 OFFCURVE",
"255 1490 OFFCURVE",
"181 1490 CURVE SMOOTH",
"171 1490 LINE SMOOTH",
"97 1490 OFFCURVE",
"66 1436 OFFCURVE",
"89 1351 CURVE SMOOTH",
"426 106 LINE SMOOTH",
"445 34 OFFCURVE",
"491 0 OFFCURVE",
"564 0 CURVE SMOOTH"
);
}
);
userData = {
assembly = "NPUSHB[ ]	/* 36 values pushed */\01226 15 6 3 3 0 1 76 2 1 2 0 0 103 77 5 4 2 3 3 104 3 78 0 0 0 30 0 30 17 24 24 17 6 12 26 \012CALL[ ]	/* CallFunction */";
};
width = 2054;
}
);
leftKerningGroup = W;
note = W;
rightKerningGroup = W;
unicode = 0057;
},
{
glyphname = Wynn;
lastChange = "2024-07-06 19:26:32 +0000";
layers = (
{
layerId = "6C6EE9F0-1505-4036-BE3C-A809537EF5EF";
paths = (
{
closed = 1;
nodes = (
"378 1477 OFFCURVE",
"335 1490 OFFCURVE",
"255 1490 CURVE SMOOTH",
"175 1490 OFFCURVE",
"131 1446 OFFCURVE",
"131 1366 CURVE SMOOTH",
"131 -294 LINE SMOOTH",
"131 -374 OFFCURVE",
"175 -418 OFFCURVE",
"255 -418 CURVE SMOOTH",
"255 -418 LINE SMOOTH",
"335 -418 OFFCURVE",
"378 -374 OFFCURVE",
"378 -294 CURVE SMOOTH",
"378 -158 LINE",
"549.333 -114 OFFCURVE",
"699.833 -44.833 OFFCURVE",
"829.5 49.5 CURVE SMOOTH",
"959.167 143.833 OFFCURVE",
"1060.333 257 OFFCURVE",
"1133 389 CURVE SMOOTH",
"1205.667 521 OFFCURVE",
"1242 664.333 OFFCURVE",
"1242 819 CURVE SMOOTH",
"1242 871 LINE SMOOTH",
"1242 1013.667 OFFCURVE",
"1217 1132.333 OFFCURVE",
"1167 1227 CURVE SMOOTH",
"1117 1321.667 OFFCURVE",
"1047 1392.5 OFFCURVE",
"957 1439.5 CURVE SMOOTH",
"867 1486.5 OFFCURVE",
"762.667 1510 OFFCURVE",
"644 1510 CURVE SMOOTH",
"588 1510 OFFCURVE",
"538.167 1505 OFFCURVE",
"494.5 1495 CURVE SMOOTH",
"450.833 1485 OFFCURVE",
"412 1471 OFFCURVE",
"378 1453 CURVE"
);
},
{
closed = 1;
nodes = (
"378 1196 LINE",
"405.333 1232.667 OFFCURVE",
"440.833 1261 OFFCURVE",
"484.5 1281 CURVE SMOOTH",
"528.167 1301 OFFCURVE",
"582.333 1311 OFFCURVE",
"647 1311 CURVE SMOOTH",
"766.333 1311 OFFCURVE",
"854 1273.667 OFFCURVE",
"910 1199 CURVE SMOOTH",
"966 1124.333 OFFCURVE",
"994 1016.333 OFFCURVE",
"994 875 CURVE SMOOTH",
"994 819 LINE SMOOTH",
"994 713.667 OFFCURVE",
"971.833 609.833 OFFCURVE",
"927.5 507.5 CURVE SMOOTH",
"883.167 405.167 OFFCURVE",
"815.5 313.333 OFFCURVE",
"724.5 232 CURVE SMOOTH",
"633.5 150.667 OFFCURVE",
"518 88.667 OFFCURVE",
"378 46 CURVE"
);
}
);
userData = {
assembly = "MPPEM[ ]	/* MeasurePixelPerEm */\012PUSHB[ ]	/* 1 value pushed */\01225 \012LT[ ]	/* LessThan */\012IF[ ]	/* If */\012NPUSHB[ ]	/* 12 values pushed */\0121 1 3 0 28 17 13 3 1 3 2 76 \012ELSE[ ]	/* Else */\012NPUSHB[ ]	/* 12 values pushed */\0121 1 3 2 28 17 13 3 1 3 2 76 \012EIF[ ]	/* EndIf */\012MPPEM[ ]	/* MeasurePixelPerEm */\012PUSHB[ ]	/* 1 value pushed */\01225 \012LT[ ]	/* LessThan */\012IF[ ]	/* If */\012NPUSHB[ ]	/* 18 values pushed */\0120 3 3 0 97 4 2 2 0 0 109 77 0 1 1 108 1 78 \012ELSE[ ]	/* Else */\012NPUSHB[ ]	/* 22 values pushed */\0124 1 2 2 103 77 0 3 3 0 97 0 0 0 109 77 0 1 1 108 1 78 \012EIF[ ]	/* EndIf */\012NPUSHB[ ]	/* 13 values pushed */\0120 0 26 24 0 16 0 16 25 35 5 12 24 \012CALL[ ]	/* CallFunction */";
};
width = 1373;
}
);
note = uni01F7;
unicode = 01F7;
},
{
glyphname = X;
lastChange = "2024-07-06 19:26:32 +0000";
layers = (
{
layerId = "6C6EE9F0-1505-4036-BE3C-A809537EF5EF";
paths = (
{
closed = 1;
nodes = (
"221 0 LINE SMOOTH",
"287 0 OFFCURVE",
"333 24 OFFCURVE",
"371 79 CURVE SMOOTH",
"563 356 LINE SMOOTH",
"600.333 410 OFFCURVE",
"629.833 454.833 OFFCURVE",
"651.5 490.5 CURVE SMOOTH",
"673.167 526.167 OFFCURVE",
"695.333 565.333 OFFCURVE",
"718 608 CURVE",
"741.333 564 OFFCURVE",
"763.5 524.5 OFFCURVE",
"784.5 489.5 CURVE SMOOTH",
"805.5 454.5 OFFCURVE",
"834.333 410 OFFCURVE",
"871 356 CURVE SMOOTH",
"1060 79 LINE SMOOTH",
"1098 23 OFFCURVE",
"1143 0 OFFCURVE",
"1210 0 CURVE SMOOTH",
"1247 0 LINE SMOOTH",
"1321 0 OFFCURVE",
"1335 65 OFFCURVE",
"1277 150 CURVE SMOOTH",
"852 770 LINE",
"1244 1340 LINE SMOOTH",
"1302 1425 OFFCURVE",
"1275 1490 OFFCURVE",
"1184 1490 CURVE SMOOTH",
"1117 1490 OFFCURVE",
"1072 1467 OFFCURVE",
"1034 1411 CURVE SMOOTH",
"887 1196 LINE SMOOTH",
"845.667 1135.333 OFFCURVE",
"813.5 1084.833 OFFCURVE",
"790.5 1044.5 CURVE SMOOTH",
"767.5 1004.167 OFFCURVE",
"744 960.667 OFFCURVE",
"720 914 CURVE",
"696 961.333 OFFCURVE",
"672.667 1005 OFFCURVE",
"650 1045 CURVE SMOOTH",
"627.333 1085 OFFCURVE",
"595.667 1135.333 OFFCURVE",
"555 1196 CURVE SMOOTH",
"411 1410 LINE SMOOTH",
"374 1466 OFFCURVE",
"329 1490 OFFCURVE",
"262 1490 CURVE SMOOTH",
"226 1490 LINE SMOOTH",
"152 1490 OFFCURVE",
"139 1424 OFFCURVE",
"196 1340 CURVE SMOOTH",
"589 763 LINE",
"160 151 LINE SMOOTH",
"101 66 OFFCURVE",
"113 0 OFFCURVE",
"186 0 CURVE SMOOTH"
);
}
);
userData = {
assembly = "NPUSHB[ ]	/* 35 values pushed */\01219 13 7 1 4 2 0 1 76 1 1 0 0 103 77 4 3 2 2 2 104 2 78 0 0 0 23 0 23 18 24 18 5 12 25 \012CALL[ ]	/* CallFunction */";
};
width = 1435;
}
);
leftKerningGroup = X;
note = X;
rightKerningGroup = X;
unicode = 0058;
},
{
glyphname = Y;
lastChange = "2024-07-06 19:26:32 +0000";
layers = (
{
layerId = "6C6EE9F0-1505-4036-BE3C-A809537EF5EF";
paths = (
{
closed = 1;
nodes = (
"600 124 LINE SMOOTH",
"600 44 OFFCURVE",
"640 0 OFFCURVE",
"714 0 CURVE SMOOTH",
"788 0 OFFCURVE",
"828 44 OFFCURVE",
"828 124 CURVE SMOOTH",
"828 593 LINE",
"1284 1341 LINE SMOOTH",
"1336 1427 OFFCURVE",
"1303 1490 OFFCURVE",
"1208 1490 CURVE SMOOTH",
"1140 1490 OFFCURVE",
"1094 1464 OFFCURVE",
"1060 1405 CURVE SMOOTH",
"833 1015 LINE SMOOTH",
"811 977 OFFCURVE",
"790.667 940.167 OFFCURVE",
"772 904.5 CURVE SMOOTH",
"753.333 868.833 OFFCURVE",
"734.667 828.333 OFFCURVE",
"716 783 CURVE",
"698 827 OFFCURVE",
"679.5 866.833 OFFCURVE",
"660.5 902.5 CURVE SMOOTH",
"641.5 938.167 OFFCURVE",
"620.333 975.667 OFFCURVE",
"597 1015 CURVE SMOOTH",
"367 1405 LINE SMOOTH",
"333 1463 OFFCURVE",
"287 1490 OFFCURVE",
"219 1490 CURVE SMOOTH",
"184 1490 LINE SMOOTH",
"108 1490 OFFCURVE",
"90 1427 OFFCURVE",
"142 1341 CURVE SMOOTH",
"600 593 LINE"
);
}
);
userData = {
assembly = "NPUSHB[ ]	/* 32 values pushed */\01213 7 1 3 2 0 1 76 1 1 0 0 103 77 3 1 2 2 104 2 78 0 0 0 14 0 14 24 18 4 12 24 \012CALL[ ]	/* CallFunction */";
};
width = 1426;
}
);
leftKerningGroup = Y;
note = Y;
rightKerningGroup = Y;
unicode = 0059;
},
{
glyphname = Yhook;
lastChange = "2024-07-06 19:26:32 +0000";
layers = (
{
layerId = "6C6EE9F0-1505-4036-BE3C-A809537EF5EF";
paths = (
{
closed = 1;
nodes = (
"123 1490 OFFCURVE",
"95 1427 OFFCURVE",
"148 1341 CURVE SMOOTH",
"608 600 LINE",
"608 124 LINE SMOOTH",
"608 44 OFFCURVE",
"648 0 OFFCURVE",
"722 0 CURVE SMOOTH",
"796 0 OFFCURVE",
"836 44 OFFCURVE",
"836 124 CURVE SMOOTH",
"836 600 LINE",
"1223 1226 LINE SMOOTH",
"1249.667 1269.333 OFFCURVE",
"1278.5 1295.833 OFFCURVE",
"1309.5 1305.5 CURVE SMOOTH",
"1326 1311 OFFCURVE",
"1344 1312 OFFCURVE",
"1363 1310 CURVE SMOOTH",
"1400 1306 OFFCURVE",
"1425 1326 OFFCURVE",
"1444 1387 CURVE SMOOTH",
"1462 1445 OFFCURVE",
"1431 1502 OFFCURVE",
"1349 1507 CURVE SMOOTH",
"1311 1510 OFFCURVE",
"1272 1505 OFFCURVE",
"1234 1494.5 CURVE SMOOTH",
"1155.333 1472.167 OFFCURVE",
"1089.667 1416.667 OFFCURVE",
"1037 1328 CURVE SMOOTH",
"730 813 LINE",
"714 813 LINE",
"361 1406 LINE SMOOTH",
"326 1464 OFFCURVE",
"281 1490 OFFCURVE",
"213 1490 CURVE SMOOTH"
);
}
);
userData = {
assembly = "NPUSHB[ ]	/* 26 values pushed */\01215 12 8 7 2 5 1 0 1 76 0 0 0 103 77 0 1 1 104 1 78 28 16 2 12 24 \012CALL[ ]	/* CallFunction */";
};
width = 1509;
}
);
leftKerningGroup = Y;
note = uni01B3;
rightKerningGroup = Y;
unicode = 01B3;
},
{
glyphname = Yloop;
lastChange = "2024-07-06 19:26:32 +0000";
layers = (
{
layerId = "6C6EE9F0-1505-4036-BE3C-A809537EF5EF";
paths = (
{
closed = 1;
nodes = (
"339 1490 LINE SMOOTH",
"242 1490 OFFCURVE",
"205 1429 OFFCURVE",
"250 1343 CURVE SMOOTH",
"600 684 LINE",
"556.667 701.333 OFFCURVE",
"510.667 710 OFFCURVE",
"462 710 CURVE SMOOTH",
"394 710 OFFCURVE",
"332.167 693.5 OFFCURVE",
"276.5 660.5 CURVE SMOOTH",
"220.833 627.5 OFFCURVE",
"176.5 583.333 OFFCURVE",
"143.5 528 CURVE SMOOTH",
"110.5 472.667 OFFCURVE",
"94 411.667 OFFCURVE",
"94 345 CURVE SMOOTH",
"94 277 OFFCURVE",
"110.5 215.5 OFFCURVE",
"143.5 160.5 CURVE SMOOTH",
"176.5 105.5 OFFCURVE",
"220.833 61.667 OFFCURVE",
"276.5 29 CURVE SMOOTH",
"332.167 -3.667 OFFCURVE",
"394 -20 OFFCURVE",
"462 -20 CURVE SMOOTH",
"540.667 -20 OFFCURVE",
"611.167 2.333 OFFCURVE",
"673.5 47 CURVE SMOOTH",
"735.833 91.667 OFFCURVE",
"780 149 OFFCURVE",
"806 219 CURVE",
"1363 1343 LINE SMOOTH",
"1406 1430 OFFCURVE",
"1368 1490 OFFCURVE",
"1272 1490 CURVE SMOOTH",
"1268 1490 LINE SMOOTH",
"1198 1490 OFFCURVE",
"1152 1460 OFFCURVE",
"1123 1397 CURVE SMOOTH",
"816 735 LINE",
"488 1399 LINE SMOOTH",
"457 1462 OFFCURVE",
"411 1490 OFFCURVE",
"342 1490 CURVE SMOOTH"
);
},
{
closed = 1;
nodes = (
"418.667 188 OFFCURVE",
"382.333 201.5 OFFCURVE",
"353 228.5 CURVE SMOOTH",
"323.667 255.5 OFFCURVE",
"309 294.667 OFFCURVE",
"309 346 CURVE SMOOTH",
"309 398.667 OFFCURVE",
"323.667 438.167 OFFCURVE",
"353 464.5 CURVE SMOOTH",
"382.333 490.833 OFFCURVE",
"418.667 504 OFFCURVE",
"462 504 CURVE SMOOTH",
"503.333 504 OFFCURVE",
"538.667 490.833 OFFCURVE",
"568 464.5 CURVE SMOOTH",
"597.333 438.167 OFFCURVE",
"612 398.667 OFFCURVE",
"612 346 CURVE SMOOTH",
"612 294.667 OFFCURVE",
"597.333 255.5 OFFCURVE",
"568 228.5 CURVE SMOOTH",
"538.667 201.5 OFFCURVE",
"503.333 188 OFFCURVE",
"462 188 CURVE SMOOTH"
);
}
);
userData = {
assembly = "NPUSHB[ ]	/* 57 values pushed */\0121 1 2 0 17 1 5 2 2 76 0 2 0 5 4 2 5 106 6 3 2 0 0 103 77 7 1 4 4 1 97 0 1 1 110 1 78 20 19 0 0 26 24 19 30 20 30 0 18 0 18 38 35 18 8 12 25 \012CALL[ ]	/* CallFunction */";
};
width = 1512;
}
);
note = uni1EFE;
unicode = 1EFE;
},
{
glyphname = Yr;
lastChange = "2024-07-06 19:26:32 +0000";
layers = (
{
layerId = "6C6EE9F0-1505-4036-BE3C-A809537EF5EF";
paths = (
{
closed = 1;
nodes = (
"1403 -356 LINE",
"1403 -351 LINE SMOOTH",
"1403 -347 OFFCURVE",
"1392 -326 OFFCURVE",
"1364 -273 CURVE SMOOTH",
"865 650 LINE",
"954.333 684 OFFCURVE",
"1024 734.667 OFFCURVE",
"1074 802 CURVE SMOOTH",
"1124 869.333 OFFCURVE",
"1149 952.333 OFFCURVE",
"1149 1051 CURVE SMOOTH",
"1149 1193.667 OFFCURVE",
"1103.167 1302.5 OFFCURVE",
"1011.5 1377.5 CURVE SMOOTH",
"919.833 1452.5 OFFCURVE",
"789.667 1490 OFFCURVE",
"621 1490 CURVE SMOOTH",
"356 1490 LINE",
"356 1541 LINE SMOOTH",
"356 1574 OFFCURVE",
"312 1592 OFFCURVE",
"232 1592 CURVE SMOOTH",
"231 1592 LINE SMOOTH",
"151 1592 OFFCURVE",
"107 1548 OFFCURVE",
"107 1468 CURVE SMOOTH",
"107 124 LINE SMOOTH",
"107 44 OFFCURVE",
"151 0 OFFCURVE",
"231 0 CURVE SMOOTH",
"232 0 LINE SMOOTH",
"312 0 OFFCURVE",
"356 44 OFFCURVE",
"356 124 CURVE SMOOTH",
"356 599 LINE",
"631 599 LINE",
"1091 -268 LINE SMOOTH",
"1123 -329 OFFCURVE",
"1169 -356 OFFCURVE",
"1238 -356 CURVE SMOOTH"
);
},
{
closed = 1;
nodes = (
"356 796 LINE",
"356 1290 LINE",
"621 1290 LINE SMOOTH",
"720.333 1290 OFFCURVE",
"792.167 1267.333 OFFCURVE",
"836.5 1222 CURVE SMOOTH",
"880.833 1176.667 OFFCURVE",
"903 1116.333 OFFCURVE",
"903 1041 CURVE SMOOTH",
"903 970.333 OFFCURVE",
"879.333 911.667 OFFCURVE",
"832 865 CURVE SMOOTH",
"784.667 818.333 OFFCURVE",
"714.333 795.333 OFFCURVE",
"621 796 CURVE SMOOTH"
);
}
);
userData = {
assembly = "NPUSHB[ ]	/* 58 values pushed */\01214 1 0 5 1 76 7 1 4 1 4 134 0 5 0 0 1 5 0 103 0 6 6 3 95 0 3 3 103 77 0 2 2 1 95 0 1 1 104 1 78 0 0 25 23 19 17 0 16 0 15 33 17 17 17 8 12 26 \012CALL[ ]	/* CallFunction */";
};
width = 1510;
}
);
note = YR;
unicode = 01A6;
},
{
glyphname = Ystroke;
lastChange = "2024-07-06 19:26:32 +0000";
layers = (
{
layerId = "6C6EE9F0-1505-4036-BE3C-A809537EF5EF";
paths = (
{
closed = 1;
nodes = (
"1394 1160 OFFCURVE",
"1350 1183 OFFCURVE",
"1270 1183 CURVE SMOOTH",
"1187 1183 LINE",
"1284 1341 LINE SMOOTH",
"1336 1427 OFFCURVE",
"1303 1490 OFFCURVE",
"1208 1490 CURVE SMOOTH",
"1140 1490 OFFCURVE",
"1094 1464 OFFCURVE",
"1060 1405 CURVE SMOOTH",
"931 1183 LINE",
"498 1183 LINE",
"367 1405 LINE SMOOTH",
"333 1463 OFFCURVE",
"287 1490 OFFCURVE",
"219 1490 CURVE SMOOTH",
"184 1490 LINE SMOOTH",
"108 1490 OFFCURVE",
"90 1427 OFFCURVE",
"142 1341 CURVE SMOOTH",
"239 1183 LINE",
"125 1183 LINE SMOOTH",
"51 1183 OFFCURVE",
"10 1160 OFFCURVE",
"10 1117 CURVE SMOOTH",
"10 1074 OFFCURVE",
"54 1050 OFFCURVE",
"134 1050 CURVE SMOOTH",
"321 1050 LINE",
"600 593 LINE",
"600 124 LINE SMOOTH",
"600 44 OFFCURVE",
"640 0 OFFCURVE",
"714 0 CURVE SMOOTH",
"788 0 OFFCURVE",
"828 44 OFFCURVE",
"828 124 CURVE SMOOTH",
"828 593 LINE",
"1107 1050 LINE",
"1270 1050 LINE SMOOTH",
"1350 1050 OFFCURVE",
"1394 1074 OFFCURVE",
"1394 1117 CURVE SMOOTH"
);
},
{
closed = 1;
nodes = (
"853 1050 LINE",
"833 1015 LINE SMOOTH",
"811 977 OFFCURVE",
"790.667 940.167 OFFCURVE",
"772 904.5 CURVE SMOOTH",
"753.333 868.833 OFFCURVE",
"734.667 828.333 OFFCURVE",
"716 783 CURVE",
"698 827 OFFCURVE",
"679.5 866.833 OFFCURVE",
"660.5 902.5 CURVE SMOOTH",
"641.5 938.167 OFFCURVE",
"620.333 975.667 OFFCURVE",
"597 1015 CURVE SMOOTH",
"577 1050 LINE"
);
}
);
userData = {
assembly = "NPUSHB[ ]	/* 51 values pushed */\01223 6 3 3 1 0 1 76 9 7 5 3 3 8 2 2 0 1 3 0 104 6 1 4 4 103 77 0 1 1 104 1 78 0 0 19 18 0 17 0 17 17 17 17 17 18 18 17 10 12 29 \012CALL[ ]	/* CallFunction */";
};
width = 1404;
}
);
leftKerningGroup = Y;
note = uni024E;
rightKerningGroup = Y;
unicode = 024E;
},
{
glyphname = Z;
lastChange = "2024-07-06 19:26:32 +0000";
layers = (
{
layerId = "6C6EE9F0-1505-4036-BE3C-A809537EF5EF";
paths = (
{
closed = 1;
nodes = (
"125 26 OFFCURVE",
"169 0 OFFCURVE",
"249 0 CURVE SMOOTH",
"1069 0 LINE SMOOTH",
"1149 0 OFFCURVE",
"1193 35 OFFCURVE",
"1193 98 CURVE SMOOTH",
"1193 161 OFFCURVE",
"1149 196 OFFCURVE",
"1069 196 CURVE SMOOTH",
"686 196 LINE",
"536.5 195.5 LINE SMOOTH",
"486.833 195.167 OFFCURVE",
"437.333 193.667 OFFCURVE",
"388 191 CURVE",
"416.667 227 OFFCURVE",
"444.833 263.167 OFFCURVE",
"472.5 299.5 CURVE SMOOTH",
"500.167 335.833 OFFCURVE",
"526.667 372.333 OFFCURVE",
"552 409 CURVE SMOOTH",
"1139 1268 LINE SMOOTH",
"1173 1318 OFFCURVE",
"1187 1360 OFFCURVE",
"1187 1414 CURVE SMOOTH",
"1187 1463 OFFCURVE",
"1143 1490 OFFCURVE",
"1063 1490 CURVE SMOOTH",
"243 1490 LINE SMOOTH",
"163 1490 OFFCURVE",
"119 1455 OFFCURVE",
"119 1392 CURVE SMOOTH",
"119 1329 OFFCURVE",
"163 1294 OFFCURVE",
"243 1294 CURVE SMOOTH",
"630 1294 LINE",
"777 1294.5 LINE SMOOTH",
"826.333 1294.833 OFFCURVE",
"875.333 1296.333 OFFCURVE",
"924 1299 CURVE",
"896.667 1265 OFFCURVE",
"870 1231 OFFCURVE",
"844 1197 CURVE SMOOTH",
"818 1163 OFFCURVE",
"793.333 1129 OFFCURVE",
"770 1095 CURVE SMOOTH",
"173 220 LINE SMOOTH",
"139 170 OFFCURVE",
"125 129 OFFCURVE",
"125 75 CURVE SMOOTH"
);
}
);
userData = {
assembly = "NPUSHB[ ]	/* 44 values pushed */\01212 1 0 1 1 1 3 2 2 76 0 0 0 1 95 0 1 1 103 77 0 2 2 3 95 4 1 3 3 104 3 78 0 0 0 21 0 21 69 17 69 5 12 25 \012CALL[ ]	/* CallFunction */";
};
width = 1312;
}
);
leftKerningGroup = Z;
note = Z;
rightKerningGroup = Z;
unicode = 005A;
},
{
glyphname = Zhook;
lastChange = "2024-07-06 19:26:32 +0000";
layers = (
{
layerId = "6C6EE9F0-1505-4036-BE3C-A809537EF5EF";
paths = (
{
closed = 1;
nodes = (
"836 -429 OFFCURVE",
"856 -430 OFFCURVE",
"878 -430 CURVE SMOOTH",
"1088 -430 OFFCURVE",
"1193 -337.667 OFFCURVE",
"1193 -153 CURVE SMOOTH",
"1193 72 LINE SMOOTH",
"1193 152 OFFCURVE",
"1149 196 OFFCURVE",
"1069 196 CURVE SMOOTH",
"686 196 LINE",
"536.5 195.5 LINE SMOOTH",
"486.833 195.167 OFFCURVE",
"437.333 193.667 OFFCURVE",
"388 191 CURVE",
"416.667 227 OFFCURVE",
"444.833 263.167 OFFCURVE",
"472.5 299.5 CURVE SMOOTH",
"500.167 335.833 OFFCURVE",
"526.667 372.333 OFFCURVE",
"552 409 CURVE SMOOTH",
"1139 1268 LINE SMOOTH",
"1173 1318 OFFCURVE",
"1187 1360 OFFCURVE",
"1187 1414 CURVE SMOOTH",
"1187 1463 OFFCURVE",
"1143 1490 OFFCURVE",
"1063 1490 CURVE SMOOTH",
"243 1490 LINE SMOOTH",
"163 1490 OFFCURVE",
"119 1455 OFFCURVE",
"119 1392 CURVE SMOOTH",
"119 1329 OFFCURVE",
"163 1294 OFFCURVE",
"243 1294 CURVE SMOOTH",
"630 1294 LINE",
"777 1294.5 LINE SMOOTH",
"826.333 1294.833 OFFCURVE",
"875.333 1296.333 OFFCURVE",
"924 1299 CURVE",
"896.667 1265 OFFCURVE",
"870 1231 OFFCURVE",
"844 1197 CURVE SMOOTH",
"818 1163 OFFCURVE",
"793.333 1129 OFFCURVE",
"770 1095 CURVE SMOOTH",
"173 220 LINE SMOOTH",
"139 170 OFFCURVE",
"125 129 OFFCURVE",
"125 75 CURVE SMOOTH",
"125 27 OFFCURVE",
"169 0 OFFCURVE",
"249 0 CURVE SMOOTH",
"965 0 LINE",
"965 -142 LINE SMOOTH",
"965 -176 OFFCURVE",
"955 -200.833 OFFCURVE",
"935 -216.5 CURVE SMOOTH",
"915 -232.167 OFFCURVE",
"879 -240 OFFCURVE",
"827 -240 CURVE SMOOTH",
"817 -240 OFFCURVE",
"806 -239.5 OFFCURVE",
"794 -238.5 CURVE SMOOTH",
"788 -238 OFFCURVE",
"782 -237 OFFCURVE",
"776 -237 CURVE SMOOTH",
"765 -235 OFFCURVE",
"758 -268 OFFCURVE",
"758 -326 CURVE SMOOTH",
"758 -387 OFFCURVE",
"778 -424 OFFCURVE",
"817 -428 CURVE SMOOTH"
);
}
);
userData = {
assembly = "NPUSHB[ ]	/* 58 values pushed */\01221 1 2 3 10 1 1 4 1 1 0 1 0 1 5 0 4 76 0 2 2 3 95 0 3 3 103 77 0 4 4 1 95 0 1 1 104 77 0 0 0 5 97 0 5 5 114 5 78 34 69 17 69 19 35 6 12 28 \012CALL[ ]	/* CallFunction */";
};
width = 1312;
}
);
leftKerningGroup = Z;
note = uni0224;
rightKerningGroup = Z;
unicode = 0224;
},
{
glyphname = Zswashtail;
lastChange = "2024-07-06 19:26:32 +0000";
layers = (
{
layerId = "6C6EE9F0-1505-4036-BE3C-A809537EF5EF";
paths = (
{
closed = 1;
nodes = (
"1098.333 -436 OFFCURVE",
"1126 -433.333 OFFCURVE",
"1148 -428 CURVE SMOOTH",
"1159 -425 OFFCURVE",
"1169 -423 OFFCURVE",
"1178 -420 CURVE SMOOTH",
"1199 -413 OFFCURVE",
"1208 -378 OFFCURVE",
"1208 -313 CURVE SMOOTH",
"1208 -253 OFFCURVE",
"1145 -231 OFFCURVE",
"1145 -230.5 CURVE SMOOTH",
"1123 -234.167 OFFCURVE",
"1098 -236 OFFCURVE",
"1070 -236 CURVE SMOOTH",
"1028 -236 OFFCURVE",
"988.667 -224.5 OFFCURVE",
"952 -201.5 CURVE SMOOTH",
"915.333 -178.5 OFFCURVE",
"878.667 -149.167 OFFCURVE",
"842 -113.5 CURVE SMOOTH",
"805.333 -77.833 OFFCURVE",
"765.667 -40.667 OFFCURVE",
"723 -2 CURVE SMOOTH",
"680.333 36.667 OFFCURVE",
"632.5 72.167 OFFCURVE",
"579.5 104.5 CURVE SMOOTH",
"526.5 136.833 OFFCURVE",
"465 161 OFFCURVE",
"395 177 CURVE",
"1138 1273 LINE SMOOTH",
"1172 1324 OFFCURVE",
"1185 1364 OFFCURVE",
"1185 1417 CURVE SMOOTH",
"1185 1464 OFFCURVE",
"1141 1490 OFFCURVE",
"1061 1490 CURVE SMOOTH",
"243 1490 LINE SMOOTH",
"163 1490 OFFCURVE",
"119 1456 OFFCURVE",
"119 1393 CURVE SMOOTH",
"119 1330 OFFCURVE",
"163 1295 OFFCURVE",
"243 1295 CURVE SMOOTH",
"904 1295 LINE",
"171 216 LINE SMOOTH",
"137 165 OFFCURVE",
"124 125 OFFCURVE",
"124 73 CURVE SMOOTH",
"124 26 OFFCURVE",
"164 0 OFFCURVE",
"236 0 CURVE SMOOTH",
"312 0 OFFCURVE",
"379.167 -14.667 OFFCURVE",
"437.5 -44 CURVE SMOOTH",
"495.833 -73.333 OFFCURVE",
"549.333 -109.667 OFFCURVE",
"598 -153 CURVE SMOOTH",
"646.667 -196.333 OFFCURVE",
"694.333 -239.667 OFFCURVE",
"741 -283 CURVE SMOOTH",
"787.667 -326.333 OFFCURVE",
"837 -362.667 OFFCURVE",
"889 -392 CURVE SMOOTH",
"941 -421.333 OFFCURVE",
"999.667 -436 OFFCURVE",
"1065 -436 CURVE SMOOTH"
);
}
);
userData = {
assembly = "NPUSHB[ ]	/* 63 values pushed */\01213 1 2 3 14 8 2 1 2 23 1 4 1 24 1 0 4 4 76 0 2 2 3 95 0 3 3 103 77 0 1 1 104 77 0 4 4 0 97 5 1 0 0 114 0 78 1 0 21 19 12 11 10 9 7 5 0 26 1 26 6 12 22 \012CALL[ ]	/* CallFunction */";
};
width = 1327;
}
);
leftKerningGroup = Z;
note = uni2C7F;
rightKerningGroup = Z;
unicode = 2C7F;
},
{
glyphname = G.1;
lastChange = "2024-07-06 19:26:32 +0000";
layers = (
{
layerId = "6C6EE9F0-1505-4036-BE3C-A809537EF5EF";
paths = (
{
closed = 1;
nodes = (
"860.667 -20 OFFCURVE",
"937.5 -4.5 OFFCURVE",
"998.5 26.5 CURVE SMOOTH",
"1059.5 57.5 OFFCURVE",
"1107.5 99.167 OFFCURVE",
"1142.5 151.5 CURVE SMOOTH",
"1177.5 203.833 OFFCURVE",
"1202 261.333 OFFCURVE",
"1216 324 CURVE",
"1235 118 LINE SMOOTH",
"1242 41 OFFCURVE",
"1275 0 OFFCURVE",
"1330 0 CURVE SMOOTH",
"1384 0 OFFCURVE",
"1413 44 OFFCURVE",
"1413 124 CURVE SMOOTH",
"1413 640 LINE SMOOTH",
"1413 720 OFFCURVE",
"1369 764 OFFCURVE",
"1289 764 CURVE SMOOTH",
"948 764 LINE SMOOTH",
"868 764 OFFCURVE",
"824 731 OFFCURVE",
"824 670 CURVE SMOOTH",
"824 609 OFFCURVE",
"868 576 OFFCURVE",
"948 576 CURVE SMOOTH",
"1191 576 LINE",
"1185 456 OFFCURVE",
"1146.667 361.333 OFFCURVE",
"1076 292 CURVE SMOOTH",
"1005.333 222.667 OFFCURVE",
"911 188 OFFCURVE",
"793 188 CURVE SMOOTH",
"705 188 OFFCURVE",
"626.833 209.5 OFFCURVE",
"558.5 252.5 CURVE SMOOTH",
"490.167 295.5 OFFCURVE",
"436.5 358.333 OFFCURVE",
"397.5 441 CURVE SMOOTH",
"358.5 523.667 OFFCURVE",
"339 625 OFFCURVE",
"339 745 CURVE SMOOTH",
"339 865 OFFCURVE",
"358.5 966.5 OFFCURVE",
"397.5 1049.5 CURVE SMOOTH",
"436.5 1132.5 OFFCURVE",
"489.5 1195.333 OFFCURVE",
"556.5 1238 CURVE SMOOTH",
"623.5 1280.667 OFFCURVE",
"699 1302 OFFCURVE",
"783 1302 CURVE SMOOTH",
"881 1302 OFFCURVE",
"962.5 1276.667 OFFCURVE",
"1027.5 1226 CURVE SMOOTH",
"1067 1195 OFFCURVE",
"1099 1158 OFFCURVE",
"1125 1114 CURVE SMOOTH",
"1160 1051 OFFCURVE",
"1199 1019 OFFCURVE",
"1270 1019 CURVE SMOOTH",
"1283 1019 LINE SMOOTH",
"1355 1019 OFFCURVE",
"1395 1075 OFFCURVE",
"1358 1159 CURVE SMOOTH",
"1340 1200 OFFCURVE",
"1317 1239 OFFCURVE",
"1289.5 1274.5 CURVE SMOOTH",
"1232.5 1348.167 OFFCURVE",
"1160.333 1405.833 OFFCURVE",
"1073 1447.5 CURVE SMOOTH",
"985.667 1489.167 OFFCURVE",
"888.333 1510 OFFCURVE",
"781 1510 CURVE SMOOTH",
"652.333 1510 OFFCURVE",
"537.667 1479.167 OFFCURVE",
"437 1417.5 CURVE SMOOTH",
"336.333 1355.833 OFFCURVE",
"257.167 1267.833 OFFCURVE",
"199.5 1153.5 CURVE SMOOTH",
"141.833 1039.167 OFFCURVE",
"113 902.667 OFFCURVE",
"113 744 CURVE SMOOTH",
"113 586.667 OFFCURVE",
"141.333 451 OFFCURVE",
"198 337 CURVE SMOOTH",
"254.667 223 OFFCURVE",
"332.5 135 OFFCURVE",
"431.5 73 CURVE SMOOTH",
"530.5 11 OFFCURVE",
"642.667 -20 OFFCURVE",
"768 -20 CURVE SMOOTH"
);
}
);
userData = {
assembly = "PUSHB[ ]	/* 6 values pushed */\01233 1 4 5 1 76 \012MPPEM[ ]	/* MeasurePixelPerEm */\012PUSHB[ ]	/* 1 value pushed */\01225 \012LT[ ]	/* LessThan */\012IF[ ]	/* If */\012NPUSHB[ ]	/* 39 values pushed */\0120 2 3 6 3 2 6 128 0 6 0 5 4 6 5 103 0 3 3 1 97 0 1 1 109 77 0 4 4 0 97 7 8 2 0 0 110 0 78 \012ELSE[ ]	/* Else */\012NPUSHB[ ]	/* 43 values pushed */\0120 2 3 6 3 2 6 128 0 6 0 5 4 6 5 103 0 3 3 1 97 0 1 1 109 77 0 7 7 104 77 0 4 4 0 97 8 1 0 0 110 0 78 \012EIF[ ]	/* EndIf */\012NPUSHB[ ]	/* 23 values pushed */\0121 0 32 31 30 29 28 27 25 23 17 15 13 12 9 7 0 36 1 36 9 12 22 \012CALL[ ]	/* CallFunction */";
};
width = 1552;
}
);
leftKerningGroup = C;
note = G.1;
rightKerningGroup = G.1;
},
{
glyphname = Ghook.1;
lastChange = "2024-07-06 19:26:32 +0000";
layers = (
{
layerId = "6C6EE9F0-1505-4036-BE3C-A809537EF5EF";
paths = (
{
closed = 1;
nodes = (
"860.667 -20 OFFCURVE",
"937.5 -4.5 OFFCURVE",
"998.5 26.5 CURVE SMOOTH",
"1059.5 57.5 OFFCURVE",
"1107.5 99.167 OFFCURVE",
"1142.5 151.5 CURVE SMOOTH",
"1177.5 203.833 OFFCURVE",
"1202 261.333 OFFCURVE",
"1216 324 CURVE",
"1235 118 LINE SMOOTH",
"1242 41 OFFCURVE",
"1275 0 OFFCURVE",
"1330 0 CURVE SMOOTH",
"1384 0 OFFCURVE",
"1413 44 OFFCURVE",
"1413 124 CURVE SMOOTH",
"1413 640 LINE SMOOTH",
"1413 720 OFFCURVE",
"1369 764 OFFCURVE",
"1289 764 CURVE SMOOTH",
"948 764 LINE SMOOTH",
"868 764 OFFCURVE",
"824 731 OFFCURVE",
"824 670 CURVE SMOOTH",
"824 609 OFFCURVE",
"868 576 OFFCURVE",
"948 576 CURVE SMOOTH",
"1191 576 LINE",
"1185 456 OFFCURVE",
"1146.667 361.333 OFFCURVE",
"1076 292 CURVE SMOOTH",
"1005.333 222.667 OFFCURVE",
"911 188 OFFCURVE",
"793 188 CURVE SMOOTH",
"705 188 OFFCURVE",
"626.833 209.5 OFFCURVE",
"558.5 252.5 CURVE SMOOTH",
"490.167 295.5 OFFCURVE",
"436.5 358.333 OFFCURVE",
"397.5 441 CURVE SMOOTH",
"358.5 523.667 OFFCURVE",
"339 625 OFFCURVE",
"339 745 CURVE SMOOTH",
"339 865 OFFCURVE",
"358.5 966.5 OFFCURVE",
"397.5 1049.5 CURVE SMOOTH",
"436.5 1132.5 OFFCURVE",
"489.5 1195.333 OFFCURVE",
"556.5 1238 CURVE SMOOTH",
"623.5 1280.667 OFFCURVE",
"699 1302 OFFCURVE",
"783 1302 CURVE SMOOTH",
"881 1302 OFFCURVE",
"962.5 1276.667 OFFCURVE",
"1027.5 1226 CURVE SMOOTH",
"1067 1195 OFFCURVE",
"1099 1158 OFFCURVE",
"1125 1114 CURVE SMOOTH",
"1160 1051 OFFCURVE",
"1199 1019 OFFCURVE",
"1270 1019 CURVE SMOOTH",
"1283 1019 LINE SMOOTH",
"1359 1019 OFFCURVE",
"1400 1063 OFFCURVE",
"1400 1143 CURVE SMOOTH",
"1400 1409 LINE SMOOTH",
"1400 1442.333 OFFCURVE",
"1412.167 1466.833 OFFCURVE",
"1436.5 1482.5 CURVE SMOOTH",
"1460.833 1498.167 OFFCURVE",
"1499.333 1506 OFFCURVE",
"1552 1506 CURVE SMOOTH",
"1564 1506 OFFCURVE",
"1575 1506 OFFCURVE",
"1587 1505 CURVE SMOOTH",
"1610 1503 OFFCURVE",
"1622 1532 OFFCURVE",
"1622 1587 CURVE SMOOTH",
"1622 1643 OFFCURVE",
"1583 1683 OFFCURVE",
"1506 1684 CURVE SMOOTH",
"1504 1684 OFFCURVE",
"1502 1684 OFFCURVE",
"1500 1684 CURVE SMOOTH",
"1397.333 1684 OFFCURVE",
"1319.333 1660.5 OFFCURVE",
"1266 1613.5 CURVE SMOOTH",
"1212.667 1566.5 OFFCURVE",
"1186 1498.333 OFFCURVE",
"1186 1409 CURVE SMOOTH",
"1186 1378 LINE",
"1132 1420 OFFCURVE",
"1070.667 1452.5 OFFCURVE",
"1002 1475.5 CURVE SMOOTH",
"933.333 1498.5 OFFCURVE",
"859.667 1510 OFFCURVE",
"781 1510 CURVE SMOOTH",
"652.333 1510 OFFCURVE",
"537.667 1479.167 OFFCURVE",
"437 1417.5 CURVE SMOOTH",
"336.333 1355.833 OFFCURVE",
"257.167 1267.833 OFFCURVE",
"199.5 1153.5 CURVE SMOOTH",
"141.833 1039.167 OFFCURVE",
"113 902.667 OFFCURVE",
"113 744 CURVE SMOOTH",
"113 586.667 OFFCURVE",
"141.333 451 OFFCURVE",
"198 337 CURVE SMOOTH",
"254.667 223 OFFCURVE",
"332.5 135 OFFCURVE",
"431.5 73 CURVE SMOOTH",
"530.5 11 OFFCURVE",
"642.667 -20 OFFCURVE",
"768 -20 CURVE SMOOTH"
);
}
);
userData = {
assembly = "NPUSHB[ ]	/* 15 values pushed */\01217 1 1 2 18 11 2 5 3 45 1 6 7 3 76 \012MPPEM[ ]	/* MeasurePixelPerEm */\012PUSHB[ ]	/* 1 value pushed */\01225 \012LT[ ]	/* LessThan */\012IF[ ]	/* If */\012NPUSHB[ ]	/* 47 values pushed */\0120 4 5 8 5 4 8 128 0 2 0 3 5 2 3 105 0 8 0 7 6 8 7 103 0 5 5 1 97 0 1 1 109 77 0 6 6 0 97 9 10 2 0 0 110 0 78 \012ELSE[ ]	/* Else */\012NPUSHB[ ]	/* 51 values pushed */\0120 4 5 8 5 4 8 128 0 2 0 3 5 2 3 105 0 8 0 7 6 8 7 103 0 5 5 1 97 0 1 1 109 77 0 9 9 104 77 0 6 6 0 97 10 1 0 0 110 0 78 \012EIF[ ]	/* EndIf */\012NPUSHB[ ]	/* 27 values pushed */\0121 0 44 43 42 41 40 39 37 35 29 27 25 24 21 19 16 14 9 7 0 48 1 48 11 12 22 \012CALL[ ]	/* CallFunction */";
};
width = 1552;
}
);
note = uni0193.1;
},
{
glyphname = I.1;
lastChange = "2024-07-06 19:26:32 +0000";
layers = (
{
layerId = "6C6EE9F0-1505-4036-BE3C-A809537EF5EF";
paths = (
{
closed = 1;
nodes = (
"86 34 OFFCURVE",
"130 0 OFFCURVE",
"210 0 CURVE SMOOTH",
"717 0 LINE SMOOTH",
"797 0 OFFCURVE",
"841 35 OFFCURVE",
"841 98 CURVE SMOOTH",
"841 161 OFFCURVE",
"797 196 OFFCURVE",
"717 196 CURVE SMOOTH",
"578 196 LINE",
"578 1294 LINE",
"717 1294 LINE SMOOTH",
"797 1294 OFFCURVE",
"841 1329 OFFCURVE",
"841 1392 CURVE SMOOTH",
"841 1455 OFFCURVE",
"797 1490 OFFCURVE",
"717 1490 CURVE SMOOTH",
"210 1490 LINE SMOOTH",
"130 1490 OFFCURVE",
"86 1455 OFFCURVE",
"86 1392 CURVE SMOOTH",
"86 1329 OFFCURVE",
"130 1294 OFFCURVE",
"210 1294 CURVE SMOOTH",
"350 1294 LINE",
"350 196 LINE",
"210 196 LINE SMOOTH",
"130 196 OFFCURVE",
"86 161 OFFCURVE",
"86 98 CURVE SMOOTH"
);
}
);
userData = {
assembly = "NPUSHB[ ]	/* 38 values pushed */\0123 1 1 1 2 95 0 2 2 103 77 4 1 0 0 5 95 6 1 5 5 104 5 78 0 0 0 11 0 11 17 17 17 17 17 7 12 27 \012CALL[ ]	/* CallFunction */";
};
width = 927;
}
);
leftKerningGroup = B;
note = I.1;
rightKerningGroup = Ereversed;
},
{
glyphname = Thook.base;
lastChange = "2024-07-06 19:26:32 +0000";
layers = (
{
layerId = "6C6EE9F0-1505-4036-BE3C-A809537EF5EF";
paths = (
{
closed = 1;
nodes = (
"458 1328 OFFCURVE",
"492 1294 OFFCURVE",
"553 1294 CURVE",
"553 124 LINE SMOOTH",
"553 44 OFFCURVE",
"593 0 OFFCURVE",
"667 0 CURVE SMOOTH",
"741 0 OFFCURVE",
"781 44 OFFCURVE",
"781 124 CURVE SMOOTH",
"781 1294 LINE",
"1120 1294 LINE SMOOTH",
"1200 1294 OFFCURVE",
"1244 1329 OFFCURVE",
"1244 1392 CURVE SMOOTH",
"1244 1455 OFFCURVE",
"1200 1490 OFFCURVE",
"1120 1490 CURVE SMOOTH",
"582 1490 LINE SMOOTH",
"502 1490 OFFCURVE",
"458 1455 OFFCURVE",
"458 1392 CURVE SMOOTH"
);
}
);
userData = {
assembly = "NPUSHB[ ]	/* 35 values pushed */\0120 2 1 2 134 0 0 1 1 0 87 0 0 0 1 95 4 3 2 1 0 1 79 0 0 0 7 0 7 17 17 17 5 6 25 \012CALL[ ]	/* CallFunction */";
};
width = 1335;
}
);
note = uni01AC.base;
rightKerningGroup = "Enghe-cy";
},
{
glyphname = a;
lastChange = "2024-07-06 19:26:32 +0000";
layers = (
{
layerId = "6C6EE9F0-1505-4036-BE3C-A809537EF5EF";
paths = (
{
closed = 1;
nodes = (
"551.667 -25 OFFCURVE",
"623.833 -6.333 OFFCURVE",
"677.5 31 CURVE SMOOTH",
"731.167 68.333 OFFCURVE",
"769 109 OFFCURVE",
"791 153 CURVE",
"802 153 LINE",
"802 77 LINE SMOOTH",
"802 28 OFFCURVE",
"840 0 OFFCURVE",
"909 0 CURVE SMOOTH",
"978 0 OFFCURVE",
"1015 44 OFFCURVE",
"1015 124 CURVE SMOOTH",
"1015 742 LINE SMOOTH",
"1015 822.667 OFFCURVE",
"1001 888.667 OFFCURVE",
"973 940 CURVE SMOOTH",
"945 991.333 OFFCURVE",
"908.667 1030.833 OFFCURVE",
"864 1058.5 CURVE SMOOTH",
"819.333 1086.167 OFFCURVE",
"771.667 1105.333 OFFCURVE",
"721 1116 CURVE SMOOTH",
"670.333 1126.667 OFFCURVE",
"622.667 1132 OFFCURVE",
"578 1132 CURVE SMOOTH",
"511.333 1132 OFFCURVE",
"447.5 1122.667 OFFCURVE",
"386.5 1104 CURVE SMOOTH",
"325.5 1085.333 OFFCURVE",
"271.333 1055.667 OFFCURVE",
"224 1015 CURVE SMOOTH",
"200 994 OFFCURVE",
"178 970 OFFCURVE",
"159 942 CURVE SMOOTH",
"126 890 OFFCURVE",
"156 843 OFFCURVE",
"221 826 CURVE SMOOTH",
"290 808 OFFCURVE",
"330 834 OFFCURVE",
"383 884 CURVE SMOOTH",
"390 891 OFFCURVE",
"399 898 OFFCURVE",
"408 905 CURVE SMOOTH",
"450 937 OFFCURVE",
"507.667 953 OFFCURVE",
"581 953 CURVE SMOOTH",
"651 953 OFFCURVE",
"704.167 935.833 OFFCURVE",
"740.5 901.5 CURVE SMOOTH",
"776.833 867.167 OFFCURVE",
"795 819 OFFCURVE",
"795 757 CURVE SMOOTH",
"795 751 LINE SMOOTH",
"795 711.667 OFFCURVE",
"772.667 687.833 OFFCURVE",
"728 679.5 CURVE SMOOTH",
"683.333 671.167 OFFCURVE",
"611.667 661.333 OFFCURVE",
"513 650 CURVE SMOOTH",
"460.333 644 OFFCURVE",
"408.5 635 OFFCURVE",
"357.5 623 CURVE SMOOTH",
"306.5 611 OFFCURVE",
"260.333 593.167 OFFCURVE",
"219 569.5 CURVE SMOOTH",
"177.667 545.833 OFFCURVE",
"144.667 513.5 OFFCURVE",
"120 472.5 CURVE SMOOTH",
"95.333 431.5 OFFCURVE",
"83 379.333 OFFCURVE",
"83 316 CURVE SMOOTH",
"83 242.667 OFFCURVE",
"99.667 180.667 OFFCURVE",
"133 130 CURVE SMOOTH",
"166.333 79.333 OFFCURVE",
"211.5 40.833 OFFCURVE",
"268.5 14.5 CURVE SMOOTH",
"325.5 -11.833 OFFCURVE",
"389.667 -25 OFFCURVE",
"461 -25 CURVE SMOOTH"
);
},
{
closed = 1;
nodes = (
"448.667 152 OFFCURVE",
"398.167 165.5 OFFCURVE",
"358.5 192.5 CURVE SMOOTH",
"318.833 219.5 OFFCURVE",
"299 259.667 OFFCURVE",
"299 313 CURVE SMOOTH",
"299 370.333 OFFCURVE",
"321.167 411.5 OFFCURVE",
"365.5 436.5 CURVE SMOOTH",
"409.833 461.5 OFFCURVE",
"463 478.333 OFFCURVE",
"525 487 CURVE SMOOTH",
"617 499 LINE SMOOTH",
"655.667 504.333 OFFCURVE",
"692.5 510.833 OFFCURVE",
"727.5 518.5 CURVE SMOOTH",
"762.5 526.167 OFFCURVE",
"785.333 535.333 OFFCURVE",
"796 546 CURVE",
"796 403 LINE SMOOTH",
"796 359 OFFCURVE",
"784.5 318 OFFCURVE",
"761.5 280 CURVE SMOOTH",
"738.5 242 OFFCURVE",
"705.667 211.167 OFFCURVE",
"663 187.5 CURVE SMOOTH",
"620.333 163.833 OFFCURVE",
"569.333 152 OFFCURVE",
"510 152 CURVE SMOOTH"
);
}
);
userData = {
assembly = "NPUSHB[ ]	/* 9 values pushed */\01241 32 20 19 4 4 1 1 76 \012MPPEM[ ]	/* MeasurePixelPerEm */\012PUSHB[ ]	/* 1 value pushed */\01221 \012LT[ ]	/* LessThan */\012IF[ ]	/* If */\012NPUSHB[ ]	/* 24 values pushed */\0120 1 1 2 97 0 2 2 112 77 6 1 4 4 0 97 3 5 2 0 0 113 0 78 \012ELSE[ ]	/* Else */\012NPUSHB[ ]	/* 28 values pushed */\0120 1 1 2 97 0 2 2 112 77 0 3 3 104 77 6 1 4 4 0 97 5 1 0 0 113 0 78 \012EIF[ ]	/* EndIf */\012NPUSHB[ ]	/* 21 values pushed */\01237 36 1 0 36 50 37 50 31 30 25 23 17 15 0 35 1 35 7 12 22 \012CALL[ ]	/* CallFunction */";
};
width = 1163;
}
);
leftKerningGroup = a;
note = a;
rightKerningGroup = a;
unicode = 0061;
},
{
glyphname = "alphaturned-latin";
lastChange = "2024-07-06 19:26:32 +0000";
layers = (
{
layerId = "6C6EE9F0-1505-4036-BE3C-A809537EF5EF";
paths = (
{
closed = 1;
nodes = (
"793.333 -22 OFFCURVE",
"873.167 1 OFFCURVE",
"943.5 47 CURVE SMOOTH",
"1013.833 93 OFFCURVE",
"1069.167 159.333 OFFCURVE",
"1109.5 246 CURVE SMOOTH",
"1149.833 332.667 OFFCURVE",
"1170 436 OFFCURVE",
"1170 556 CURVE SMOOTH",
"1170 677.333 OFFCURVE",
"1149.5 781 OFFCURVE",
"1108.5 867 CURVE SMOOTH",
"1067.5 953 OFFCURVE",
"1011.667 1018.667 OFFCURVE",
"941 1064 CURVE SMOOTH",
"870.333 1109.333 OFFCURVE",
"790.333 1132 OFFCURVE",
"701 1132 CURVE SMOOTH",
"631.667 1132 OFFCURVE",
"575.833 1120.5 OFFCURVE",
"533.5 1097.5 CURVE SMOOTH",
"491.167 1074.5 OFFCURVE",
"458.167 1047.667 OFFCURVE",
"434.5 1017 CURVE SMOOTH",
"410.833 986.333 OFFCURVE",
"392.667 959.333 OFFCURVE",
"380 936 CURVE",
"367 936 LINE",
"367 1027 LINE SMOOTH",
"367 1086 OFFCURVE",
"328 1118 OFFCURVE",
"258 1118 CURVE SMOOTH",
"187 1118 OFFCURVE",
"148 1074 OFFCURVE",
"148 994 CURVE SMOOTH",
"148 124 LINE SMOOTH",
"148 44 OFFCURVE",
"187 0 OFFCURVE",
"257 0 CURVE SMOOTH",
"327 0 OFFCURVE",
"366 44 OFFCURVE",
"366 124 CURVE SMOOTH",
"366 175 LINE",
"380 175 LINE",
"392.667 151 OFFCURVE",
"411.333 123.5 OFFCURVE",
"436 92.5 CURVE SMOOTH",
"460.667 61.5 OFFCURVE",
"494.5 34.667 OFFCURVE",
"537.5 12 CURVE SMOOTH",
"580.5 -10.667 OFFCURVE",
"636 -22 OFFCURVE",
"704 -22 CURVE SMOOTH"
);
},
{
closed = 1;
nodes = (
"558.667 165 OFFCURVE",
"487.167 201.333 OFFCURVE",
"437.5 274 CURVE SMOOTH",
"387.833 346.667 OFFCURVE",
"363 441.333 OFFCURVE",
"363 558 CURVE SMOOTH",
"363 674 OFFCURVE",
"387.667 767.5 OFFCURVE",
"437 838.5 CURVE SMOOTH",
"486.333 909.5 OFFCURVE",
"558 945 OFFCURVE",
"652 945 CURVE SMOOTH",
"749.333 945 OFFCURVE",
"822.5 908.167 OFFCURVE",
"871.5 834.5 CURVE SMOOTH",
"920.5 760.833 OFFCURVE",
"945 668.667 OFFCURVE",
"945 558 CURVE SMOOTH",
"945 484 OFFCURVE",
"934 417.333 OFFCURVE",
"912 358 CURVE SMOOTH",
"890 298.667 OFFCURVE",
"857.167 251.667 OFFCURVE",
"813.5 217 CURVE SMOOTH",
"769.833 182.333 OFFCURVE",
"716 165 OFFCURVE",
"652 165 CURVE SMOOTH"
);
}
);
userData = {
assembly = "PUSHB[ ]	/* 7 values pushed */\01210 4 2 4 5 1 76 \012MPPEM[ ]	/* MeasurePixelPerEm */\012PUSHB[ ]	/* 1 value pushed */\01223 \012LT[ ]	/* LessThan */\012IF[ ]	/* If */\012NPUSHB[ ]	/* 25 values pushed */\0120 5 5 2 97 3 1 2 2 106 77 7 1 4 4 0 97 1 6 2 0 0 110 0 78 \012ELSE[ ]	/* Else */\012MPPEM[ ]	/* MeasurePixelPerEm */\012PUSHB[ ]	/* 1 value pushed */\01236 \012LT[ ]	/* LessThan */\012IF[ ]	/* If */\012NPUSHB[ ]	/* 29 values pushed */\0120 5 5 2 97 3 1 2 2 106 77 0 1 1 104 77 7 1 4 4 0 97 6 1 0 0 110 0 78 \012ELSE[ ]	/* Else */\012NPUSHB[ ]	/* 33 values pushed */\0120 2 2 106 77 0 5 5 3 97 0 3 3 112 77 0 1 1 104 77 7 1 4 4 0 97 6 1 0 0 110 0 78 \012EIF[ ]	/* EndIf */\012EIF[ ]	/* EndIf */\012NPUSHB[ ]	/* 23 values pushed */\01224 23 1 0 31 29 23 35 24 35 16 14 9 8 7 6 0 22 1 22 8 12 22 \012CALL[ ]	/* CallFunction */";
};
width = 1266;
}
);
note = ascriptturn;
unicode = 0252;
},
{
glyphname = aturned;
lastChange = "2024-07-06 19:26:32 +0000";
layers = (
{
layerId = "6C6EE9F0-1505-4036-BE3C-A809537EF5EF";
paths = (
{
closed = 1;
nodes = (
"611.333 1143 OFFCURVE",
"539.167 1124.333 OFFCURVE",
"485.5 1087 CURVE SMOOTH",
"431.833 1049.667 OFFCURVE",
"394 1009 OFFCURVE",
"372 965 CURVE",
"361 965 LINE",
"361 1042 LINE SMOOTH",
"361 1091 OFFCURVE",
"324 1118 OFFCURVE",
"255 1118 CURVE SMOOTH",
"186 1118 OFFCURVE",
"148 1074 OFFCURVE",
"148 994 CURVE SMOOTH",
"148 376 LINE SMOOTH",
"148 295.333 OFFCURVE",
"162 229.333 OFFCURVE",
"190 178 CURVE SMOOTH",
"218 126.667 OFFCURVE",
"254.333 87.167 OFFCURVE",
"299 59.5 CURVE SMOOTH",
"343.667 31.833 OFFCURVE",
"391.333 12.667 OFFCURVE",
"442 2 CURVE SMOOTH",
"492.667 -8.667 OFFCURVE",
"540.333 -14 OFFCURVE",
"585 -14 CURVE SMOOTH",
"651.667 -14 OFFCURVE",
"715.5 -4.667 OFFCURVE",
"776.5 14 CURVE SMOOTH",
"837.5 32.667 OFFCURVE",
"891.667 62.333 OFFCURVE",
"939 103 CURVE SMOOTH",
"963 124 OFFCURVE",
"985 149 OFFCURVE",
"1004 177 CURVE SMOOTH",
"1037 229 OFFCURVE",
"1007 275 OFFCURVE",
"942 292 CURVE SMOOTH",
"873 310 OFFCURVE",
"833 284 OFFCURVE",
"781 234 CURVE SMOOTH",
"773 227 OFFCURVE",
"764 220 OFFCURVE",
"755 213 CURVE SMOOTH",
"713 181 OFFCURVE",
"655.333 165 OFFCURVE",
"582 165 CURVE SMOOTH",
"512 165 OFFCURVE",
"458.833 182.167 OFFCURVE",
"422.5 216.5 CURVE SMOOTH",
"386.167 250.833 OFFCURVE",
"368 299 OFFCURVE",
"368 361 CURVE SMOOTH",
"368 367 LINE SMOOTH",
"368 406.333 OFFCURVE",
"390.333 430.167 OFFCURVE",
"435 438.5 CURVE SMOOTH",
"479.667 446.833 OFFCURVE",
"551.333 456.667 OFFCURVE",
"650 468 CURVE SMOOTH",
"702.667 474 OFFCURVE",
"754.5 483 OFFCURVE",
"805.5 495 CURVE SMOOTH",
"856.5 507 OFFCURVE",
"902.667 524.833 OFFCURVE",
"944 548.5 CURVE SMOOTH",
"985.333 572.167 OFFCURVE",
"1018.333 604.5 OFFCURVE",
"1043 645.5 CURVE SMOOTH",
"1067.667 686.5 OFFCURVE",
"1080 738.667 OFFCURVE",
"1080 802 CURVE SMOOTH",
"1080 875.333 OFFCURVE",
"1063.333 937.333 OFFCURVE",
"1030 988 CURVE SMOOTH",
"996.667 1038.667 OFFCURVE",
"951.333 1077.167 OFFCURVE",
"894 1103.5 CURVE SMOOTH",
"836.667 1129.833 OFFCURVE",
"772.667 1143 OFFCURVE",
"702 1143 CURVE SMOOTH"
);
},
{
closed = 1;
nodes = (
"714.333 966 OFFCURVE",
"764.833 952.5 OFFCURVE",
"804.5 925.5 CURVE SMOOTH",
"844.167 898.5 OFFCURVE",
"864 858.333 OFFCURVE",
"864 805 CURVE SMOOTH",
"864 747.667 OFFCURVE",
"841.833 706.5 OFFCURVE",
"797.5 681.5 CURVE SMOOTH",
"753.167 656.5 OFFCURVE",
"700 639.667 OFFCURVE",
"638 631 CURVE SMOOTH",
"546 619 LINE SMOOTH",
"507.333 613.667 OFFCURVE",
"470.5 607.167 OFFCURVE",
"435.5 599.5 CURVE SMOOTH",
"400.5 591.833 OFFCURVE",
"377.667 582.667 OFFCURVE",
"367 572 CURVE",
"367 715 LINE SMOOTH",
"367 759 OFFCURVE",
"378.333 800 OFFCURVE",
"401 838 CURVE SMOOTH",
"423.667 876 OFFCURVE",
"456.5 906.833 OFFCURVE",
"499.5 930.5 CURVE SMOOTH",
"542.5 954.167 OFFCURVE",
"593.667 966 OFFCURVE",
"653 966 CURVE SMOOTH"
);
}
);
userData = {
assembly = "NPUSHB[ ]	/* 9 values pushed */\01241 32 20 19 4 1 4 1 76 \012MPPEM[ ]	/* MeasurePixelPerEm */\012PUSHB[ ]	/* 1 value pushed */\01221 \012LT[ ]	/* LessThan */\012IF[ ]	/* If */\012NPUSHB[ ]	/* 24 values pushed */\0126 1 4 4 0 97 3 5 2 0 0 112 77 0 1 1 2 97 0 2 2 110 2 78 \012ELSE[ ]	/* Else */\012NPUSHB[ ]	/* 28 values pushed */\0120 3 3 106 77 6 1 4 4 0 97 5 1 0 0 112 77 0 1 1 2 97 0 2 2 110 2 78 \012EIF[ ]	/* EndIf */\012NPUSHB[ ]	/* 21 values pushed */\01237 36 1 0 36 50 37 50 31 30 25 23 17 15 0 35 1 35 7 12 22 \012CALL[ ]	/* CallFunction */";
};
width = 1163;
}
);
leftKerningGroup = aturned;
note = aturn;
rightKerningGroup = aturned;
unicode = 0250;
},
{
glyphname = ae;
lastChange = "2024-07-06 19:26:32 +0000";
layers = (
{
layerId = "6C6EE9F0-1505-4036-BE3C-A809537EF5EF";
paths = (
{
closed = 1;
nodes = (
"527.667 -25 OFFCURVE",
"586 -16.167 OFFCURVE",
"642 1.5 CURVE SMOOTH",
"698 19.167 OFFCURVE",
"747.333 43.167 OFFCURVE",
"790 73.5 CURVE SMOOTH",
"832.667 103.833 OFFCURVE",
"864 139 OFFCURVE",
"884 179 CURVE",
"922.667 117 OFFCURVE",
"977.833 67.833 OFFCURVE",
"1049.5 31.5 CURVE SMOOTH",
"1121.167 -4.833 OFFCURVE",
"1204.667 -23 OFFCURVE",
"1300 -23 CURVE SMOOTH",
"1422.667 -23 OFFCURVE",
"1524.833 5 OFFCURVE",
"1606.5 61 CURVE SMOOTH",
"1647 89 OFFCURVE",
"1680 120 OFFCURVE",
"1706 156 CURVE SMOOTH",
"1757 227 OFFCURVE",
"1725 287 OFFCURVE",
"1659 299 CURVE SMOOTH",
"1589 311 OFFCURVE",
"1552 282 OFFCURVE",
"1501 230 CURVE SMOOTH",
"1489 218 OFFCURVE",
"1475 208 OFFCURVE",
"1460.5 199 CURVE SMOOTH",
"1416.167 172.333 OFFCURVE",
"1363 159 OFFCURVE",
"1301 159 CURVE SMOOTH",
"1211 159 OFFCURVE",
"1137.333 187.333 OFFCURVE",
"1080 244 CURVE SMOOTH",
"1022.667 300.667 OFFCURVE",
"992 383.333 OFFCURVE",
"988 492 CURVE",
"1658 492 LINE SMOOTH",
"1738 492 OFFCURVE",
"1782 520 OFFCURVE",
"1782 570 CURVE SMOOTH",
"1782 704.667 OFFCURVE",
"1758.333 813.167 OFFCURVE",
"1711 895.5 CURVE SMOOTH",
"1663.667 977.833 OFFCURVE",
"1602 1037.833 OFFCURVE",
"1526 1075.5 CURVE SMOOTH",
"1450 1113.167 OFFCURVE",
"1369.667 1132 OFFCURVE",
"1285 1132 CURVE SMOOTH",
"1205.667 1132 OFFCURVE",
"1135.667 1117.5 OFFCURVE",
"1075 1088.5 CURVE SMOOTH",
"1014.333 1059.5 OFFCURVE",
"963.667 1019 OFFCURVE",
"923 967 CURVE",
"885 1030.333 OFFCURVE",
"834.333 1073.667 OFFCURVE",
"771 1097 CURVE SMOOTH",
"707.667 1120.333 OFFCURVE",
"643.333 1132 OFFCURVE",
"578 1132 CURVE SMOOTH",
"511.333 1132 OFFCURVE",
"447.5 1122.667 OFFCURVE",
"386.5 1104 CURVE SMOOTH",
"325.5 1085.333 OFFCURVE",
"271.333 1055.667 OFFCURVE",
"224 1015 CURVE SMOOTH",
"200 994 OFFCURVE",
"178 970 OFFCURVE",
"159 942 CURVE SMOOTH",
"126 890 OFFCURVE",
"156 843 OFFCURVE",
"221 826 CURVE SMOOTH",
"290 808 OFFCURVE",
"330 834 OFFCURVE",
"383 884 CURVE SMOOTH",
"391 891 OFFCURVE",
"399 898 OFFCURVE",
"408.5 905 CURVE SMOOTH",
"450.833 937 OFFCURVE",
"508.333 953 OFFCURVE",
"581 953 CURVE SMOOTH",
"651 953 OFFCURVE",
"704 935.833 OFFCURVE",
"740 901.5 CURVE SMOOTH",
"776 867.167 OFFCURVE",
"794 819 OFFCURVE",
"794 757 CURVE SMOOTH",
"794 656 LINE",
"566 656 LINE SMOOTH",
"508 656 OFFCURVE",
"450.5 650.167 OFFCURVE",
"393.5 638.5 CURVE SMOOTH",
"336.5 626.833 OFFCURVE",
"284.5 607.833 OFFCURVE",
"237.5 581.5 CURVE SMOOTH",
"190.5 555.167 OFFCURVE",
"153 520.333 OFFCURVE",
"125 477 CURVE SMOOTH",
"97 433.667 OFFCURVE",
"83 380 OFFCURVE",
"83 316 CURVE SMOOTH",
"83 242.667 OFFCURVE",
"99.833 180.667 OFFCURVE",
"133.5 130 CURVE SMOOTH",
"167.167 79.333 OFFCURVE",
"212.833 40.833 OFFCURVE",
"270.5 14.5 CURVE SMOOTH",
"328.167 -11.833 OFFCURVE",
"393.667 -25 OFFCURVE",
"467 -25 CURVE SMOOTH"
);
},
{
closed = 1;
nodes = (
"794 492 LINE",
"794 403 LINE SMOOTH",
"794 359 OFFCURVE",
"782.833 318 OFFCURVE",
"760.5 280 CURVE SMOOTH",
"738.167 242 OFFCURVE",
"705.667 211.167 OFFCURVE",
"663 187.5 CURVE SMOOTH",
"620.333 163.833 OFFCURVE",
"569.333 152 OFFCURVE",
"510 152 CURVE SMOOTH",
"448.667 152 OFFCURVE",
"398.167 165.667 OFFCURVE",
"358.5 193 CURVE SMOOTH",
"318.833 220.333 OFFCURVE",
"299 261 OFFCURVE",
"299 315 CURVE SMOOTH",
"299 372.333 OFFCURVE",
"325.667 416.167 OFFCURVE",
"379 446.5 CURVE SMOOTH",
"432.333 476.833 OFFCURVE",
"497.667 492 OFFCURVE",
"575 492 CURVE SMOOTH"
);
},
{
closed = 1;
nodes = (
"992.667 709.333 OFFCURVE",
"1007.333 758.333 OFFCURVE",
"1032 803 CURVE SMOOTH",
"1056.667 847.667 OFFCURVE",
"1090.333 883.333 OFFCURVE",
"1133 910 CURVE SMOOTH",
"1175.667 936.667 OFFCURVE",
"1226.333 950 OFFCURVE",
"1285 950 CURVE SMOOTH",
"1369 950 OFFCURVE",
"1435.833 922.667 OFFCURVE",
"1485.5 868 CURVE SMOOTH",
"1535.167 813.333 OFFCURVE",
"1560.667 742.667 OFFCURVE",
"1562 656 CURVE",
"988 656 LINE"
);
}
);
userData = {
assembly = "NPUSHB[ ]	/* 84 values pushed */\01225 1 2 3 18 17 2 1 2 47 41 40 3 6 5 3 76 10 1 1 8 1 5 6 1 5 103 11 1 2 2 3 97 4 1 3 3 112 77 9 1 6 6 0 97 7 12 2 0 0 113 0 78 1 0 68 66 64 63 59 57 53 51 45 43 38 36 34 33 29 27 23 21 15 13 10 8 0 50 1 50 13 12 22 \012CALL[ ]	/* CallFunction */";
};
width = 1874;
}
);
leftKerningGroup = a;
note = ae;
rightKerningGroup = aturned;
unicode = 00E6;
},
{
glyphname = b;
lastChange = "2024-07-06 19:26:32 +0000";
layers = (
{
layerId = "6C6EE9F0-1505-4036-BE3C-A809537EF5EF";
paths = (
{
closed = 1;
nodes = (
"793.667 -22 OFFCURVE",
"874.167 1 OFFCURVE",
"944.5 47 CURVE SMOOTH",
"1014.833 93 OFFCURVE",
"1070 159.333 OFFCURVE",
"1110 246 CURVE SMOOTH",
"1150 332.667 OFFCURVE",
"1170 436 OFFCURVE",
"1170 556 CURVE SMOOTH",
"1170 677.333 OFFCURVE",
"1149.667 781 OFFCURVE",
"1109 867 CURVE SMOOTH",
"1068.333 953 OFFCURVE",
"1012.833 1018.667 OFFCURVE",
"942.5 1064 CURVE SMOOTH",
"872.167 1109.333 OFFCURVE",
"792.333 1132 OFFCURVE",
"703 1132 CURVE SMOOTH",
"633 1132 OFFCURVE",
"576.667 1120.5 OFFCURVE",
"534 1097.5 CURVE SMOOTH",
"491.333 1074.5 OFFCURVE",
"458.167 1047.5 OFFCURVE",
"434.5 1016.5 CURVE SMOOTH",
"410.833 985.5 OFFCURVE",
"392.667 958.667 OFFCURVE",
"380 936 CURVE",
"368 936 LINE",
"368 1366 LINE SMOOTH",
"368 1446 OFFCURVE",
"329 1490 OFFCURVE",
"258 1490 CURVE SMOOTH",
"187 1490 OFFCURVE",
"148 1446 OFFCURVE",
"148 1366 CURVE SMOOTH",
"148 124 LINE SMOOTH",
"148 44 OFFCURVE",
"186 0 OFFCURVE",
"255 0 CURVE SMOOTH",
"324 0 OFFCURVE",
"362 44 OFFCURVE",
"362 124 CURVE SMOOTH",
"362 175 LINE",
"380 175 LINE",
"393.333 151 OFFCURVE",
"412.167 123.667 OFFCURVE",
"436.5 93 CURVE SMOOTH",
"460.833 62.333 OFFCURVE",
"494.333 35.5 OFFCURVE",
"537 12.5 CURVE SMOOTH",
"579.667 -10.5 OFFCURVE",
"635 -22 OFFCURVE",
"703 -22 CURVE SMOOTH"
);
},
{
closed = 1;
nodes = (
"560.667 165 OFFCURVE",
"489 201.333 OFFCURVE",
"439 274 CURVE SMOOTH",
"389 346.667 OFFCURVE",
"364 441.333 OFFCURVE",
"364 558 CURVE SMOOTH",
"364 674 OFFCURVE",
"388.667 767.5 OFFCURVE",
"438 838.5 CURVE SMOOTH",
"487.333 909.5 OFFCURVE",
"559.333 945 OFFCURVE",
"654 945 CURVE SMOOTH",
"718.667 945 OFFCURVE",
"772.5 928 OFFCURVE",
"815.5 894 CURVE SMOOTH",
"858.5 860 OFFCURVE",
"890.833 813.833 OFFCURVE",
"912.5 755.5 CURVE SMOOTH",
"934.167 697.167 OFFCURVE",
"945 631.333 OFFCURVE",
"945 558 CURVE SMOOTH",
"945 484 OFFCURVE",
"934 417.333 OFFCURVE",
"912 358 CURVE SMOOTH",
"890 298.667 OFFCURVE",
"857.5 251.667 OFFCURVE",
"814.5 217 CURVE SMOOTH",
"771.5 182.333 OFFCURVE",
"718 165 OFFCURVE",
"654 165 CURVE SMOOTH"
);
}
);
userData = {
assembly = "PUSHB[ ]	/* 7 values pushed */\01210 4 2 4 5 1 76 \012MPPEM[ ]	/* MeasurePixelPerEm */\012PUSHB[ ]	/* 1 value pushed */\01223 \012LT[ ]	/* LessThan */\012IF[ ]	/* If */\012NPUSHB[ ]	/* 29 values pushed */\0120 2 2 103 77 0 5 5 3 97 0 3 3 112 77 7 1 4 4 0 97 1 6 2 0 0 110 0 78 \012ELSE[ ]	/* Else */\012NPUSHB[ ]	/* 33 values pushed */\0120 2 2 103 77 0 5 5 3 97 0 3 3 112 77 0 1 1 104 77 7 1 4 4 0 97 6 1 0 0 110 0 78 \012EIF[ ]	/* EndIf */\012NPUSHB[ ]	/* 23 values pushed */\01224 23 1 0 32 30 23 36 24 36 16 14 9 8 7 6 0 22 1 22 8 12 22 \012CALL[ ]	/* CallFunction */";
};
width = 1266;
}
);
leftKerningGroup = B;
note = b;
rightKerningGroup = b;
unicode = 0062;
},
